<?xml version="1.0" encoding="UTF-8" standalone="no"?>
<!-- Created with Keyshape -->
<svg xmlns="http://www.w3.org/2000/svg" width="150" height="150" viewBox="0 0 150 150" text-rendering="geometricPrecision" shape-rendering="geometricPrecision" style="white-space: pre;">
    <style>
@keyframes flight_t { 0% { transform: translate(-26px,175px) scale(0.243267,0.243267) translate(-180.871px,-148.324px); animation-timing-function: cubic-bezier(0,0,0.58,1); } 16.6666% { transform: translate(74.9999px,74.9999px) scale(0.243267,0.243267) translate(-180.871px,-148.324px); } 50% { transform: translate(74.9999px,74.9999px) scale(0.243267,0.243267) translate(-180.871px,-148.324px); animation-timing-function: cubic-bezier(0,0,0.58,1); } 66.6666% { transform: translate(194px,-44px) scale(0.243267,0.243267) translate(-180.871px,-148.324px); } 100% { transform: translate(194px,-44px) scale(0.243267,0.243267) translate(-180.871px,-148.324px); } }
@keyframes flight1_t { 0% { transform: translate(-35px,177px) scale(0.17068,0.17068) translate(-180.871px,-148.324px); } 66.6666% { transform: translate(-35px,177px) scale(0.17068,0.17068) translate(-180.871px,-148.324px); animation-timing-function: cubic-bezier(0.42,0,0.58,1); } 100% { transform: translate(179.206px,-27.3477px) scale(0.17068,0.17068) translate(-180.871px,-148.324px); } }
    </style>
    <ellipse rx="70" ry="70" fill="#c8102e" stroke="none" transform="translate(75,75)"/>
    <g id="flight" fill="#0A090B" stroke="none" stroke-width="1" fill-rule="evenodd" transform="translate(-26,175) scale(0.243267,0.243267) translate(-180.871,-148.324)" style="animation: 3s linear infinite both flight_t;">
        <path id="Path" d="M361.341,7.88086C359.805,13.0009,357.245,17.6089,354.685,21.7049C351.613,26.8249,347.005,31.9449,340.861,37.0649C332.669,44.2329,323.965,51.4009,315.261,58.5689L305.021,67.2729C299.389,71.3689,296.829,77.5129,297.853,84.6809C298.877,91.8489,299.901,99.0169,300.925,106.697L313.213,196.297C313.725,201.417,313.725,205.001,312.701,208.073C311.165,212.681,308.093,216.265,302.973,218.825C301.949,219.337,300.925,219.849,299.389,220.361C296.317,221.385,295.293,220.873,294.269,218.313C292.733,215.241,291.709,211.657,290.173,208.073L267.645,147.657C265.085,141.001,261.501,134.857,257.917,128.713L254.845,123.593L250.237,116.937L234.365,128.713C220.029,139.465,205.693,150.729,191.869,161.481C188.285,164.041,188.797,167.113,189.309,169.161C190.333,173.769,191.869,178.377,192.893,182.985L193.917,187.593C194.941,191.689,194.941,195.273,193.405,198.345C191.869,201.417,189.821,203.465,186.237,204.489C186.237,204.489,185.213,204.489,183.677,203.465C182.653,202.953,181.629,201.929,181.117,200.905C169.341,186.057,158.077,171.721,146.813,156.873L137.085,144.585C136.061,143.561,135.549,142.537,134.525,141.001C134.013,140.489,134.013,139.977,134.013,139.977C134.013,139.977,134.525,139.465,135.037,138.953C137.085,136.905,139.645,134.345,141.693,132.809C143.229,131.273,145.277,131.273,147.325,132.297C151.933,134.345,156.029,136.393,160.637,138.953L166.269,141.513C167.293,142.025,168.317,142.537,169.341,143.049C171.901,144.585,174.973,144.073,177.533,142.025C181.629,137.929,185.725,134.345,189.821,130.249L225.149,96.9689L229.245,92.8729L226.685,89.2889C226.173,88.2649,225.661,87.7529,225.149,86.7289C223.613,84.6809,222.589,82.6329,221.053,81.0969C215.421,74.4409,208.765,69.3209,201.597,64.7129C184.189,52.9369,166.269,40.6489,148.861,28.3609C147.325,27.3369,145.789,26.3129,144.253,24.7769C142.717,23.2409,142.717,22.7289,143.741,21.7049C146.301,17.0969,150.397,13.0009,155.005,9.41686C156.029,8.39286,157.565,7.88086,161.149,8.90486C164.733,9.92886,167.805,10.9529,170.365,11.9769L266.109,47.8169C268.669,48.8409,271.229,49.3529,273.277,49.8649C278.909,50.8889,284.541,49.3529,289.149,45.2569C291.709,42.6969,294.269,40.6489,296.829,38.0889C300.925,34.5049,305.021,30.9209,309.117,27.3369C317.821,20.1689,324.989,14.0249,331.645,8.90486C337.789,4.29686,344.957,1.22486,352.637,0.20086C355.197,-0.31114,357.245,0.20086,359.293,1.22486C361.341,1.73686,362.365,4.80886,361.341,7.88086Z" fill="#ffffff"/>
        <path id="Fill-3" d="M136.061,185.545C134.525,183.497,130.941,182.985,128.893,184.521L1.9171,281.289C-0.130901,282.825,-0.642901,286.409,0.893099,288.457C1.9171,289.993,3.4531,290.505,4.9891,290.505C6.0131,290.505,7.0371,289.993,8.0611,289.481L135.037,192.713C137.597,191.177,137.597,188.105,136.061,185.545" fill="#ffffff"/>
        <path id="Fill-5" d="M145.277,208.585L67.9651,267.977C65.9171,269.513,65.4051,273.097,66.9411,275.145C67.9651,276.681,69.5011,277.193,71.0371,277.193C72.0611,277.193,73.0851,276.681,74.1091,276.169L151.933,216.777C153.981,215.241,154.493,211.657,152.957,209.609C150.909,207.561,147.837,207.049,145.277,208.585" fill="#ffffff"/>
        <path id="Fill-6" d="M54.6531,277.705L41.8531,287.433C39.8051,288.969,39.2931,292.553,40.8291,294.601C41.8531,296.137,43.3891,296.649,44.9251,296.649C45.9491,296.649,46.9731,296.137,47.9971,295.625L60.7971,285.897C62.8451,284.361,63.3571,280.777,61.8211,278.729C60.2851,276.681,56.7011,276.169,54.6531,277.705" fill="#ffffff"/>
        <path id="Fill-7" d="M28.0291,239.305C29.0531,239.305,30.0771,238.793,31.1011,238.281L43.9011,228.553C45.9491,227.017,46.4611,223.433,44.9251,221.385C43.3891,219.337,39.8051,218.825,37.7571,220.361L24.9571,230.089C22.9091,231.625,22.3971,235.209,23.9331,237.257C24.9571,238.793,26.4931,239.305,28.0291,239.305" fill="#ffffff"/>
        <path id="Fill-8" d="M54.1411,219.849C55.1651,219.849,56.1891,219.337,57.2131,218.825L118.141,172.745C120.189,171.209,120.701,167.625,119.165,165.577C117.629,163.529,114.045,163.017,111.997,164.553L51.0691,210.633C49.0211,212.169,48.5091,215.753,50.0451,217.801C51.0691,218.825,52.6051,219.849,54.1411,219.849" fill="#ffffff"/>
    </g>
    <g id="flight1" fill="#0A090B" stroke="none" stroke-width="1" fill-rule="evenodd" transform="translate(-35,177) scale(0.17068,0.17068) translate(-180.871,-148.324)" style="animation: 3s linear infinite both flight1_t;">
        <path id="Path-2" d="M361.341,7.88086C359.805,13.0009,357.245,17.6089,354.685,21.7049C351.613,26.8249,347.005,31.9449,340.861,37.0649C332.669,44.2329,323.965,51.4009,315.261,58.5689L305.021,67.2729C299.389,71.3689,296.829,77.5129,297.853,84.6809C298.877,91.8489,299.901,99.0169,300.925,106.697L313.213,196.297C313.725,201.417,313.725,205.001,312.701,208.073C311.165,212.681,308.093,216.265,302.973,218.825C301.949,219.337,300.925,219.849,299.389,220.361C296.317,221.385,295.293,220.873,294.269,218.313C292.733,215.241,291.709,211.657,290.173,208.073L267.645,147.657C265.085,141.001,261.501,134.857,257.917,128.713L254.845,123.593L250.237,116.937L234.365,128.713C220.029,139.465,205.693,150.729,191.869,161.481C188.285,164.041,188.797,167.113,189.309,169.161C190.333,173.769,191.869,178.377,192.893,182.985L193.917,187.593C194.941,191.689,194.941,195.273,193.405,198.345C191.869,201.417,189.821,203.465,186.237,204.489C186.237,204.489,185.213,204.489,183.677,203.465C182.653,202.953,181.629,201.929,181.117,200.905C169.341,186.057,158.077,171.721,146.813,156.873L137.085,144.585C136.061,143.561,135.549,142.537,134.525,141.001C134.013,140.489,134.013,139.977,134.013,139.977C134.013,139.977,134.525,139.465,135.037,138.953C137.085,136.905,139.645,134.345,141.693,132.809C143.229,131.273,145.277,131.273,147.325,132.297C151.933,134.345,156.029,136.393,160.637,138.953L166.269,141.513C167.293,142.025,168.317,142.537,169.341,143.049C171.901,144.585,174.973,144.073,177.533,142.025C181.629,137.929,185.725,134.345,189.821,130.249L225.149,96.9689L229.245,92.8729L226.685,89.2889C226.173,88.2649,225.661,87.7529,225.149,86.7289C223.613,84.6809,222.589,82.6329,221.053,81.0969C215.421,74.4409,208.765,69.3209,201.597,64.7129C184.189,52.9369,166.269,40.6489,148.861,28.3609C147.325,27.3369,145.789,26.3129,144.253,24.7769C142.717,23.2409,142.717,22.7289,143.741,21.7049C146.301,17.0969,150.397,13.0009,155.005,9.41686C156.029,8.39286,157.565,7.88086,161.149,8.90486C164.733,9.92886,167.805,10.9529,170.365,11.9769L266.109,47.8169C268.669,48.8409,271.229,49.3529,273.277,49.8649C278.909,50.8889,284.541,49.3529,289.149,45.2569C291.709,42.6969,294.269,40.6489,296.829,38.0889C300.925,34.5049,305.021,30.9209,309.117,27.3369C317.821,20.1689,324.989,14.0249,331.645,8.90486C337.789,4.29686,344.957,1.22486,352.637,0.20086C355.197,-0.31114,357.245,0.20086,359.293,1.22486C361.341,1.73686,362.365,4.80886,361.341,7.88086Z"/>
        <path id="Fill-2" d="M136.061,185.545C134.525,183.497,130.941,182.985,128.893,184.521L1.9171,281.289C-0.130901,282.825,-0.642901,286.409,0.893099,288.457C1.9171,289.993,3.4531,290.505,4.9891,290.505C6.0131,290.505,7.0371,289.993,8.0611,289.481L135.037,192.713C137.597,191.177,137.597,188.105,136.061,185.545"/>
        <path id="Fill-4" d="M145.277,208.585L67.9651,267.977C65.9171,269.513,65.4051,273.097,66.9411,275.145C67.9651,276.681,69.5011,277.193,71.0371,277.193C72.0611,277.193,73.0851,276.681,74.1091,276.169L151.933,216.777C153.981,215.241,154.493,211.657,152.957,209.609C150.909,207.561,147.837,207.049,145.277,208.585"/>
        <path id="Fill-9" d="M54.6531,277.705L41.8531,287.433C39.8051,288.969,39.2931,292.553,40.8291,294.601C41.8531,296.137,43.3891,296.649,44.9251,296.649C45.9491,296.649,46.9731,296.137,47.9971,295.625L60.7971,285.897C62.8451,284.361,63.3571,280.777,61.8211,278.729C60.2851,276.681,56.7011,276.169,54.6531,277.705"/>
        <path id="Fill-10" d="M28.0291,239.305C29.0531,239.305,30.0771,238.793,31.1011,238.281L43.9011,228.553C45.9491,227.017,46.4611,223.433,44.9251,221.385C43.3891,219.337,39.8051,218.825,37.7571,220.361L24.9571,230.089C22.9091,231.625,22.3971,235.209,23.9331,237.257C24.9571,238.793,26.4931,239.305,28.0291,239.305"/>
        <path id="Fill-11" d="M54.1411,219.849C55.1651,219.849,56.1891,219.337,57.2131,218.825L118.141,172.745C120.189,171.209,120.701,167.625,119.165,165.577C117.629,163.529,114.045,163.017,111.997,164.553L51.0691,210.633C49.0211,212.169,48.5091,215.753,50.0451,217.801C51.0691,218.825,52.6051,219.849,54.1411,219.849"/>
    </g>
</svg>
