<svg xmlns="http://www.w3.org/2000/svg" width="18" height="17" viewBox="0 0 18 17">
  <path fill="#3B3B3B"
        d="M16.355 16.968c.257-.064.458-.209.602-.434.338-.578.55-1.192.639-1.843.088-.65.044-1.297-.133-1.94-.176-.626-.466-1.2-.867-1.722-.402-.522-.883-.952-1.446-1.289l-2.12-1.229-.482-5.493c-.032-.337-.192-.594-.481-.77L9.055.512c-.16-.097-.33-.145-.506-.145-.177 0-.341.044-.494.133-.152.088-.277.209-.373.361-.097.153-.145.317-.145.494L7.37 5.26l-1.76-.988L2.744.392c-.129-.16-.285-.273-.47-.337s-.37-.072-.554-.024c-.185.048-.345.14-.482.277-.136.137-.229.301-.277.494l-.867 4.65C-.068 6.094-.02 6.72.237 7.33c.257.61.675 1.084 1.253 1.421l14.118 8.12c.241.128.49.16.747.096zm-.771-2.433L2.478 6.994c-.193-.113-.33-.277-.41-.494-.08-.217-.088-.43-.024-.639l.458-2.433L4.164 5.62c.08.113.185.21.313.29l3.35 1.927c.144.08.304.124.481.132.177.008.345-.032.506-.12.16-.088.285-.205.374-.35.088-.144.14-.305.156-.481l.169-3.927 1.084.65.482 5.493c.032.338.2.595.506.771l2.578 1.518c.337.193.622.446.855.759.233.313.397.654.494 1.024.112.401.136.811.072 1.229z"></path>
</svg>
