<?xml version="1.0" encoding="UTF-8"?>
<svg width="318px" height="61px" viewBox="0 0 318 61" version="1.1" xmlns="http://www.w3.org/2000/svg" xmlns:xlink="http://www.w3.org/1999/xlink">
    <title>BIA_Horizontal_Colour Copy</title>
    <defs>
        <linearGradient x1="6.53032398%" y1="126.914504%" x2="74.0079186%" y2="7.62168947%" id="linearGradient-1">
            <stop stop-color="#B12029" offset="18.86%"></stop>
            <stop stop-color="#BB2228" offset="28.33%"></stop>
            <stop stop-color="#CF2527" offset="52.44%"></stop>
            <stop stop-color="#DC2826" offset="76.43%"></stop>
            <stop stop-color="#E02826" offset="100%"></stop>
        </linearGradient>
        <linearGradient x1="17.1368627%" y1="119.068181%" x2="61.2273886%" y2="26.3808598%" id="linearGradient-2">
            <stop stop-color="#B12029" offset="0%"></stop>
            <stop stop-color="#BB2228" offset="11.67%"></stop>
            <stop stop-color="#CF2527" offset="41.39%"></stop>
            <stop stop-color="#DC2826" offset="70.96%"></stop>
            <stop stop-color="#E02826" offset="100%"></stop>
        </linearGradient>
        <linearGradient x1="-5.53070242%" y1="-54.1896504%" x2="45.4639647%" y2="59.724602%" id="linearGradient-3">
            <stop stop-color="#B12029" offset="0%"></stop>
            <stop stop-color="#B62128" offset="27.69%"></stop>
            <stop stop-color="#C42328" offset="60.07%"></stop>
            <stop stop-color="#DB2826" offset="94.71%"></stop>
            <stop stop-color="#E02826" offset="100%"></stop>
        </linearGradient>
    </defs>
    <g id="Page-1" stroke="none" stroke-width="1" fill="none" fill-rule="evenodd">
        <g id="Artboard" transform="translate(-2.000000, -1.000000)" fill-rule="nonzero">
            <g id="BIA_Horizontal_Colour-Copy" transform="translate(2.000000, 1.000000)">
                <g id="Group">
                    <path d="M48.7718,6.29069495 C48.7718,6.29069495 43.1893,6.29069495 41.5723,6.29069495 C39.963,6.29069495 34.034,6.1831 30.3842,10.9109 C26.7344,15.6387 22.8074,23.5851 18.8265,34.7578 C14.8456,45.9305 7.6923,60.6452 0.0693,60.6452 C0.0693,60.6452 7.6384,60.6452 8.7703,60.6452 C9.9022,60.6452 14.6608,61.1303 19.866,54.0386 C25.0712,46.9469 30.0839,31.9704 31.5546,28.259 C33.0253,24.5476 37.2911,14.938 40.5328,11.5038 C43.7745,8.0696 45.7996,6.776 48.7718,6.29069495 Z" id="Path" fill="url(#linearGradient-1)"></path>
                    <path d="M67.4443,0.0151949476 C67.4443,0.0151949476 61.8618,0.0151949476 60.2448,0.0151949476 C58.6355,0.0151949476 52.7065,-0.0924 49.0567,4.6354 C46.046,8.5316 42.8505,14.6146 39.5934,22.8844 C38.9004,24.6477 35.9051,32.7943 35.2044,34.7578 C31.2235,45.9305 24.0702,60.6452 16.4472,60.6452 C16.4472,60.6452 24.0163,60.6452 25.1482,60.6452 C26.2801,60.6452 31.0387,61.1303 36.2439,54.0386 C40.0246,48.895 43.6898,39.6088 45.9844,33.4719 C46.8545,31.1465 49.8267,22.9999 50.2271,21.9835 C51.6978,18.2798 55.9636,8.6625 59.2053,5.2283 C62.447,1.7941 64.4721,0.5005 67.4443,0.0151949476 Z" id="Path" fill="url(#linearGradient-2)"></path>
                    <path d="M86.9022,27.0501 C83.8145,17.787 80.773,10.857 77.8932,6.2601 C76.1376,3.5651 73.0884,1.7864 69.6465,1.7479 C68.7918,1.7556 68.0988,1.8326 67.7523,1.9019 C66.7051,2.1175 66.0275,2.3023 64.603,3.0569 C65.1651,3.5959 65.758,4.2196 66.4125,4.9588 C69.2846,8.2236 73.073,17.3558 74.382,20.867 C75.691,24.3859 80.1339,38.6155 84.7539,45.3453 C86.6481,48.1096 88.473,49.6496 90.0438,50.5197 C83.391,50.3657 77.6776,49.0259 74.3897,44.8756 C71.2481,40.2633 68.5377,34.0571 66.6512,28.7595 C63.1246,18.8881 61.1688,14.5453 57.9348,10.3642 C56.1869,13.3364 54.3697,17.1479 53.0299,20.251 C53.9924,22.4301 54.8009,24.4398 55.3014,25.6872 C56.6027,28.9597 59.8906,39.5241 64.4952,45.7842 C69.1075,52.0443 73.3194,51.6208 74.3127,51.6208 C74.6284,51.6208 75.6525,51.6208 76.8999,51.6208 L76.9076,51.6285 L98.4291,51.6285 C98.4291,51.6285 98.4291,51.6208 98.4291,51.6131 C100.8777,51.6131 103.565,51.6131 103.565,51.6131 C96.7813,51.6285 90.4365,37.6607 86.9022,27.0501 Z" id="Path" fill="url(#linearGradient-3)"></path>
                </g>
                <g id="Group" transform="translate(112.420000, 14.630000)" fill="#1D252C">
                    <g transform="translate(0.000000, 24.640000)">
                        <path d="M0.5236,0.539 L4.9126,0.539 C6.0291,0.5467 6.8607,0.8393 7.4228,1.4014 C7.9849,1.9712 8.2698,2.7258 8.2698,3.6729 C8.2775,4.1503 8.1697,4.6123 7.9387,5.0512 C7.8155,5.2591 7.6461,5.4593 7.4228,5.6441 C7.1995,5.8443 6.9223,6.0214 6.5989,6.1831 L6.5989,6.2139 C7.2149,6.3756 7.6846,6.7144 8.0003,7.2149 C8.2929,7.7308 8.4469,8.3006 8.4469,8.9089 C8.4392,9.9176 8.1312,10.7184 7.5306,11.3036 C6.9377,11.9196 6.1908,12.2276 5.2976,12.2276 L0.5236,12.2276 L0.5236,0.539 Z M2.2407,2.1098 L2.2407,5.467 L4.7201,5.467 C5.3438,5.467 5.8058,5.2976 6.1061,4.9588 C6.4064,4.6508 6.5527,4.2581 6.5527,3.7807 C6.5527,3.311 6.3987,2.9029 6.1061,2.5795 C5.8135,2.2715 5.3515,2.1175 4.7201,2.1021 L2.2407,2.1021 L2.2407,2.1098 Z M2.2407,7.0378 L2.2407,10.5567 L4.8895,10.5567 C5.5286,10.549 5.9983,10.3642 6.2909,10.0177 C6.5835,9.6712 6.7375,9.2708 6.7375,8.8011 C6.7375,8.316 6.5912,7.9079 6.2909,7.5614 C5.9983,7.2226 5.5286,7.0455 4.8895,7.0378 L2.2407,7.0378 Z" id="Shape"></path>
                        <path d="M14.9534,11.4807 L14.9226,11.4807 C14.7686,11.7656 14.5376,11.9735 14.2219,12.1044 C13.9139,12.243 13.4827,12.3123 12.936,12.3123 C12.0351,12.2969 11.3421,12.0582 10.857,11.5731 C10.3411,11.1034 10.087,10.5028 10.087,9.7713 C10.087,9.0706 10.3103,8.4931 10.7569,8.0311 C11.2035,7.5614 11.8503,7.3227 12.7127,7.3073 L14.9534,7.3073 L14.9534,6.4295 C14.9611,5.6903 14.4144,5.3361 13.2979,5.3592 C12.8975,5.3592 12.5741,5.4054 12.3431,5.4901 C12.0967,5.5902 11.9119,5.7673 11.7656,6.006 L10.4951,5.005 C11.1111,4.1734 12.0197,3.773 13.2132,3.7961 C14.2296,3.7884 15.0381,3.9809 15.6387,4.389 C16.2393,4.8048 16.5473,5.5209 16.5627,6.5373 L16.5627,12.2199 L14.9457,12.2199 L14.9457,11.4807 L14.9534,11.4807 Z M14.9534,8.6933 L13.013,8.6933 C12.0659,8.7164 11.6039,9.0475 11.6116,9.6943 C11.6116,9.9792 11.7348,10.2179 11.9735,10.4181 C12.2045,10.6337 12.5895,10.7492 13.1285,10.7492 C13.8061,10.7569 14.2912,10.6799 14.5684,10.5028 C14.8225,10.3257 14.9534,9.9253 14.9534,9.3016 L14.9534,8.6933 Z" id="Shape"></path>
                        <path d="M19.2577,0.539 L20.8747,0.539 L20.8747,4.7817 L20.9055,4.7817 C21.4368,4.1272 22.1375,3.7961 22.9999,3.7961 C23.6698,3.7961 24.2781,4.0348 24.8325,4.5276 C25.3792,5.0204 25.6641,5.7442 25.6949,6.6913 L25.6949,12.2199 L24.0779,12.2199 L24.0779,7.2611 C24.0779,6.6759 23.9316,6.237 23.6313,5.929 C23.3387,5.621 22.9537,5.467 22.4917,5.467 C22.0297,5.467 21.6447,5.621 21.3444,5.929 C21.0364,6.237 20.8824,6.6759 20.8824,7.2611 L20.8824,12.2199 L19.2654,12.2199 L19.2654,0.539 L19.2577,0.539 Z" id="Path"></path>
                        <path d="M28.3976,3.9039 L30.0146,3.9039 L30.0146,4.7817 L30.0454,4.7817 C30.5767,4.1272 31.2774,3.7961 32.1398,3.7961 C32.7866,3.8038 33.3487,4.0194 33.8338,4.4352 L32.6557,5.8828 C32.3092,5.6056 31.955,5.467 31.5931,5.467 C31.1773,5.467 30.8231,5.6056 30.5305,5.8828 C30.1994,6.1523 30.03,6.5989 30.0146,7.2072 L30.0146,12.2199 L28.3976,12.2199 L28.3976,3.9039 Z" id="Path"></path>
                        <path d="M39.0544,11.4807 L39.0236,11.4807 C38.8696,11.7656 38.6386,11.9735 38.3229,12.1044 C38.0149,12.243 37.5837,12.3123 37.037,12.3123 C36.1361,12.2969 35.4431,12.0582 34.958,11.5731 C34.4421,11.1034 34.188,10.5028 34.188,9.7713 C34.188,9.0706 34.4113,8.4931 34.8579,8.0311 C35.3045,7.5614 35.9513,7.3227 36.8137,7.3073 L39.0544,7.3073 L39.0544,6.4295 C39.0621,5.6903 38.5154,5.3361 37.3989,5.3592 C36.9985,5.3592 36.6751,5.4054 36.4441,5.4901 C36.1977,5.5902 36.0129,5.7673 35.8666,6.006 L34.5961,5.005 C35.2121,4.1734 36.1207,3.773 37.3142,3.7961 C38.3306,3.7884 39.1391,3.9809 39.7397,4.389 C40.3403,4.8048 40.6483,5.5209 40.6637,6.5373 L40.6637,12.2199 L39.0467,12.2199 L39.0467,11.4807 L39.0544,11.4807 Z M39.0544,8.6933 L37.114,8.6933 C36.1669,8.7164 35.7049,9.0475 35.7126,9.6943 C35.7126,9.9792 35.8358,10.2179 36.0745,10.4181 C36.3055,10.6337 36.6905,10.7492 37.2295,10.7492 C37.9071,10.7569 38.3922,10.6799 38.6694,10.5028 C38.9235,10.3257 39.0544,9.9253 39.0544,9.3016 L39.0544,8.6933 L39.0544,8.6933 Z" id="Shape"></path>
                        <path d="M43.4049,0.539 L45.0219,0.539 L45.0219,2.2022 L43.4049,2.2022 L43.4049,0.539 Z M43.4049,3.9039 L45.0219,3.9039 L45.0219,12.2199 L43.4049,12.2199 L43.4049,3.9039 Z" id="Shape"></path>
                        <path d="M47.6168,3.9039 L49.2338,3.9039 L49.2338,4.7817 L49.2646,4.7817 C49.7959,4.1272 50.4966,3.7961 51.359,3.7961 C52.0289,3.7961 52.6372,4.0348 53.1916,4.5276 C53.7383,5.0204 54.0232,5.7442 54.054,6.6913 L54.054,12.2199 L52.437,12.2199 L52.437,7.2611 C52.437,6.6759 52.2907,6.237 51.9904,5.929 C51.6978,5.621 51.3128,5.467 50.8508,5.467 C50.3888,5.467 50.0038,5.621 49.7035,5.929 C49.3955,6.237 49.2415,6.6759 49.2415,7.2611 L49.2415,12.2199 L47.6245,12.2199 L47.6245,3.9039 L47.6168,3.9039 Z" id="Path"></path>
                        <polygon id="Path" points="61.1688 0.539 62.8859 0.539 62.8859 12.2199 61.1688 12.2199"></polygon>
                        <path d="M65.5886,3.9039 L67.2056,3.9039 L67.2056,4.7817 L67.2364,4.7817 C67.7677,4.1272 68.4684,3.7961 69.3308,3.7961 C70.0007,3.7961 70.609,4.0348 71.1634,4.5276 C71.7101,5.0204 71.995,5.7442 72.0258,6.6913 L72.0258,12.2199 L70.4088,12.2199 L70.4088,7.2611 C70.4088,6.6759 70.2625,6.237 69.9622,5.929 C69.6696,5.621 69.2846,5.467 68.8226,5.467 C68.3606,5.467 67.9756,5.621 67.6753,5.929 C67.3673,6.237 67.2133,6.6759 67.2133,7.2611 L67.2133,12.2199 L65.5963,12.2199 L65.5963,3.9039 L65.5886,3.9039 Z" id="Path"></path>
                        <path d="M74.8286,1.3706 L76.4456,1.3706 L76.4456,3.9039 L77.6237,3.9039 L77.6237,5.1898 L76.4456,5.1898 L76.4456,10.0408 C76.4379,10.4643 76.6227,10.6722 77.0231,10.6568 L77.6314,10.6568 L77.6314,12.2276 L76.7844,12.2276 C76.2146,12.2276 75.7526,12.0428 75.3907,11.6809 C75.0211,11.3344 74.8363,10.8339 74.8363,10.1794 L74.8363,5.1898 L74.0201,5.1898 L74.0201,3.9039 L74.8363,3.9039 L74.8363,1.3706 L74.8286,1.3706 Z" id="Path"></path>
                        <path d="M80.8346,8.6933 C80.8346,9.3632 81.0194,9.8714 81.3967,10.2179 C81.7432,10.5721 82.1975,10.7492 82.7673,10.7492 C83.4218,10.7492 84.0147,10.4797 84.5306,9.9407 L85.701,10.9725 C84.8771,11.8811 83.9146,12.3277 82.7981,12.32 C82.3746,12.32 81.9588,12.2584 81.5584,12.1275 C81.3582,12.0582 81.158,11.9658 80.9655,11.8503 C80.7653,11.7502 80.5728,11.627 80.3957,11.473 C80.0569,11.165 79.7797,10.7338 79.5641,10.1717 C79.3331,9.6404 79.2176,8.9397 79.2176,8.085 C79.2176,7.2611 79.3177,6.5758 79.5179,6.0368 C79.7181,5.4824 79.9799,5.0435 80.2956,4.7201 C80.619,4.3967 80.9732,4.158 81.3736,4.0194 C81.7663,3.8731 82.1513,3.8038 82.5363,3.8038 C83.4603,3.8115 84.238,4.1272 84.8694,4.7432 C85.5162,5.3669 85.8473,6.2293 85.855,7.3227 L85.855,8.701 L80.8346,8.701 L80.8346,8.6933 Z M84.238,7.315 C84.2149,6.6682 84.0455,6.1754 83.7298,5.8443 C83.4218,5.5286 83.0214,5.3669 82.5286,5.3669 C82.0435,5.3669 81.6431,5.5286 81.3274,5.8443 C81.0194,6.1754 80.85,6.6682 80.8192,7.315 L84.238,7.315 Z" id="Shape"></path>
                        <path d="M88.1496,3.9039 L89.7666,3.9039 L89.7666,4.7817 L89.7974,4.7817 C90.3287,4.1272 91.0294,3.7961 91.8918,3.7961 C92.5386,3.8038 93.1007,4.0194 93.5858,4.4352 L92.4077,5.8828 C92.0612,5.6056 91.707,5.467 91.3451,5.467 C90.9293,5.467 90.5751,5.6056 90.2825,5.8828 C89.9514,6.1523 89.782,6.5989 89.7666,7.2072 L89.7666,12.2199 L88.1496,12.2199 L88.1496,3.9039 L88.1496,3.9039 Z" id="Path"></path>
                        <path d="M94.479,3.9039 L96.096,3.9039 L96.096,4.7817 L96.1268,4.7817 C96.6581,4.1272 97.3588,3.7961 98.2212,3.7961 C98.8911,3.7961 99.4994,4.0348 100.0538,4.5276 C100.6005,5.0204 100.8854,5.7442 100.9162,6.6913 L100.9162,12.2199 L99.2992,12.2199 L99.2992,7.2611 C99.2992,6.6759 99.1529,6.237 98.8526,5.929 C98.56,5.621 98.175,5.467 97.713,5.467 C97.251,5.467 96.866,5.621 96.5657,5.929 C96.2577,6.237 96.1037,6.6759 96.1037,7.2611 L96.1037,12.2199 L94.4867,12.2199 L94.4867,3.9039 L94.479,3.9039 Z" id="Path"></path>
                        <path d="M107.8539,11.4807 L107.8231,11.4807 C107.6691,11.7656 107.4381,11.9735 107.1224,12.1044 C106.8144,12.243 106.3832,12.3123 105.8365,12.3123 C104.9356,12.2969 104.2426,12.0582 103.7575,11.5731 C103.2416,11.1034 102.9875,10.5028 102.9875,9.7713 C102.9875,9.0706 103.2108,8.4931 103.6574,8.0311 C104.104,7.5614 104.7508,7.3227 105.6132,7.3073 L107.8539,7.3073 L107.8539,6.4295 C107.8616,5.6903 107.3149,5.3361 106.1984,5.3592 C105.798,5.3592 105.4746,5.4054 105.2436,5.4901 C104.9972,5.5902 104.8124,5.7673 104.6661,6.006 L103.3956,5.005 C104.0116,4.1734 104.9202,3.773 106.1137,3.7961 C107.1301,3.7884 107.9386,3.9809 108.5392,4.389 C109.1398,4.8048 109.4478,5.5209 109.4632,6.5373 L109.4632,12.2199 L107.8462,12.2199 L107.8462,11.4807 L107.8539,11.4807 Z M107.8539,8.6933 L105.9135,8.6933 C104.9664,8.7164 104.5044,9.0475 104.5121,9.6943 C104.5121,9.9792 104.6353,10.2179 104.874,10.4181 C105.105,10.6337 105.49,10.7492 106.029,10.7492 C106.7066,10.7569 107.1917,10.6799 107.4689,10.5028 C107.723,10.3257 107.8539,9.9253 107.8539,9.3016 L107.8539,8.6933 L107.8539,8.6933 Z" id="Shape"></path>
                        <path d="M112.2506,1.3706 L113.8676,1.3706 L113.8676,3.9039 L115.0457,3.9039 L115.0457,5.1898 L113.8676,5.1898 L113.8676,10.0408 C113.8599,10.4643 114.0447,10.6722 114.4451,10.6568 L115.0534,10.6568 L115.0534,12.2276 L114.2064,12.2276 C113.6366,12.2276 113.1746,12.0428 112.8127,11.6809 C112.4431,11.3344 112.2583,10.8339 112.2583,10.1794 L112.2583,5.1898 L111.4421,5.1898 L111.4421,3.9039 L112.2583,3.9039 L112.2583,1.3706 L112.2506,1.3706 Z" id="Path"></path>
                        <path d="M117.0939,0.539 L118.7109,0.539 L118.7109,2.2022 L117.0939,2.2022 L117.0939,0.539 Z M117.0939,3.9039 L118.7109,3.9039 L118.7109,12.2199 L117.0939,12.2199 L117.0939,3.9039 Z" id="Shape"></path>
                        <path d="M120.9054,8.0542 C120.9054,7.1764 120.9747,6.5065 121.1133,6.0291 C121.2596,5.5671 121.4829,5.1821 121.7832,4.8664 C122.0065,4.5892 122.3145,4.3428 122.7149,4.1272 C123.1076,3.9193 123.6158,3.8115 124.2318,3.8038 C124.8709,3.8115 125.3791,3.927 125.7795,4.1349 C126.1722,4.3505 126.4648,4.6046 126.6804,4.8818 C126.9961,5.1975 127.2271,5.5825 127.358,6.0445 C127.4889,6.5142 127.5505,7.1841 127.5505,8.0619 C127.5505,8.9397 127.4812,9.6096 127.358,10.0639 C127.2194,10.5259 126.9961,10.9186 126.6727,11.2574 C126.5726,11.3806 126.4417,11.4961 126.2954,11.6193 C126.1645,11.7502 125.9874,11.8657 125.7795,11.9658 C125.3868,12.1968 124.8709,12.3123 124.2318,12.3277 C123.6158,12.3123 123.1153,12.1968 122.7226,11.9658 C122.3222,11.7579 122.0142,11.5192 121.7909,11.2651 C121.4906,10.9263 121.2673,10.5259 121.121,10.0716 C120.9747,9.6019 120.9054,8.932 120.9054,8.0542 Z M125.9335,8.0696 C125.9335,7.4767 125.9104,7.0378 125.8565,6.7683 C125.8026,6.5065 125.7025,6.2755 125.5408,6.0753 C125.4176,5.8828 125.2482,5.7365 125.0095,5.6287 C124.7862,5.5132 124.5244,5.4593 124.2318,5.4593 C123.9546,5.4593 123.7005,5.5132 123.4695,5.6287 C123.2462,5.7365 123.0614,5.8828 122.9228,6.0753 C122.7842,6.2755 122.6841,6.5065 122.6225,6.7683 C122.5609,7.0455 122.5301,7.469 122.5301,8.0542 C122.5301,8.6317 122.5609,9.0552 122.6225,9.3247 C122.6841,9.6019 122.7842,9.8406 122.9228,10.0485 C123.0614,10.2102 123.2462,10.3488 123.4695,10.472 C123.7005,10.5875 123.9546,10.6491 124.2318,10.6491 C124.5244,10.6491 124.7862,10.5875 125.0095,10.472 C125.2405,10.3488 125.4176,10.2025 125.5408,10.0485 C125.7025,9.8406 125.8103,9.5942 125.8565,9.3247 C125.9027,9.0552 125.9335,8.6394 125.9335,8.0696 Z" id="Shape"></path>
                        <path d="M129.8451,3.9039 L131.4621,3.9039 L131.4621,4.7817 L131.4929,4.7817 C132.0242,4.1272 132.7249,3.7961 133.5873,3.7961 C134.2572,3.7961 134.8655,4.0348 135.4199,4.5276 C135.9666,5.0204 136.2515,5.7442 136.2823,6.6913 L136.2823,12.2199 L134.6653,12.2199 L134.6653,7.2611 C134.6653,6.6759 134.519,6.237 134.2187,5.929 C133.9261,5.621 133.5411,5.467 133.0791,5.467 C132.6171,5.467 132.2321,5.621 131.9318,5.929 C131.6238,6.237 131.4698,6.6759 131.4698,7.2611 L131.4698,12.2199 L129.8528,12.2199 L129.8528,3.9039 L129.8451,3.9039 Z" id="Path"></path>
                        <path d="M143.22,11.4807 L143.1892,11.4807 C143.0352,11.7656 142.8042,11.9735 142.4885,12.1044 C142.1805,12.243 141.7493,12.3123 141.2026,12.3123 C140.3017,12.2969 139.6087,12.0582 139.1236,11.5731 C138.6077,11.1034 138.3536,10.5028 138.3536,9.7713 C138.3536,9.0706 138.5769,8.4931 139.0235,8.0311 C139.4701,7.5614 140.1169,7.3227 140.9793,7.3073 L143.22,7.3073 L143.22,6.4295 C143.2277,5.6903 142.681,5.3361 141.5645,5.3592 C141.1641,5.3592 140.8407,5.4054 140.6097,5.4901 C140.3633,5.5902 140.1785,5.7673 140.0322,6.006 L138.7617,5.005 C139.3777,4.1734 140.2863,3.773 141.4798,3.7961 C142.4962,3.7884 143.3047,3.9809 143.9053,4.389 C144.5059,4.8048 144.8139,5.5209 144.8293,6.5373 L144.8293,12.2199 L143.22,12.2199 L143.22,11.4807 Z M143.22,8.6933 L141.2796,8.6933 C140.3325,8.7164 139.8705,9.0475 139.8782,9.6943 C139.8782,9.9792 140.0014,10.2179 140.2401,10.4181 C140.4711,10.6337 140.8561,10.7492 141.3951,10.7492 C142.0727,10.7569 142.5578,10.6799 142.835,10.5028 C143.0891,10.3257 143.22,9.9253 143.22,9.3016 L143.22,8.6933 L143.22,8.6933 Z" id="Shape"></path>
                        <path d="M147.5243,0.539 L149.1413,0.539 L149.1413,10.087 C149.1413,10.4643 149.3415,10.6568 149.7496,10.6568 L150.3117,10.6568 L150.3117,12.2276 L149.5879,12.2276 C148.995,12.2276 148.5099,12.0736 148.1249,11.7733 C147.7245,11.4653 147.5243,10.9494 147.5243,10.2179 L147.5243,0.539 L147.5243,0.539 Z" id="Path"></path>
                        <path d="M162.2929,9.6096 L157.9963,9.6096 L157.1262,12.2199 L155.309,12.2199 L159.4208,0.539 L160.8607,0.539 L164.9725,12.2199 L163.163,12.2199 L162.2929,9.6096 Z M161.8001,8.0388 L160.16,2.926 L160.1292,2.926 L158.4891,8.0388 L161.8001,8.0388 Z" id="Shape"></path>
                        <path d="M166.7358,0.539 L168.3528,0.539 L168.3528,2.2022 L166.7358,2.2022 L166.7358,0.539 Z M166.7358,3.9039 L168.3528,3.9039 L168.3528,12.2199 L166.7358,12.2199 L166.7358,3.9039 Z" id="Shape"></path>
                        <path d="M170.9477,3.9039 L172.5647,3.9039 L172.5647,4.7817 L172.5955,4.7817 C173.1268,4.1272 173.8275,3.7961 174.6899,3.7961 C175.3367,3.8038 175.8988,4.0194 176.3839,4.4352 L175.2058,5.8828 C174.8593,5.6056 174.5051,5.467 174.1432,5.467 C173.7274,5.467 173.3732,5.6056 173.0806,5.8828 C172.7495,6.1523 172.5801,6.5989 172.5647,7.2072 L172.5647,12.2199 L170.9477,12.2199 L170.9477,3.9039 L170.9477,3.9039 Z" id="Path"></path>
                        <path d="M177.6621,3.9039 L179.2791,3.9039 L179.2791,4.7663 C179.8181,4.1503 180.5111,3.8192 181.3581,3.7961 C182.3437,3.8192 183.0675,4.1888 183.5218,4.8895 C183.7451,5.1513 183.8991,5.4978 183.9761,5.9213 C184.0531,6.3448 184.0916,7.0609 184.0916,8.0696 C184.0916,9.0552 184.0531,9.7559 183.9761,10.1871 C183.8914,10.6183 183.7374,10.9648 183.5141,11.2343 C183.2908,11.5577 182.9982,11.8118 182.6363,12.0043 C182.2821,12.2045 181.8509,12.3046 181.3504,12.32 C180.9346,12.32 180.565,12.2276 180.2416,12.0428 C179.8874,11.8734 179.5717,11.6424 179.2714,11.3421 L179.2714,15.5925 L177.6544,15.5925 L177.6544,3.9039 L177.6621,3.9039 Z M180.873,10.6491 C181.258,10.6491 181.5583,10.5721 181.7816,10.4258 C182.0049,10.2718 182.1589,10.0716 182.2513,9.8329 C182.3514,9.5788 182.4284,9.3016 182.4592,8.9936 C182.4669,8.6933 182.4746,8.3853 182.4746,8.0696 C182.4746,7.7385 182.4669,7.4151 182.4592,7.0994 C182.4207,6.7837 182.3514,6.5065 182.2513,6.2601 C182.1589,6.006 181.9972,5.8135 181.7816,5.6672 C181.5583,5.5286 181.258,5.467 180.873,5.467 C180.5111,5.467 180.2262,5.544 180.0106,5.698 C179.7873,5.852 179.6256,6.0599 179.5178,6.3063 C179.4177,6.5604 179.3561,6.8299 179.3253,7.1302 C179.2945,7.4382 179.2791,7.7539 179.2791,8.0696 C179.2791,8.3622 179.2945,8.6548 179.3253,8.9551 C179.3561,9.2631 179.4177,9.548 179.5178,9.8021 C179.6179,10.0562 179.7873,10.2564 180.0106,10.4104 C180.2185,10.5721 180.5111,10.6491 180.873,10.6491 Z" id="Shape"></path>
                        <path d="M186.109,8.0542 C186.109,7.1764 186.1783,6.5065 186.3169,6.0291 C186.4632,5.5671 186.6865,5.1821 186.9868,4.8664 C187.2101,4.5892 187.5181,4.3428 187.9185,4.1272 C188.3112,3.9193 188.8194,3.8115 189.4354,3.8038 C190.0745,3.8115 190.5827,3.927 190.9831,4.1349 C191.3758,4.3505 191.6684,4.6046 191.884,4.8818 C192.1997,5.1975 192.4307,5.5825 192.5616,6.0445 C192.6925,6.5142 192.7541,7.1841 192.7541,8.0619 C192.7541,8.9397 192.6848,9.6096 192.5616,10.0639 C192.423,10.5259 192.1997,10.9186 191.8763,11.2574 C191.7762,11.3806 191.6453,11.4961 191.499,11.6193 C191.3681,11.7502 191.191,11.8657 190.9831,11.9658 C190.5904,12.1968 190.0745,12.3123 189.4354,12.3277 C188.8194,12.3123 188.3189,12.1968 187.9262,11.9658 C187.5258,11.7579 187.2178,11.5192 186.9945,11.2651 C186.6942,10.9263 186.4709,10.5259 186.3246,10.0716 C186.1783,9.6019 186.109,8.932 186.109,8.0542 Z M191.1371,8.0696 C191.1371,7.4767 191.114,7.0378 191.0601,6.7683 C191.0062,6.5065 190.9061,6.2755 190.7444,6.0753 C190.6212,5.8828 190.4518,5.7365 190.2131,5.6287 C189.9898,5.5132 189.728,5.4593 189.4354,5.4593 C189.1582,5.4593 188.9041,5.5132 188.6731,5.6287 C188.4498,5.7365 188.265,5.8828 188.1264,6.0753 C187.9878,6.2755 187.8877,6.5065 187.8261,6.7683 C187.7645,7.0455 187.7337,7.469 187.7337,8.0542 C187.7337,8.6317 187.7645,9.0552 187.8261,9.3247 C187.8877,9.6019 187.9878,9.8406 188.1264,10.0485 C188.265,10.2102 188.4498,10.3488 188.6731,10.472 C188.9041,10.5875 189.1582,10.6491 189.4354,10.6491 C189.728,10.6491 189.9898,10.5875 190.2131,10.472 C190.4441,10.3488 190.6212,10.2025 190.7444,10.0485 C190.9061,9.8406 191.0139,9.5942 191.0601,9.3247 C191.1063,9.0552 191.1371,8.6394 191.1371,8.0696 Z" id="Shape"></path>
                        <path d="M195.0487,3.9039 L196.6657,3.9039 L196.6657,4.7817 L196.6965,4.7817 C197.2278,4.1272 197.9285,3.7961 198.7909,3.7961 C199.4377,3.8038 199.9998,4.0194 200.4849,4.4352 L199.3068,5.8828 C198.9603,5.6056 198.6061,5.467 198.2442,5.467 C197.8284,5.467 197.4742,5.6056 197.1816,5.8828 C196.8505,6.1523 196.6811,6.5989 196.6657,7.2072 L196.6657,12.2199 L195.0487,12.2199 L195.0487,3.9039 L195.0487,3.9039 Z" id="Path"></path>
                        <path d="M201.8555,1.3706 L203.4725,1.3706 L203.4725,3.9039 L204.6506,3.9039 L204.6506,5.1898 L203.4725,5.1898 L203.4725,10.0408 C203.4648,10.4643 203.6496,10.6722 204.05,10.6568 L204.6583,10.6568 L204.6583,12.2276 L203.8113,12.2276 C203.2415,12.2276 202.7795,12.0428 202.4176,11.6809 C202.048,11.3344 201.8632,10.8339 201.8632,10.1794 L201.8632,5.1898 L201.047,5.1898 L201.047,3.9039 L201.8632,3.9039 L201.8632,1.3706 L201.8555,1.3706 Z" id="Path"></path>
                    </g>
                    <g>
                        <path d="M160.4372,6.5681 L158.9819,6.8376 L159.3361,8.8935 C159.4362,9.5557 159.5209,10.2179 159.5209,10.8262 C159.5209,12.6588 158.774,13.8831 156.4871,13.8831 L155.8403,13.8831 L155.8403,15.8004 L156.5025,15.8004 C159.6903,15.8004 160.9608,13.6136 160.9608,10.8108 C160.9608,10.0177 160.8607,9.0629 160.6682,7.9926 L160.4372,6.5681 Z" id="Path"></path>
                        <path d="M17.3789,8.3776 C17.3789,9.2939 17.0247,9.7174 16.0391,9.7174 L6.7991,9.7174 L6.7991,11.6193 L10.6183,11.6193 C10.2641,12.9052 8.8011,13.6521 6.5681,13.6521 L5.3977,13.6521 C3.2109,13.6521 1.8865,12.6665 1.8865,10.9571 C1.8865,10.1794 2.1945,9.1245 2.618,8.2082 L1.3244,7.8155 C0.8316,8.9859 0.5313,10.2795 0.5313,11.2959 C0.5313,14.0602 2.5487,15.708 5.9752,15.708 C9.4864,15.708 11.6809,14.2142 12.0274,11.6347 L16.0468,11.6347 C18.1335,11.6347 18.9805,10.6029 18.9805,8.3776 L18.9805,0.1925 L17.3866,0.1925 L17.3866,8.3776 L17.3789,8.3776 Z" id="Path"></path>
                        <path d="M44.2365,8.3776 C44.2365,9.2939 43.8823,9.7174 42.8967,9.7174 L39.1545,9.7174 C38.3614,9.7174 37.9687,9.2939 37.3758,7.6307 L35.882,3.4573 L34.2727,4.0348 L35.6202,7.8001 C35.8204,8.393 35.9436,8.7318 35.9436,8.9859 C35.9436,9.548 35.5663,9.7174 34.3651,9.7174 L30.8231,9.7174 L30.8231,11.6347 L33.9801,11.6347 C35.42,11.6347 36.0668,11.1111 36.267,9.7867 L36.3517,9.7713 C37.0139,11.1958 37.7069,11.6347 39.2007,11.6347 L39.2084,11.627 L39.2084,11.6347 L42.9121,11.6347 C44.9988,11.6347 45.8458,10.6029 45.8458,8.3776 L45.8458,0.1925 L44.2519,0.1925 L44.2519,8.3776 L44.2365,8.3776 Z" id="Path"></path>
                        <rect id="Rectangle" x="48.1712" y="0.1925" width="1.5785" height="11.4422"></rect>
                        <path d="M28.1589,9.5788 C28.105,9.1553 28.028,8.7549 27.8971,8.4007 C27.6815,7.7847 27.3427,7.2611 26.8961,6.8299 C26.5265,6.4834 26.1569,6.2293 25.7873,6.0522 C25.41,5.8751 25.0173,5.7904 24.5938,5.7904 C24.2242,5.7904 23.87,5.8597 23.5389,6.006 C23.2078,6.1446 22.9152,6.3448 22.6688,6.5912 C22.4224,6.8376 22.2222,7.1225 22.0759,7.4459 C21.9296,7.7693 21.8603,8.1158 21.8603,8.4777 C21.8603,9.4864 22.1298,10.2641 22.6765,10.8031 C23.2232,11.3498 23.9932,11.6193 24.9942,11.6193 L26.6112,11.6193 C26.1492,12.8898 24.8941,13.7753 22.6996,13.7753 L21.56,13.7753 L21.56,15.6926 L22.7612,15.6926 C26.0337,15.6926 27.9125,13.8831 28.2436,10.8108 C28.2821,10.472 28.182,9.933 28.182,9.5711 C28.1743,9.5865 28.1666,9.5788 28.1589,9.5788 Z M24.6708,9.7174 C23.793,9.7174 23.3541,9.2862 23.3541,8.5778 C23.3541,8.4469 23.3926,8.3237 23.4696,8.2082 C23.5466,8.085 23.639,7.9849 23.7545,7.8925 C23.87,7.8001 24.0009,7.7308 24.1472,7.6769 C24.2935,7.623 24.4475,7.5999 24.5938,7.5999 C24.7632,7.5999 24.9557,7.6538 25.1636,7.7693 C25.3715,7.8848 25.5717,8.0311 25.7642,8.2236 C25.949,8.4161 26.1107,8.6317 26.2493,8.8781 C26.3879,9.1245 26.4572,9.4633 26.4726,9.7328 L24.6708,9.7328 L24.6708,9.7174 Z" id="Shape"></path>
                        <path d="M89.5587,8.4931 C89.5587,7.9849 89.4894,7.2534 89.3585,6.3525 L89.1352,4.8741 L87.6568,5.1128 L87.9263,6.5912 C88.0803,7.5614 88.1342,8.1004 88.1342,8.4931 C88.1342,9.4248 87.5721,9.7174 86.0321,9.7174 L69.9468,9.7174 C69.8929,9.2092 69.7928,8.6317 69.6773,7.9541 L69.4078,6.4988 L67.9294,6.7837 L68.2528,8.2621 C68.4761,9.3478 68.5916,10.164 68.5916,10.7877 C68.5916,12.7589 67.5906,13.6521 65.4038,13.6521 L64.2334,13.6521 C62.37,13.6521 61.2304,12.6665 61.2304,10.9571 C61.2304,10.1794 61.5384,9.1245 61.9619,8.2082 L60.6683,7.8155 C60.1755,8.9859 59.8752,10.2795 59.8752,11.2959 C59.8752,14.0756 61.6539,15.708 64.8109,15.708 C68.068,15.708 69.7158,14.399 69.9699,11.6347 L86.0398,11.6347 C88.4191,11.6347 89.5587,10.6106 89.5587,8.4931 Z" id="Path"></path>
                        <path d="M140.4788,8.3776 C140.4788,9.2939 140.1246,9.7174 139.139,9.7174 L133.8491,9.7174 C132.9482,9.7174 132.5247,9.2939 132.5247,8.3776 L132.5247,5.7981 L131.0463,5.7981 L131.0463,8.3776 C131.0463,9.2785 130.592,9.7174 129.6372,9.7174 L128.5207,9.7174 C127.5505,9.7174 127.1424,9.3786 127.1424,8.4469 L127.1424,8.3622 L128.3821,8.3622 L128.3821,6.4449 L128.0741,6.4449 C127.2964,6.4449 126.3801,6.3063 125.279,6.0214 L120.0353,4.7817 L119.8351,6.5296 L122.9382,7.2919 L125.5485,7.854 L125.5485,7.9387 L124.3781,8.5008 C122.122,9.5865 120.813,9.7251 118.5954,9.7251 L96.019,9.7251 C95.9651,9.1784 95.8804,8.5701 95.7803,7.9079 L95.5416,6.4834 L94.0863,6.7529 L94.4405,8.8088 C94.5406,9.471 94.6253,10.1332 94.6253,10.7415 C94.6253,12.5741 93.8784,13.7984 91.5915,13.7984 L90.9447,13.7984 L90.9447,15.5309 L91.6069,15.5309 C94.4405,15.5309 95.7418,13.9832 96.019,11.6424 L118.6108,11.6424 C120.6975,11.6424 122.1066,11.4884 124.9864,9.6943 L125.8488,9.1553 C125.9643,10.9186 126.8113,11.6501 128.6747,11.6501 L128.6747,11.6501 C128.6747,11.6501 128.6747,11.6501 128.6747,11.6501 C128.6747,11.6501 128.6747,11.6501 128.6747,11.6501 L128.6747,11.6501 C130.1762,11.6501 130.8384,11.1034 131.1156,9.7174 L131.2157,9.7174 C131.5083,11.0418 132.4015,11.6501 134.0647,11.6501 L134.0801,11.6347 L134.0801,11.6501 L139.1313,11.6501 C141.218,11.6501 142.065,10.6183 142.065,8.393 L142.065,0.077 L140.4711,0.077 L140.4711,8.3776 L140.4788,8.3776 Z" id="Path"></path>
                        <rect id="Rectangle" x="144.4135" y="0.0616" width="1.5785" height="11.5731"></rect>
                        <path d="M203.6034,6.8222 C202.8565,6.1138 202.0172,5.7673 201.0855,5.7673 C200.1076,5.7673 199.276,6.4064 198.5907,7.6846 C198.3674,8.1004 198.1903,8.4392 198.0594,8.6856 C197.9285,8.932 197.8361,9.0937 197.7822,9.163 C197.6128,9.394 197.428,9.5634 197.2278,9.6712 C197.0815,9.7559 196.9121,9.7944 196.7196,9.8175 C196.7196,9.8175 189.0196,9.8021 188.7501,9.7328 C188.9195,9.2939 189.0042,8.7472 189.0042,8.1235 C189.0042,5.7981 187.6952,4.389 185.3082,4.389 C183.6604,4.389 182.2898,4.9588 180.9962,6.4911 L180.9962,0.3465 L179.41,0.3465 L179.41,8.8781 L178.8479,9.8098 L165.781,9.8098 C164.78,9.8098 164.3565,9.5172 164.3565,8.5855 L164.3565,0.3465 L162.778,0.3465 L162.778,8.7472 C162.778,10.9032 163.6789,11.7348 165.8965,11.7348 L165.9119,11.7348 L165.9273,11.7194 L165.9273,11.7348 L184.8847,11.7348 C186.0397,11.7348 186.956,11.55 187.6182,11.1419 C188.1572,11.5962 188.7655,11.7348 189.6125,11.7348 L189.6125,11.7348 C189.6125,11.7348 195.8572,11.7425 195.8649,11.7348 C196.8197,11.6886 197.6128,11.4961 198.1672,11.1573 C198.4059,11.011 198.6831,10.78 198.8448,10.5567 C198.8525,10.549 198.8602,10.5336 198.8679,10.5259 C199.3145,10.8031 199.6687,11.0264 199.9305,11.1804 C200.2,11.3344 200.3463,11.4268 200.3848,11.4499 C200.6851,11.6039 200.9931,11.7194 201.3088,11.8041 C201.6168,11.8888 201.9248,11.9273 202.2328,11.9273 C203.3108,11.9273 204.0885,11.3344 204.5659,10.1563 C204.6891,9.8483 204.758513,9.548 204.758513,9.2554 C204.7661,8.3699 204.3811,7.5537 203.6034,6.8222 Z M184.8924,9.8098 L180.1723,9.8098 L180.2262,9.7097 L180.9577,8.5932 C182.1589,6.7606 183.1599,6.3217 185.0618,6.3217 L185.57,6.3217 C186.9252,6.3217 187.6028,6.93 187.6028,8.1543 C187.6028,9.4017 186.7712,9.8098 184.8924,9.8098 Z M203.1183,9.6173 C203.0644,9.7251 202.9874,9.8175 202.8873,9.9022 C202.7872,9.9792 202.6717,10.0408 202.5331,10.087 C202.3945,10.1332 202.2482,10.1563 202.0942,10.1563 C201.8247,10.1563 201.4859,10.0485 201.0624,9.8406 C200.6389,9.625 200.1538,9.317 199.5917,8.9089 C199.738,8.6548 199.8766,8.4315 199.9998,8.2313 C200.1307,8.0311 200.2231,7.8925 200.2847,7.8155 C200.5311,7.4998 200.7852,7.3381 201.047,7.3381 C201.2703,7.3381 201.5013,7.4074 201.7554,7.5383 C202.0018,7.6692 202.2405,7.8386 202.4561,8.0388 C202.6717,8.239 202.8488,8.4469 202.9874,8.6702 C203.126,8.8935 203.1953,9.0937 203.1953,9.2785 C203.203,9.394 203.1722,9.5095 203.1183,9.6173 Z" id="Shape"></path>
                    </g>
                    <g transform="translate(63.910000, 4.620000)" id="Rectangle">
                        <rect x="23.716" y="9.2323" width="1.617" height="1.6632"></rect>
                        <rect x="20.867" y="9.2323" width="1.617" height="1.6632"></rect>
                        <rect x="0.2849" y="0.0539" width="1.617" height="1.6632"></rect>
                    </g>
                    <g transform="translate(3.080000, 16.940000)" id="Rectangle">
                        <rect x="3.1801" y="0.3311" width="1.617" height="1.6632"></rect>
                        <rect x="0.3388" y="0.3311" width="1.617" height="1.6632"></rect>
                    </g>
                    <rect id="Rectangle" x="130.5304" y="12.7666" width="1.617" height="1.6632"></rect>
                </g>
            </g>
        </g>
    </g>
</svg>