<?xml version="1.0" encoding="UTF-8"?>
<svg width="153px" height="61px" viewBox="0 0 153 61" version="1.1" xmlns="http://www.w3.org/2000/svg" xmlns:xlink="http://www.w3.org/1999/xlink">
    <title>BAC_logo_07.02-01</title>
    <defs>
        <path d="M26.7298537,0 C26.7298537,0 23.6646798,0 22.7803405,0 C21.8962523,0 18.6434608,-0.0585347057 16.6391927,2.52961141 C14.6354269,5.11775752 12.4814666,9.47051454 10.2958599,15.5878825 C8.11000213,21.7049998 4.18535384,29.7636652 0,29.7636652 C0,29.7636652 4.15596796,29.7636652 4.77482969,29.7636652 C5.39394258,29.7636652 8.00627247,30.0283193 10.8649917,26.1462254 C13.7234598,22.2638809 16.4719192,14.0583525 17.2806589,12.0290876 C18.0896499,9.99982263 20.4309766,4.73531238 22.2099529,2.853161 C23.9889292,0.970759 25.0983092,0.265014886 26.7298537,0" id="path-1"></path>
        <linearGradient x1="12.5367034%" y1="119.068181%" x2="62.7989907%" y2="26.3808598%" id="linearGradient-3">
            <stop stop-color="#B12029" offset="0%"></stop>
            <stop stop-color="#BB2228" offset="11.67%"></stop>
            <stop stop-color="#CF2527" offset="41.39%"></stop>
            <stop stop-color="#DC2826" offset="70.96%"></stop>
            <stop stop-color="#E02826" offset="100%"></stop>
        </linearGradient>
        <path d="M27.990684,0 C27.990684,0 24.925259,0 24.0411708,0 C23.1568314,0 19.9040399,-0.0587839472 17.900023,2.52936217 C16.2486367,4.66213291 14.49553,7.9931148 12.7065072,12.5223078 C12.3247419,13.489448 10.6803881,17.9477157 10.2956088,19.0241259 C8.11000213,25.1412432 4.18535384,33.1999086 0,33.1999086 C0,33.1999086 4.15596796,33.1999086 4.77482969,33.1999086 C5.39369142,33.1999086 8.00627247,33.4645627 10.8649917,29.5824688 C12.9378269,26.7670109 14.9526438,21.6784355 16.2122183,18.3201361 C16.6896761,17.0472404 18.3189602,12.586717 18.5414892,12.0288383 C19.3504802,9.99957339 21.6918069,4.73506314 23.4707832,2.85291176 C25.2497595,0.970509758 26.3588883,0.264765645 27.990684,0" id="path-4"></path>
        <linearGradient x1="16.9820274%" y1="119.068181%" x2="61.2802867%" y2="26.3808598%" id="linearGradient-6">
            <stop stop-color="#B12029" offset="0%"></stop>
            <stop stop-color="#BB2228" offset="11.67%"></stop>
            <stop stop-color="#CF2527" offset="41.39%"></stop>
            <stop stop-color="#DC2826" offset="70.96%"></stop>
            <stop stop-color="#E02826" offset="100%"></stop>
        </linearGradient>
        <path d="M18.6020191,13.8552406 C16.9086889,8.78170232 15.2369585,4.98657338 13.6566509,2.46910192 C12.6926933,0.994457615 11.0199583,0.0208014068 9.12846168,0 C8.66004564,0.00576424525 8.28028957,0.0471164394 8.08815109,0.0862130593 C7.51324261,0.203502919 7.143533,0.306758095 6.3591559,0.720029417 C6.66783328,1.01525902 6.99308732,1.35484825 7.35199698,1.76160347 C8.93029532,3.54927136 11.0071491,8.54887694 11.7247172,10.4758892 C12.4422854,12.4031521 14.8803093,20.1956598 17.4160349,23.8822705 C18.4568478,25.3955102 19.4582284,26.2388444 20.3182051,26.7150211 C16.6688297,26.6285575 13.5303167,25.8964983 11.7254707,23.6246338 C10,21.1003956 8.51562782,17.7014959 7.47632188,14.7963163 C5.54212781,9.39170984 4.46539882,7.0103247 2.69219922,4.72392429 C1.7335161,6.35169702 0.736405273,8.4383538 0,10.1403099 C0.529197104,11.3317543 0.972748166,12.4329758 1.24576063,13.116916 C1.96157066,14.9098469 3.76340266,20.6951441 6.29310045,24.1251207 C8.82229591,27.5553478 11.1339856,27.32152 11.6817686,27.32152 C11.8563258,27.32152 12.4179227,27.32152 13.1015841,27.32152 L13.1051004,27.3248858 L24.9149613,27.3248858 C24.9149613,27.3248858 24.9157148,27.3222718 24.9162171,27.3177607 C26.2599307,27.3177607 27.7352529,27.3177607 27.7352529,27.3177607 C24.0223337,27.3177607 20.5412364,19.664848 18.6020191,13.8552406" id="path-7"></path>
        <linearGradient x1="-5.53070242%" y1="-53.8006214%" x2="45.4639647%" y2="59.6882917%" id="linearGradient-9">
            <stop stop-color="#B12029" offset="0%"></stop>
            <stop stop-color="#B62128" offset="27.69%"></stop>
            <stop stop-color="#C42328" offset="60.07%"></stop>
            <stop stop-color="#DB2826" offset="94.71%"></stop>
            <stop stop-color="#E02826" offset="100%"></stop>
        </linearGradient>
    </defs>
    <g id="Page-1" stroke="none" stroke-width="1" fill="none" fill-rule="evenodd">
        <g id="BAC_logo_07.02-01">
            <path d="M1.79479948,59.7935184 L2.75624538,59.7935184 C3.55594333,59.7935184 3.93670404,59.4895171 3.93670404,58.9288816 C3.93670404,58.3116061 3.52731093,58.074019 2.6324228,58.074019 L1.79479948,58.074019 L1.79479948,59.7935184 Z M1.79479948,56.9532492 L2.68014347,56.9532492 C3.41303249,56.9532492 3.72723542,56.668295 3.72723542,56.2028949 C3.72723542,55.7467676 3.49892969,55.4808605 2.53748379,55.4808605 L1.79479948,55.4808605 L1.79479948,56.9532492 Z M2.66105521,54.3598401 C4.21273044,54.3598401 5.05989789,54.9109521 5.05989789,56.0793395 C5.05989789,56.7537562 4.71731372,57.2191564 4.19389333,57.4757906 C4.8697687,57.7226506 5.26936652,58.2166214 5.26936652,59.0333899 C5.26936652,60.049902 4.60303528,60.9142882 2.87052383,60.9142882 L0.461885845,60.9142882 L0.461885845,54.3598401 L2.66105521,54.3598401 L2.66105521,54.3598401 Z" id="Fill-1" fill="#1A2022"></path>
            <path d="M9.15408014,58.5489427 L10.6389464,58.5489427 L9.89651329,56.2407384 L9.15408014,58.5489427 Z M6.97399905,60.9142882 L9.25881445,54.3598401 L10.5342121,54.3598401 L12.8190275,60.9142882 L11.400719,60.9142882 L11.00087,59.6699631 L8.80170067,59.6699631 L8.4018517,60.9142882 L6.97399905,60.9142882 L6.97399905,60.9142882 Z" id="Fill-2" fill="#1A2022"></path>
            <polyline id="Fill-3" fill="#1A2022" points="16.1991579 56.9627728 18.474178 56.9627728 18.474178 54.3598401 19.8070916 54.3598401 19.8070916 60.9142882 18.474178 60.9142882 18.474178 58.0835425 16.1991579 58.0835425 16.1991579 60.9142882 14.8662442 60.9142882 14.8662442 54.3598401 16.1991579 54.3598401 16.1991579 56.9627728"></polyline>
            <path d="M24.7672784,57.2191564 C25.5574322,57.2191564 26.014546,57.048234 26.014546,56.3642937 C26.014546,55.6803535 25.5574322,55.490384 24.7672784,55.490384 L23.8723903,55.490384 L23.8723903,57.2191564 L24.7672784,57.2191564 Z M26.1192803,60.9142882 L24.9385705,58.3401767 L23.8723903,58.3401767 L23.8723903,60.9142882 L22.5397278,60.9142882 L22.5397278,54.3598401 L24.891101,54.3598401 C26.4045997,54.3598401 27.3472085,55.0342568 27.3472085,56.3642937 C27.3472085,57.247727 26.9378154,57.8271589 26.2237635,58.1216367 L27.5853095,60.9142882 L26.1192803,60.9142882 L26.1192803,60.9142882 Z" id="Fill-4" fill="#1A2022"></path>
            <path d="M31.402963,58.5489427 L32.8880805,58.5489427 L32.1453962,56.2407384 L31.402963,58.5489427 Z M29.222882,60.9142882 L31.5076974,54.3598401 L32.7833462,54.3598401 L35.0681616,60.9142882 L33.6496019,60.9142882 L33.2497529,59.6699631 L31.0505836,59.6699631 L30.6509858,60.9142882 L29.222882,60.9142882 L29.222882,60.9142882 Z" id="Fill-5" fill="#1A2022"></path>
            <polygon id="Fill-6" fill="#1A2022" points="37.2105685 60.9142882 38.543231 60.9142882 38.543231 54.3598401 37.2105685 54.3598401"></polygon>
            <polyline id="Fill-7" fill="#1A2022" points="46.3021094 54.3598401 46.3021094 60.9142882 45.1882085 60.9142882 42.6276179 56.8582645 42.6276179 60.9142882 41.361262 60.9142882 41.361262 54.3598401 42.4656188 54.3598401 45.0360047 58.473005 45.0360047 54.3598401 46.3021094 54.3598401"></polyline>
            <path d="M54.2423264,58.5489427 L55.7274439,58.5489427 L54.9847596,56.2407384 L54.2423264,58.5489427 Z M52.0624965,60.9142882 L54.3470608,54.3598401 L55.6227096,54.3598401 L57.907525,60.9142882 L56.4889653,60.9142882 L56.0891163,59.6699631 L53.8901981,59.6699631 L53.4903492,60.9142882 L52.0624965,60.9142882 L52.0624965,60.9142882 Z" id="Fill-8" fill="#1A2022"></path>
            <polygon id="Fill-9" fill="#1A2022" points="60.0499319 60.9142882 61.3825943 60.9142882 61.3825943 54.3598401 60.0499319 54.3598401"></polygon>
            <path d="M66.4284272,57.2191564 C67.218581,57.2191564 67.6754436,57.048234 67.6754436,56.3642937 C67.6754436,55.6803535 67.218581,55.490384 66.4284272,55.490384 L65.5335391,55.490384 L65.5335391,57.2191564 L66.4284272,57.2191564 Z M67.7801779,60.9142882 L66.5997193,58.3401767 L65.5335391,58.3401767 L65.5335391,60.9142882 L64.2008766,60.9142882 L64.2008766,54.3598401 L66.5522498,54.3598401 C68.0657485,54.3598401 69.0081061,55.0342568 69.0081061,56.3642937 C69.0081061,57.247727 68.598713,57.8271589 67.8849123,58.1216367 L69.2462071,60.9142882 L67.7801779,60.9142882 L67.7801779,60.9142882 Z" id="Fill-10" fill="#1A2022"></path>
            <path d="M73.6636341,57.4850635 C74.5871547,57.4850635 74.9774595,57.1622658 74.9774595,56.4592785 C74.9774595,55.8322288 74.5871547,55.490384 73.6636341,55.490384 L72.8355549,55.490384 L72.8355549,57.4850635 L73.6636341,57.4850635 Z M72.8355549,58.6060839 L72.8355549,60.9142882 L71.5028925,60.9142882 L71.5028925,54.3598401 L73.8542656,54.3598401 C75.3677643,54.3598401 76.3103731,55.0533039 76.3103731,56.4592785 C76.3103731,57.846206 75.3773085,58.6060839 73.8542656,58.6060839 L72.8355549,58.6060839 L72.8355549,58.6060839 Z" id="Fill-11" fill="#1A2022"></path>
            <path d="M79.6809593,58.1025896 C79.6809593,59.3564382 80.0901013,59.8789796 80.8611668,59.8789796 C81.6324835,59.8789796 82.0511696,59.3564382 82.0511696,58.1025896 L82.0511696,57.1717893 C82.0511696,55.91769 81.6324835,55.3953993 80.8611668,55.3953993 C80.0901013,55.3953993 79.6809593,55.91769 79.6809593,57.1717893 L79.6809593,58.1025896 Z M80.8611668,61 C79.3858447,61 78.3480457,60.1070432 78.3480457,58.1025896 L78.3480457,57.1717893 C78.3480457,55.1482886 79.3858447,54.2743789 80.8611668,54.2743789 C82.3462843,54.2743789 83.3840833,55.1482886 83.3840833,57.1717893 L83.3840833,58.1025896 C83.3840833,60.1070432 82.3462843,61 80.8611668,61 L80.8611668,61 Z" id="Fill-12" fill="#1A2022"></path>
            <path d="M88.1348015,57.2191564 C88.9249553,57.2191564 89.382069,57.048234 89.382069,56.3642937 C89.382069,55.6803535 88.9249553,55.490384 88.1348015,55.490384 L87.2399133,55.490384 L87.2399133,57.2191564 L88.1348015,57.2191564 Z M89.4868034,60.9142882 L88.3060935,58.3401767 L87.2399133,58.3401767 L87.2399133,60.9142882 L85.9072508,60.9142882 L85.9072508,54.3598401 L88.258624,54.3598401 C89.7721227,54.3598401 90.7147315,55.0342568 90.7147315,56.3642937 C90.7147315,57.247727 90.3053384,57.8271589 89.5912865,58.1216367 L90.9525814,60.9142882 L89.4868034,60.9142882 L89.4868034,60.9142882 Z" id="Fill-13" fill="#1A2022"></path>
            <polyline id="Fill-14" fill="#1A2022" points="97.4930758 54.3598401 97.4930758 55.490384 95.6844625 55.490384 95.6844625 60.9142882 94.3518 60.9142882 94.3518 55.490384 92.5429355 55.490384 92.5429355 54.3598401 97.4930758 54.3598401"></polyline>
            <path d="M106.804383,56.3926137 C106.68056,55.7753382 106.318888,55.3953993 105.671394,55.3953993 C104.900328,55.3953993 104.490935,55.91769 104.490935,57.1717893 L104.490935,58.1025896 C104.490935,59.3185947 104.900328,59.8789796 105.671394,59.8789796 C106.337725,59.8789796 106.661472,59.5464077 106.804383,58.8815146 L108.070488,58.8815146 C107.851475,60.3539033 107.023145,61 105.671394,61 C104.195821,61 103.158273,60.1070432 103.158273,58.1025896 L103.158273,57.1717893 C103.158273,55.1482886 104.195821,54.2743789 105.671394,54.2743789 C106.975675,54.2743789 107.861019,54.9583191 108.080032,56.3926137 L106.804383,56.3926137" id="Fill-15" fill="#1A2022"></path>
            <path d="M111.507632,58.1025896 C111.507632,59.3564382 111.917025,59.8789796 112.687839,59.8789796 C113.459156,59.8789796 113.878093,59.3564382 113.878093,58.1025896 L113.878093,57.1717893 C113.878093,55.91769 113.459156,55.3953993 112.687839,55.3953993 C111.917025,55.3953993 111.507632,55.91769 111.507632,57.1717893 L111.507632,58.1025896 Z M112.687839,61 C111.212266,61 110.174718,60.1070432 110.174718,58.1025896 L110.174718,57.1717893 C110.174718,55.1482886 111.212266,54.2743789 112.687839,54.2743789 C114.173208,54.2743789 115.210756,55.1482886 115.210756,57.1717893 L115.210756,58.1025896 C115.210756,60.1070432 114.173208,61 112.687839,61 L112.687839,61 Z" id="Fill-16" fill="#1A2022"></path>
            <polyline id="Fill-17" fill="#1A2022" points="120.827981 57.9316672 122.655682 54.3598401 123.921787 54.3598401 123.921787 60.9142882 122.646138 60.9142882 122.646138 56.8487409 121.218034 59.7363772 120.409043 59.7363772 119.000028 56.8770609 119.000028 60.9142882 117.733923 60.9142882 117.733923 54.3598401 118.98094 54.3598401 120.827981 57.9316672"></polyline>
            <path d="M128.805872,57.4850635 C129.729392,57.4850635 130.119697,57.1622658 130.119697,56.4592785 C130.119697,55.8322288 129.729392,55.490384 128.805872,55.490384 L127.977793,55.490384 L127.977793,57.4850635 L128.805872,57.4850635 Z M127.977793,58.6060839 L127.977793,60.9142882 L126.64513,60.9142882 L126.64513,54.3598401 L128.996503,54.3598401 C130.510002,54.3598401 131.45236,55.0533039 131.45236,56.4592785 C131.45236,57.846206 130.519546,58.6060839 128.996503,58.6060839 L127.977793,58.6060839 L127.977793,58.6060839 Z" id="Fill-18" fill="#1A2022"></path>
            <path d="M134.718212,58.5489427 L136.203329,58.5489427 L135.460645,56.2407384 L134.718212,58.5489427 Z M132.538382,60.9142882 L134.822946,54.3598401 L136.098595,54.3598401 L138.38341,60.9142882 L136.964851,60.9142882 L136.565002,59.6699631 L134.366083,59.6699631 L133.966234,60.9142882 L132.538382,60.9142882 L132.538382,60.9142882 Z" id="Fill-19" fill="#1A2022"></path>
            <polyline id="Fill-20" fill="#1A2022" points="145.371474 54.3598401 145.371474 60.9142882 144.257573 60.9142882 141.696732 56.8582645 141.696732 60.9142882 140.430627 60.9142882 140.430627 54.3598401 141.534984 54.3598401 144.10537 58.473005 144.10537 54.3598401 145.371474 54.3598401"></polyline>
            <polyline id="Fill-21" fill="#1A2022" points="149.056012 54.3598401 150.226927 56.8011233 151.407385 54.3598401 152.940224 54.3598401 150.893509 58.2356685 150.893509 60.9142882 149.560596 60.9142882 149.560596 58.2356685 147.513881 54.3598401 149.056012 54.3598401"></polyline>
            <path d="M72.1732423,27.7054688 L77.0879689,27.7054688 C81.1756209,27.7054688 83.1218707,26.1796982 83.1218707,23.3662453 C83.1218707,20.2663344 81.029445,19.0743888 76.4552933,19.0743888 L72.1732423,19.0743888 L72.1732423,27.7054688 Z M72.1732423,13.4474829 L76.6986687,13.4474829 C80.4454947,13.4474829 82.0514208,12.016697 82.0514208,9.68017272 C82.0514208,7.39126612 80.8835202,6.05596618 75.9687936,6.05596618 L72.1732423,6.05596618 L72.1732423,13.4474829 Z M76.6012181,0.429060342 C84.5328956,0.429060342 88.863923,3.19489558 88.863923,9.06039105 C88.863923,12.446008 87.1120722,14.7825322 84.4356961,16.0702145 C87.8906726,17.3100285 89.934373,19.7896564 89.934373,23.890541 C89.934373,28.9931511 86.5281219,33.3326253 77.671668,33.3326253 L65.36074,33.3326253 L65.36074,0.429060342 L76.6012181,0.429060342 L76.6012181,0.429060342 Z" id="Fill-22" fill="#1A2022"></path>
            <path d="M105.214029,21.4585307 L112.805132,21.4585307 L109.00958,9.87089405 L105.214029,21.4585307 Z M94.0707504,33.3326253 L105.749254,0.429060342 L112.269907,0.429060342 L123.94841,33.3326253 L116.698134,33.3326253 L114.654182,27.0856872 L103.413704,27.0856872 L101.369752,33.3326253 L94.0707504,33.3326253 L94.0707504,33.3326253 Z" id="Fill-23" fill="#1A2022"></path>
            <path d="M146.479347,10.6337794 C145.846672,7.53436977 143.997873,5.62665522 140.688821,5.62665522 C136.747345,5.62665522 134.654919,8.24963742 134.654919,14.5441932 L134.654919,19.2172418 C134.654919,25.3210763 136.747345,28.1347798 140.688821,28.1347798 C144.095072,28.1347798 145.749472,26.4656549 146.479347,23.1276556 L152.951275,23.1276556 C151.832099,30.5191724 147.598523,33.7616856 140.688821,33.7616856 C133.146444,33.7616856 127.842417,29.2791078 127.842417,19.2172418 L127.842417,14.5441932 C127.842417,4.38709187 133.146444,0 140.688821,0 C147.355147,0 151.880574,3.43323459 153,10.6337794 L146.479347,10.6337794" id="Fill-24" fill="#1A2022"></path>
            <path d="M18.499043,42.7363649 L17.467523,42.9010218 L17.6430849,43.853626 C17.7277263,44.3927082 17.7638935,44.7277863 17.7638935,44.9736439 C17.7638935,45.4062129 17.5812991,45.6257555 16.5826814,45.6257555 L6.61257777,45.6257555 C6.58268956,45.3598483 6.53145263,45.0628644 6.4724297,44.7222727 L6.28029122,43.6934802 L5.25002709,43.8934744 L5.45924455,44.8465799 C5.59838797,45.5305201 5.66042484,45.990156 5.66042484,46.336512 C5.66042484,47.4655522 5.09656746,47.9690465 3.83171857,47.9690465 L3.13298751,47.9690465 C2.04194231,47.9690465 1.41629923,47.4106665 1.41629923,46.4375116 C1.41629923,46.0104562 1.57654021,45.4104734 1.8447806,44.8330464 L1.88094785,44.7546026 L0.963706355,44.4779188 L0.937585567,44.5400724 C0.631922124,45.2676204 0.456360294,46.0327613 0.456360294,46.640012 C0.456360294,48.3570052 1.55745194,49.3419393 3.47783213,49.3419393 C5.41704943,49.3419393 6.44630891,48.5484784 6.62262423,46.917197 L16.5826814,46.917197 C18.0502175,46.917197 18.7635159,46.2816263 18.7635159,44.9736439 C18.7635159,44.6606203 18.721572,44.2167734 18.6419538,43.6899715 L18.499043,42.7363649" id="Fill-25" fill="#CD2C2B"></path>
            <path d="M54.4450137,44.9027186 C54.4450137,45.4297711 54.2486055,45.6257555 53.7201619,45.6257555 L44.9578935,45.6257555 C44.4636079,45.6257555 44.242837,45.4027042 44.242837,44.9027186 L44.242837,43.2927398 L43.2118194,43.2927398 L43.2118194,44.9027186 C43.2118194,45.3959375 42.9689463,45.6257555 42.4467817,45.6257555 L41.7824597,45.6257555 C41.2580347,45.6257555 41.0563521,45.4633541 41.0385196,44.967629 L41.776683,44.967629 L41.776683,43.6756862 L41.5184891,43.6756862 C41.0523335,43.6756862 40.5123365,43.5939843 39.865847,43.4260693 L36.6549994,42.668447 L36.5171118,43.8581371 L38.4354827,44.3293015 L39.8663493,44.6260348 L39.2791339,44.9062273 C37.9278855,45.5550808 37.1651083,45.6257555 35.8595712,45.6257555 L22.6118112,45.6257555 C22.5811695,45.3182455 22.5329465,44.9764007 22.4764351,44.607489 L22.3217197,43.683706 L21.3037625,43.8721718 L21.5283008,45.1666208 C21.5858168,45.5402943 21.6388118,45.9365235 21.6388118,46.3066883 C21.6388118,47.4963783 21.086759,48.0504977 19.9015283,48.0504977 L19.4426564,48.0504977 L19.4426564,49.2334211 L19.9120771,49.2334211 C21.4793243,49.2334211 22.410882,48.4331935 22.6098019,46.917197 L35.8595712,46.917197 C37.0792111,46.917197 37.9469738,46.8380013 39.7061083,45.7440478 L40.1185154,45.4861605 C40.2235008,46.4866329 40.7537026,46.9161945 41.8733802,46.9166958 C42.7554591,46.9161945 43.1864521,46.6096871 43.3620139,45.8848959 C43.5777615,46.5713423 44.1109772,46.9016586 45.0231955,46.9166958 L53.7201619,46.917197 C54.9832526,46.917197 55.5461054,46.2959116 55.5461054,44.9027186 L55.5461054,40.1915759 L54.4450137,40.1915759 L54.4450137,44.9027186" id="Fill-26" fill="#CD2C2B"></path>
            <polygon id="Fill-27" fill="#CD2C2B" points="56.7923683 46.917197 57.8836647 46.917197 57.8836647 40.1915759 56.7923683 40.1915759"></polygon>
            <polygon id="Fill-28" fill="#CD2C2B" points="17.4594859 49.2334211 18.5741402 49.2334211 18.5741402 48.0918499 17.4594859 48.0918499"></polygon>
            <polygon id="Fill-29" fill="#CD2C2B" points="15.7616347 49.2334211 16.876289 49.2334211 16.876289 48.0918499 15.7616347 48.0918499"></polygon>
            <polygon id="Fill-30" fill="#CD2C2B" points="3.04181591 43.7659092 4.15647028 43.7659092 4.15647028 42.6245886 3.04181591 42.6245886"></polygon>
            <polygon id="Fill-31" fill="#CD2C2B" points="42.9018862 48.5833145 44.0165405 48.5833145 44.0165405 47.4419939 42.9018862 47.4419939"></polygon>
            <path d="M65.0952624,43.9067573 L64.1250259,44.0874538 L64.3382619,45.3124813 C64.3900011,45.6470581 64.442745,46.0370218 64.442745,46.3878889 C64.442745,47.5079068 63.9225898,48.0296963 62.8066796,48.0296963 L62.3689052,48.0296963 L62.3689052,49.2569793 L62.8164749,49.2569793 C64.461331,49.2569793 65.4046933,48.2076361 65.4046933,46.3781148 C65.4046933,45.9405334 65.3496889,45.4039573 65.2411872,44.7834238 L65.0952624,43.9067573" id="Fill-32" fill="#CD2C2B"></path>
            <path d="M110.022765,44.5856851 C110.022765,44.9661253 109.873073,45.1596034 109.056296,45.1596034 C108.455518,45.1596034 108.337975,44.9946959 108.337975,44.7102429 C108.337975,44.3839365 108.547694,44.1809349 109.272295,43.804254 L110.022765,43.4213076 L110.022765,44.5856851 Z M127.36521,43.1924921 L126.336955,42.3509123 L130.221669,40.8133625 L130.221669,39.6224193 L125.753005,41.3882833 L125.753005,43.4786994 L127.282578,44.6548561 C127.626418,44.9165027 127.730901,45.0608594 127.730901,45.2723822 C127.730901,45.490421 127.647013,45.7410404 126.993491,45.7410404 L111.684449,45.7410404 C111.20448,45.7410404 111.04223,45.6082121 111.04223,45.2149903 L111.04223,41.8601996 L110.022765,41.8601996 L110.022765,42.3950213 L109.049515,42.9085404 C107.865791,43.5345875 107.404659,44.1122651 107.404659,44.9673784 C107.404659,45.8693575 107.929837,46.3866358 108.846074,46.3866358 C109.471968,46.3866358 109.873324,46.124488 110.076012,45.6042022 C110.132272,46.5232234 110.642129,46.9447651 111.696756,46.9643134 L126.831241,46.9680727 C128.030537,46.9680727 128.664468,46.3490429 128.664468,45.1768962 C128.664468,44.4270431 128.324144,43.9070079 127.36521,43.1924921 L127.36521,43.1924921 Z" id="Fill-33" fill="#CD2C2B"></path>
            <path d="M152.922893,44.278927 L152.835238,43.7095198 L151.863495,43.8558815 L151.96195,44.4345616 C152.017205,44.8022202 152.047596,45.1099808 152.047596,45.3012034 C152.047596,45.6781349 151.902676,45.8460499 151.577924,45.8460499 L151.43426,45.8460499 C151.123573,45.8460499 150.916616,45.712971 150.916616,45.0626138 L150.916616,44.3014828 L149.935831,44.3014828 L149.935831,45.0626138 C149.935831,45.6400408 149.723599,45.8650969 149.179333,45.8650969 C148.812386,45.8650969 148.484871,45.7708641 148.117422,45.5600932 L148.113152,45.5578376 L148.554694,44.7057318 L147.702503,44.2754183 L147.277538,45.1342909 C147.043205,45.6104677 146.838006,45.7410404 146.32212,45.7410404 L131.449095,45.7410404 C131.419709,45.451575 131.374751,45.130281 131.321254,44.7834238 L131.175078,43.9067573 L130.205343,44.0874538 L130.418328,45.3124813 C130.469816,45.6470581 130.52256,46.0367712 130.52256,46.3878889 C130.52256,47.5079068 130.002907,48.0296963 128.886997,48.0296963 L128.44872,48.0296963 L128.44872,49.2569793 L128.896541,49.2569793 C130.34951,49.2569793 131.253189,48.4442208 131.447588,46.9660678 L145.932569,46.9680727 L145.93282,46.9675715 C146.61623,46.9650653 147.098209,46.8843659 147.490523,46.5014195 L147.697731,46.6239724 C148.242249,46.9497775 148.61874,47.0826058 148.997492,47.0826058 C149.558586,47.0826058 149.941105,46.7430166 150.0913,46.1202274 C150.278164,46.767076 150.741557,47.0826058 151.50132,47.0826058 C152.481854,47.0826058 153,46.4665834 153,45.3012034 C153,45.034795 152.973377,44.6819229 152.922893,44.278927" id="Fill-34" fill="#CD2C2B"></path>
            <polygon id="Fill-35" fill="#CD2C2B" points="108.62455 41.1880385 109.73619 41.1880385 109.73619 40.0507278 108.62455 40.0507278"></polygon>
            <polygon id="Fill-36" fill="#CD2C2B" points="110.000914 41.1880385 111.112555 41.1880385 111.112555 40.0507278 110.000914 40.0507278"></polygon>
            <polygon id="Fill-37" fill="#CD2C2B" points="149.07284 43.2020156 150.183978 43.2020156 150.183978 42.0644544 149.07284 42.0644544"></polygon>
            <polygon id="Fill-38" fill="#CD2C2B" points="150.449205 43.2020156 151.560092 43.2020156 151.560092 42.0644544 150.449205 42.0644544"></polygon>
            <polygon id="Fill-39" fill="#CD2C2B" points="149.768808 41.8739837 150.880198 41.8739837 150.880198 40.7361718 149.768808 40.7361718"></polygon>
            <path d="M101.512914,45.6666064 C101.486291,45.7194871 101.450877,45.7633455 101.403408,45.8009384 C101.354934,45.8397844 101.29566,45.8706106 101.227344,45.8936675 C101.159028,45.9162233 101.084433,45.9272505 100.999289,45.9272505 C100.859392,45.9272505 100.673282,45.8691069 100.446985,45.7553257 C100.222698,45.6417951 99.9640018,45.4801456 99.6761709,45.2748884 C99.7462449,45.1553429 99.8120492,45.0470754 99.8730814,44.9505869 C99.9436578,44.8403144 99.9961505,44.7646273 100.030811,44.7215208 C100.15614,44.561375 100.281972,44.4801744 100.404288,44.4801744 C100.516808,44.4801744 100.640631,44.5157623 100.772239,44.5854345 C100.908871,44.6578635 101.036963,44.7493396 101.153,44.8571059 C101.271548,44.9671278 101.368999,45.0824127 101.443343,45.200705 C101.514924,45.3137344 101.551091,45.4164883 101.551091,45.50621 C101.551091,45.5633512 101.538282,45.6169838 101.512914,45.6666064 Z M82.7684866,45.7410404 L80.2515981,45.7252513 L80.614024,45.1706307 C81.2502159,44.2052449 81.7547992,43.9265562 82.863928,43.9265562 L83.1507543,43.9265562 C83.8718387,43.9265562 84.2224601,44.2390785 84.2224601,44.881416 C84.2224601,45.5079644 83.8281366,45.7410404 82.7684866,45.7410404 Z M100.424381,43.4416077 C99.8419374,43.4416077 99.3431308,43.8210455 98.9417749,44.5701467 L98.6391254,45.1362958 C98.5657862,45.2713797 98.5158051,45.3590965 98.4881774,45.3966894 C98.3985127,45.5169867 98.3008109,45.606959 98.1980859,45.6643508 C98.131277,45.702445 98.0491472,45.7257526 97.9481803,45.7375317 L85.4343139,45.7410404 C85.2728171,45.7410404 85.1535154,45.7327699 85.0465207,45.712971 C85.1258877,45.4733789 85.1655712,45.1876728 85.1655712,44.8623689 C85.1655712,43.4814562 84.3789336,42.6897497 83.00709,42.6897497 C82.008221,42.6897497 81.2459461,43.0506415 80.5550011,43.8553803 L80.6549633,42.8789673 L80.6549633,40.0767922 L79.607369,40.0767922 L79.6179178,45.2528338 L79.3228032,45.7430453 L68.4349558,45.7625936 L68.0446509,45.7410404 C67.4938539,45.7410404 67.316534,45.5924231 67.316534,45.1292785 L67.316534,40.0767922 L66.2779815,40.0767922 L66.2779815,45.2149903 C66.2779815,46.4420227 66.7951229,46.9520331 68.0564555,46.966569 L68.0564555,46.9680727 L82.7684866,46.9680727 C83.4250226,46.9680727 83.9268431,46.8643163 84.3003201,46.6507886 C84.5730814,46.8645669 84.889796,46.9575467 85.3619794,46.9663184 L85.3619794,46.9680727 L97.7176141,46.9520331 C98.1679466,46.9064204 98.5376562,46.8039171 98.8086593,46.638007 C98.9231889,46.5683349 99.0751416,46.4517969 99.1871596,46.3169636 C99.4142095,46.4588142 99.597055,46.5708411 99.7377054,46.6527936 C99.8878999,46.7395079 99.973546,46.7906342 100.001676,46.8081776 C100.179498,46.8968968 100.360837,46.9658172 100.540417,47.0131842 C100.722007,47.0615538 100.905355,47.0861145 101.084433,47.0861145 C101.726401,47.0861145 102.195069,46.7329918 102.477625,46.0367712 C102.552471,45.8543203 102.590648,45.6723707 102.590648,45.495684 C102.590648,44.9731426 102.361338,44.4904498 101.908494,44.0606376 C101.471473,43.6498724 100.972164,43.4416077 100.424381,43.4416077 L100.424381,43.4416077 Z" id="Fill-40" fill="#CD2C2B"></path>
            <g id="Group-43" transform="translate(0.000000, 3.489263)">
                <mask id="mask-2" fill="white">
                    <use xlink:href="#path-1"></use>
                </mask>
                <g id="Clip-42"></g>
                <path d="M26.7298537,0 C26.7298537,0 23.6646798,0 22.7803405,0 C21.8962523,0 18.6434608,-0.0585347057 16.6391927,2.52961141 C14.6354269,5.11775752 12.4814666,9.47051454 10.2958599,15.5878825 C8.11000213,21.7049998 4.18535384,29.7636652 0,29.7636652 C0,29.7636652 4.15596796,29.7636652 4.77482969,29.7636652 C5.39394258,29.7636652 8.00627247,30.0283193 10.8649917,26.1462254 C13.7234598,22.2638809 16.4719192,14.0583525 17.2806589,12.0290876 C18.0896499,9.99982263 20.4309766,4.73531238 22.2099529,2.853161 C23.9889292,0.970759 25.0983092,0.265014886 26.7298537,0" id="Fill-41" fill="url(#linearGradient-3)" fill-rule="nonzero" mask="url(#mask-2)"></path>
            </g>
            <g id="Group-46" transform="translate(8.986053, 0.053020)">
                <mask id="mask-5" fill="white">
                    <use xlink:href="#path-4"></use>
                </mask>
                <g id="Clip-45"></g>
                <path d="M27.990684,0 C27.990684,0 24.925259,0 24.0411708,0 C23.1568314,0 19.9040399,-0.0587839472 17.900023,2.52936217 C16.2486367,4.66213291 14.49553,7.9931148 12.7065072,12.5223078 C12.3247419,13.489448 10.6803881,17.9477157 10.2956088,19.0241259 C8.11000213,25.1412432 4.18535384,33.1999086 0,33.1999086 C0,33.1999086 4.15596796,33.1999086 4.77482969,33.1999086 C5.39369142,33.1999086 8.00627247,33.4645627 10.8649917,29.5824688 C12.9378269,26.7670109 14.9526438,21.6784355 16.2122183,18.3201361 C16.6896761,17.0472404 18.3189602,12.586717 18.5414892,12.0288383 C19.3504802,9.99957339 21.6918069,4.73506314 23.4707832,2.85291176 C25.2497595,0.970509758 26.3588883,0.264765645 27.990684,0" id="Fill-44" fill="url(#linearGradient-6)" fill-rule="nonzero" mask="url(#mask-5)"></path>
            </g>
            <g id="Group-49" transform="translate(29.057115, 1.000723)">
                <mask id="mask-8" fill="white">
                    <use xlink:href="#path-7"></use>
                </mask>
                <g id="Clip-48"></g>
                <path d="M18.6020191,13.8552406 C16.9086889,8.78170232 15.2369585,4.98657338 13.6566509,2.46910192 C12.6926933,0.994457615 11.0199583,0.0208014068 9.12846168,0 C8.66004564,0.00576424525 8.28028957,0.0471164394 8.08815109,0.0862130593 C7.51324261,0.203502919 7.143533,0.306758095 6.3591559,0.720029417 C6.66783328,1.01525902 6.99308732,1.35484825 7.35199698,1.76160347 C8.93029532,3.54927136 11.0071491,8.54887694 11.7247172,10.4758892 C12.4422854,12.4031521 14.8803093,20.1956598 17.4160349,23.8822705 C18.4568478,25.3955102 19.4582284,26.2388444 20.3182051,26.7150211 C16.6688297,26.6285575 13.5303167,25.8964983 11.7254707,23.6246338 C10,21.1003956 8.51562782,17.7014959 7.47632188,14.7963163 C5.54212781,9.39170984 4.46539882,7.0103247 2.69219922,4.72392429 C1.7335161,6.35169702 0.736405273,8.4383538 0,10.1403099 C0.529197104,11.3317543 0.972748166,12.4329758 1.24576063,13.116916 C1.96157066,14.9098469 3.76340266,20.6951441 6.29310045,24.1251207 C8.82229591,27.5553478 11.1339856,27.32152 11.6817686,27.32152 C11.8563258,27.32152 12.4179227,27.32152 13.1015841,27.32152 L13.1051004,27.3248858 L24.9149613,27.3248858 C24.9149613,27.3248858 24.9157148,27.3222718 24.9162171,27.3177607 C26.2599307,27.3177607 27.7352529,27.3177607 27.7352529,27.3177607 C24.0223337,27.3177607 20.5412364,19.664848 18.6020191,13.8552406" id="Fill-47" fill="url(#linearGradient-9)" fill-rule="nonzero" mask="url(#mask-8)"></path>
            </g>
        </g>
    </g>
</svg>