<?xml version="1.0" encoding="UTF-8"?>
<svg width="463px" height="464px" viewBox="0 0 463 464" version="1.1" xmlns="http://www.w3.org/2000/svg" xmlns:xlink="http://www.w3.org/1999/xlink">
    <title>Group 1433 Copy</title>
    <defs>
        <filter color-interpolation-filters="auto" id="filter-1">
            <feColorMatrix in="SourceGraphic" type="matrix" values="0 0 0 0 0.847059 0 0 0 0 0.843137 0 0 0 0 0.847059 0 0 0 1.000000 0"></feColorMatrix>
        </filter>
        <polygon id="path-2" points="0 0 85.9789 0 85.9789 92.4359278 0 92.4359278"></polygon>
    </defs>
    <g id="Page-1" stroke="none" stroke-width="1" fill="none" fill-rule="evenodd" opacity="0.400738235">
        <g filter="url(#filter-1)" id="Group-1433-Copy">
            <g transform="translate(0.000000, 1.000000)" id="Group-1381">
                <path d="M33.3742,82.3555054 C39.7412,74.5185054 45.9312,60.3515054 49.8002,51.0025054 C51.2662,47.4585054 56.2712,35.0405054 56.9542,33.4885054 C59.4392,27.8385054 66.6312,13.1825054 72.0952,7.94250543 C77.5602,2.70250543 80.9672,0.737505434 85.9792,0.0002 L73.8472,0.0002 C71.1312,0.0002 61.1392,-0.162494566 54.9842,7.04250543 C49.9112,12.9795054 44.5262,22.2525054 39.0312,34.8615054 C37.8582,37.5545054 32.8072,49.9655054 31.6262,52.9615054 C24.9112,69.9925054 12.8562,92.4265054 0.0002,92.4265054 L14.6672,92.4265054 C16.5682,92.4265054 24.5932,93.1635054 33.3742,82.3555054" id="Fill-1320" stroke="#FFFFFF" opacity="0.397232056"></path>
                <path d="M75.3024,92.4262054 L89.9694,92.4262054 C91.8704,92.4262054 99.8954,93.1632054 108.6764,82.3552054 C115.0434,74.5182054 121.2334,60.3512054 125.1014,51.0022054 C126.5674,47.4592054 131.5734,35.0412054 132.2564,33.4882054 C134.7414,27.8392054 141.9324,13.1832054 147.3974,7.94320543 C152.8614,2.70220543 156.2694,0.738205434 161.2814,0.000894509121 L149.1494,0.000894509121 C146.4334,0.000894509121 136.4414,-0.162794566 130.2864,7.04220543 C125.2134,12.9792054 119.8284,22.2532054 114.3334,34.8622054 C113.1604,37.5542054 108.1094,49.9652054 106.9274,52.9622054 C100.2134,69.9922054 88.1584,92.4262054 75.3024,92.4262054" id="Fill-1322" stroke="#FFFFFF" opacity="0.397232056"></path>
                <path d="M150.6047,92.4262054 L165.2717,92.4262054 C167.1727,92.4262054 175.1977,93.1632054 183.9777,82.3552054 C190.3457,74.5182054 196.5347,60.3512054 200.4037,51.0022054 C201.8697,47.4592054 206.8757,35.0412054 207.5577,33.4882054 C210.0427,27.8392054 217.2347,13.1832054 222.6997,7.94320543 C228.1637,2.70220543 231.5707,0.738205434 236.5837,0.000894509121 L224.4517,0.000894509121 C221.7357,0.000894509121 211.7437,-0.162794566 205.5877,7.04220543 C200.5157,12.9792054 195.1307,22.2532054 189.6357,34.8622054 C188.4617,37.5542054 183.4117,49.9652054 182.2297,52.9622054 C175.5157,69.9922054 163.4607,92.4262054 150.6047,92.4262054" id="Fill-1324" stroke="#FFFFFF" opacity="0.397232056"></path>
                <path d="M280.8898,7.04230543 C275.8168,12.9793054 270.4318,22.2523054 264.9368,34.8623054 C263.7638,37.5543054 258.7128,49.9653054 257.5318,52.9623054 C250.8178,69.9923054 238.7628,92.4263054 225.9068,92.4263054 L240.5728,92.4263054 C242.4738,92.4263054 250.4988,93.1633054 259.2798,82.3553054 C265.6478,74.5183054 271.8368,60.3513054 275.7058,51.0023054 C277.1718,47.4593054 282.1768,35.0413054 282.8598,33.4883054 C285.3448,27.8393054 292.5368,13.1833054 298.0008,7.94330543 C303.4658,2.70230543 306.8728,0.738305434 311.8848,0 L299.7538,0 C297.0368,0 287.0458,-0.162694566 280.8898,7.04230543" id="Fill-1326" stroke="#FFFFFF" opacity="0.397232056"></path>
                <path d="M356.1918,7.04230543 C351.1188,12.9793054 345.7338,22.2523054 340.2388,34.8623054 C339.0658,37.5543054 334.0148,49.9653054 332.8338,52.9623054 C326.1198,69.9923054 314.0648,92.4263054 301.2088,92.4263054 L315.8758,92.4263054 C317.7758,92.4263054 325.8008,93.1633054 334.5818,82.3553054 C340.9498,74.5183054 347.1388,60.3513054 351.0078,51.0023054 C352.4738,47.4593054 357.4788,35.0413054 358.1618,33.4883054 C360.6468,27.8393054 367.8388,13.1833054 373.3028,7.94330543 C378.7678,2.70230543 382.1748,0.738305434 387.1868,0 L375.0558,0 C372.3398,0 362.3478,-0.162694566 356.1918,7.04230543" id="Fill-1328" stroke="#FFFFFF" opacity="0.397232056"></path>
                <path d="M431.4938,7.04230543 C426.4208,12.9793054 421.0358,22.2523054 415.5408,34.8623054 C414.3678,37.5543054 409.3168,49.9653054 408.1358,52.9623054 C401.4218,69.9923054 389.3668,92.4263054 376.5108,92.4263054 L391.1768,92.4263054 C393.0788,92.4263054 401.1028,93.1633054 409.8838,82.3553054 C416.2518,74.5183054 422.4408,60.3513054 426.3098,51.0023054 C427.7758,47.4593054 432.7808,35.0413054 433.4638,33.4883054 C435.9488,27.8393054 443.1408,13.1833054 448.6048,7.94330543 C454.0698,2.70230543 457.4768,0.738305434 462.4888,0 L450.3578,0 C447.6408,0 437.6498,-0.162694566 431.4938,7.04230543" id="Fill-1330" stroke="#FFFFFF" opacity="0.397232056"></path>
                <path d="M33.3742,174.758205 C39.7412,166.921205 45.9312,152.754205 49.8002,143.405205 C51.2662,139.862205 56.2712,127.443205 56.9542,125.891205 C59.4392,120.241205 66.6312,105.585205 72.0952,100.345205 C77.5602,95.1052054 80.9672,93.1402054 85.9792,92.4029 L73.8472,92.4029 C71.1312,92.4029 61.1392,92.2402054 54.9842,99.4452054 C49.9112,105.382205 44.5262,114.655205 39.0312,127.264205 C37.8582,129.957205 32.8072,142.368205 31.6252,145.365205 C24.9112,162.395205 12.8562,184.829205 0.0002,184.829205 L14.6672,184.829205 C16.5682,184.829205 24.5932,185.566205 33.3742,174.758205" id="Fill-1332" stroke="#FFFFFF" opacity="0.397232056"></path>
                <path d="M75.3024,184.828905 L89.9694,184.828905 C91.8704,184.828905 99.8954,185.565905 108.6764,174.757905 C115.0434,166.920905 121.2324,152.753905 125.1014,143.404905 C126.5674,139.861905 131.5734,127.443905 132.2554,125.890905 C134.7414,120.240905 141.9324,105.585905 147.3974,100.345905 C152.8614,95.1059054 156.2694,93.1409054 161.2814,92.4035945 L149.1494,92.4035945 C146.4334,92.4035945 136.4414,92.2399054 130.2854,99.4449054 C125.2134,105.381905 119.8284,114.655905 114.3334,127.264905 C113.1594,129.956905 108.1094,142.367905 106.9274,145.364905 C100.2134,162.394905 88.1584,184.828905 75.3024,184.828905" id="Fill-1334" stroke="#FFFFFF" opacity="0.397232056"></path>
                <path d="M150.6044,184.828905 L165.2714,184.828905 C167.1724,184.828905 175.1974,185.565905 183.9784,174.757905 C190.3454,166.920905 196.5344,152.753905 200.4034,143.404905 C201.8694,139.861905 206.8754,127.443905 207.5584,125.890905 C210.0434,120.240905 217.2344,105.585905 222.6994,100.345905 C228.1634,95.1059054 231.5714,93.1409054 236.5834,92.4035945 L224.4514,92.4035945 C221.7354,92.4035945 211.7434,92.2399054 205.5884,99.4449054 C200.5154,105.381905 195.1304,114.655905 189.6354,127.264905 C188.4614,129.956905 183.4114,142.367905 182.2294,145.364905 C175.5154,162.394905 163.4604,184.828905 150.6044,184.828905" id="Fill-1336" stroke="#FFFFFF" opacity="0.397232056"></path>
                <path d="M225.9062,184.828905 L240.5732,184.828905 C242.4742,184.828905 250.4992,185.565905 259.2802,174.757905 C265.6472,166.920905 271.8372,152.753905 275.7052,143.404905 C277.1712,139.861905 282.1772,127.443905 282.8602,125.890905 C285.3452,120.240905 292.5362,105.585905 298.0012,100.345905 C303.4652,95.1059054 306.8732,93.1409054 311.8852,92.4035945 L299.7532,92.4035945 C297.0372,92.4035945 287.0452,92.2399054 280.8902,99.4449054 C275.8172,105.381905 270.4322,114.655905 264.9372,127.264905 C263.7642,129.956905 258.7132,142.367905 257.5312,145.364905 C250.8172,162.394905 238.7622,184.828905 225.9062,184.828905" id="Fill-1338" stroke="#FFFFFF" opacity="0.397232056"></path>
                <path d="M334.582,174.758205 C340.949,166.921205 347.139,152.754205 351.007,143.405205 C352.474,139.862205 357.479,127.443205 358.162,125.891205 C360.647,120.241205 367.839,105.585205 373.303,100.345205 C378.768,95.1052054 382.175,93.1402054 387.187,92.4029 L375.055,92.4029 C372.339,92.4029 362.347,92.2402054 356.192,99.4452054 C351.119,105.382205 345.734,114.655205 340.239,127.264205 C339.066,129.957205 334.015,142.368205 332.834,145.365205 C326.12,162.395205 314.064,184.829205 301.208,184.829205 L315.875,184.829205 C317.776,184.829205 325.801,185.566205 334.582,174.758205" id="Fill-1340" stroke="#FFFFFF" opacity="0.397232056"></path>
                <path d="M33.3742,267.161005 C39.7412,259.324005 45.9312,245.157005 49.8002,235.808005 C51.2662,232.265005 56.2712,219.846005 56.9542,218.294005 C59.4392,212.644005 66.6312,197.988005 72.0952,192.748005 C77.5592,187.508005 80.9672,185.543005 85.9792,184.8057 L73.8472,184.8057 C71.1312,184.8057 61.1392,184.643005 54.9842,191.848005 C49.9112,197.785005 44.5262,207.058005 39.0312,219.667005 C37.8582,222.360005 32.8072,234.771005 31.6252,237.768005 C24.9112,254.798005 12.8562,277.232005 0.0002,277.232005 L14.6672,277.232005 C16.5682,277.232005 24.5932,277.969005 33.3742,267.161005" id="Fill-1344" stroke="#FFFFFF" opacity="0.397232056"></path>
                <path d="M75.3024,277.231805 L89.9694,277.231805 C91.8704,277.231805 99.8954,277.968805 108.6764,267.160805 C115.0434,259.323805 121.2324,245.156805 125.1014,235.807805 C126.5674,232.264805 131.5734,219.846805 132.2554,218.293805 C134.7404,212.643805 141.9324,197.988805 147.3974,192.747805 C152.8614,187.508805 156.2694,185.542805 161.2814,184.806495 L149.1494,184.806495 C146.4334,184.806495 136.4414,184.642805 130.2854,191.847805 C125.2134,197.784805 119.8284,207.057805 114.3334,219.667805 C113.1594,222.359805 108.1094,234.770805 106.9274,237.767805 C100.2134,254.797805 88.1584,277.231805 75.3024,277.231805" id="Fill-1346" stroke="#FFFFFF" opacity="0.397232056"></path>
                <path d="M150.6044,277.231805 L165.2714,277.231805 C167.1724,277.231805 175.1974,277.968805 183.9784,267.160805 C190.3454,259.323805 196.5344,245.156805 200.4034,235.807805 C201.8694,232.264805 206.8754,219.846805 207.5574,218.293805 C210.0424,212.643805 217.2344,197.988805 222.6994,192.747805 C228.1634,187.508805 231.5714,185.542805 236.5834,184.806495 L224.4514,184.806495 C221.7354,184.806495 211.7434,184.642805 205.5874,191.847805 C200.5154,197.784805 195.1304,207.057805 189.6354,219.667805 C188.4614,222.359805 183.4114,234.770805 182.2294,237.767805 C175.5154,254.797805 163.4604,277.231805 150.6044,277.231805" id="Fill-1348" stroke="#FFFFFF" opacity="0.397232056"></path>
                <path d="M259.28,267.161005 C265.647,259.324005 271.837,245.157005 275.706,235.808005 C277.172,232.265005 282.177,219.846005 282.86,218.294005 C285.345,212.644005 292.537,197.988005 298.001,192.748005 C303.466,187.508005 306.873,185.543005 311.885,184.8057 L299.753,184.8057 C297.037,184.8057 287.045,184.643005 280.89,191.848005 C275.817,197.785005 270.432,207.058005 264.937,219.667005 C263.764,222.360005 258.713,234.771005 257.532,237.768005 C250.817,254.798005 238.762,277.232005 225.906,277.232005 L240.573,277.232005 C242.474,277.232005 250.499,277.969005 259.28,267.161005" id="Fill-1350" stroke="#FFFFFF" opacity="0.397232056"></path>
                <path d="M33.374,359.563605 C39.742,351.726605 45.931,337.559605 49.8,328.210605 C51.266,324.667605 56.271,312.248605 56.954,310.696605 C59.439,305.046605 66.631,290.390605 72.095,285.150605 C77.56,279.910605 80.967,277.945605 85.979,277.209295 L73.847,277.209295 C71.131,277.209295 61.14,277.045605 54.984,284.250605 C49.911,290.187605 44.526,299.460605 39.031,312.070605 C37.858,314.762605 32.807,327.173605 31.626,330.170605 C24.912,347.200605 12.857,369.634605 0,369.634605 L14.667,369.634605 C16.569,369.634605 24.593,370.371605 33.374,359.563605" id="Fill-1356" stroke="#FFFFFF" opacity="0.397232056"></path>
                <path d="M75.3024,369.634505 L89.9694,369.634505 C91.8704,369.634505 99.8954,370.371505 108.6764,359.563505 C115.0434,351.726505 121.2324,337.559505 125.1014,328.210505 C126.5674,324.667505 131.5734,312.249505 132.2554,310.696505 C134.7404,305.046505 141.9324,290.391505 147.3974,285.151505 C152.8614,279.911505 156.2694,277.945505 161.2814,277.209195 L149.1494,277.209195 C146.4334,277.209195 136.4414,277.045505 130.2854,284.250505 C125.2134,290.187505 119.8284,299.460505 114.3334,312.070505 C113.1594,314.762505 108.1094,327.173505 106.9274,330.170505 C100.2134,347.200505 88.1584,369.634505 75.3024,369.634505" id="Fill-1358" stroke="#FFFFFF" opacity="0.397232056"></path>
                <path d="M183.978,359.563605 C190.345,351.726605 196.535,337.559605 200.404,328.210605 C201.87,324.667605 206.875,312.248605 207.558,310.696605 C210.043,305.046605 217.235,290.390605 222.699,285.150605 C228.164,279.910605 231.571,277.945605 236.583,277.209295 L224.451,277.209295 C221.735,277.209295 211.743,277.045605 205.588,284.250605 C200.515,290.187605 195.13,299.460605 189.635,312.070605 C188.462,314.762605 183.411,327.173605 182.23,330.170605 C175.516,347.200605 163.461,369.634605 150.604,369.634605 L165.271,369.634605 C167.173,369.634605 175.197,370.371605 183.978,359.563605" id="Fill-1360" stroke="#FFFFFF" opacity="0.397232056"></path>
                <path d="M73.8473,369.611495 C71.1313,369.611495 61.1393,369.447805 54.9833,376.652805 C49.9113,382.590805 44.5263,391.863805 39.0313,404.472805 C37.8573,407.164805 32.8073,419.576805 31.6253,422.572805 C24.9113,439.602805 12.8563,462.036805 0.0003,462.036805 L14.6673,462.036805 C16.5683,462.036805 24.5933,462.773805 33.3743,451.966805 C39.7413,444.128805 45.9303,429.962805 49.7993,420.612805 C51.2653,417.069805 56.2713,404.651805 56.9543,403.098805 C59.4393,397.449805 66.6303,382.793805 72.0953,377.553805 C77.5593,372.313805 80.9663,370.348805 85.9793,369.611495 L73.8473,369.611495 Z" id="Fill-1368" stroke="#FFFFFF" opacity="0.397232056"></path>
                <path d="M149.1493,369.611495 C146.4333,369.611495 136.4413,369.447805 130.2853,376.652805 C125.2133,382.590805 119.8283,391.863805 114.3333,404.472805 C113.1593,407.164805 108.1093,419.576805 106.9273,422.572805 C100.2133,439.602805 88.1583,462.036805 75.3023,462.036805 L89.9693,462.036805 C91.8703,462.036805 99.8953,462.773805 108.6763,451.966805 C115.0433,444.128805 121.2323,429.962805 125.1013,420.612805 C126.5673,417.069805 131.5733,404.651805 132.2553,403.098805 C134.7413,397.449805 141.9323,382.793805 147.3973,377.553805 C152.8613,372.313805 156.2693,370.348805 161.2813,369.611495 L149.1493,369.611495 Z" id="Fill-1370" stroke="#FFFFFF" opacity="0.397232056"></path>
                <g id="Group-1380" transform="translate(376.510400, 369.611495)">
                    <mask id="mask-3" fill="white">
                        <use xlink:href="#path-2"></use>
                    </mask>
                    <g id="Clip-1379"></g>
                </g>
            </g>
        </g>
    </g>
</svg>