<svg xmlns="http://www.w3.org/2000/svg" width="23" height="14" viewBox="0 0 23 14">
  <path fill="#3B3B3B" fill-opacity=".8" d="M22.92 4.208c.074-.254.049-.5-.074-.738-.332-.581-.757-1.073-1.276-1.474-.52-.402-1.102-.687-1.746-.855-.631-.16-1.273-.197-1.926-.11-.653.086-1.266.289-1.839.607L13.935 2.86 8.937.53C8.629.39 8.326.4 8.028.562L5.02 2.302c-.163.092-.29.214-.378.367-.088.153-.132.317-.132.494 0 .176.042.344.126.504.084.16.203.284.356.372l3.295 2.097-1.734 1.03-4.793.543c-.203.031-.379.11-.527.238-.148.128-.247.284-.298.468-.05.184-.05.37 0 .556.049.186.145.349.288.487l3.593 3.076c.477.46 1.043.732 1.7.814.657.083 1.276-.042 1.858-.374l14.09-8.167c.232-.144.384-.344.457-.599zm-2.492-.549L7.344 11.24c-.193.111-.404.147-.632.108-.228-.039-.416-.138-.565-.298L4.268 9.436l2.73-.344c.138-.013.273-.055.407-.127L10.75 7.03c.142-.085.26-.202.356-.351.095-.15.144-.315.148-.498.004-.184-.035-.35-.116-.499-.08-.148-.194-.274-.339-.376l-3.316-2.11 1.105-.613 4.998 2.329c.308.14.615.123.92-.053l2.604-1.473c.336-.196.697-.316 1.085-.362.388-.045.766-.017 1.134.085.404.103.77.287 1.1.551z"></path>
</svg>
