<svg xmlns="http://www.w3.org/2000/svg" width="17" height="18" viewBox="0 0 17 18">
  <g fill="none" fill-rule="evenodd">
    <g fill="#ffffff" fill-rule="nonzero">
      <g>
        <g>
          <g>
            <g>
              <g>
                <path d="M17 11.56V17c0 .56-.435 1-.988 1H.988C.435 18 0 17.56 0 17v-5.44c0-.56.435-1 .988-1 .554 0 .989.44.989 1V16h13.046v-4.44c0-.56.435-1 .989-1 .553 0 .988.44.988 1zM7.788 12.8c.178.2.435.3.712.3.277 0 .514-.1.712-.3l3.933-4.08c.376-.4.376-1.02-.02-1.42-.395-.38-1.007-.38-1.403.02L9.488 9.66V1c0-.56-.435-1-.988-1-.553 0-.988.44-.988 1v8.66L5.258 7.34c-.375-.4-1.008-.4-1.403-.02-.396.38-.396 1.02-.02 1.42l3.953 4.06z" transform="translate(-777 -1533) translate(375 1410) translate(0 65) translate(27 34) translate(353 14) translate(22 10)"></path>
              </g>
            </g>
          </g>
        </g>
      </g>
    </g>
  </g>
</svg>
