<svg xmlns="http://www.w3.org/2000/svg" width="30" height="38" viewBox="0 0 30 38">
  <g fill="none" fill-rule="evenodd">
    <g fill="#da291c" fill-rule="nonzero">
      <g>
        <g>
          <g>
            <g>
              <path d="M28.654 11.619h-1.572c-.262 0-.437.218-.437.437v20.66c0 1.18-.524 2.184-1.704 2.184l-20.049.131c-1.048 0-1.922-.699-2.14-1.703-.044-.131-.044-.306-.044-.48l-.087-20.224c0-.132.13-.263.262-.263l8.212-.043c1.441 0 2.577-1.18 2.577-2.577l-.044-6.858c0-.131.131-.262.262-.262l10.396-.088c1.18 0 2.184.961 2.184 2.14l.044 12.45c0 .262.218.436.437.436h1.572c.262 0 .437-.218.437-.436l-.044-13.716c0-1.878-1.529-3.407-3.45-3.407L12.71.131c-.35 0-.743.131-1.005.393L.612 10.702c-.306.305-.481.698-.481 1.092L.218 34.07c0 1.879 1.53 3.407 3.451 3.407l22.102-.043c1.878-.088 3.407-1.616 3.407-3.495V12.056c-.087-.219-.262-.437-.524-.437z" transform="translate(-402 -1522) translate(375 1410) translate(0 65) translate(27 34) translate(0 13)"></path>
            </g>
          </g>
        </g>
      </g>
    </g>
  </g>
</svg>
