<svg xmlns="http://www.w3.org/2000/svg" xmlns:xlink="http://www.w3.org/1999/xlink" width="1920" height="100" viewBox="0 0 1920 100">
    <defs>
        <filter id="3rjpptx2fb" color-interpolation-filters="auto">
            <feColorMatrix in="SourceGraphic" values="0 0 0 0 0.847059 0 0 0 0 0.843137 0 0 0 0 0.847059 0 0 0 1.000000 0"/>
        </filter>
        <filter id="t61y1ozi0d" color-interpolation-filters="auto">
            <feColorMatrix in="SourceGraphic" values="0 0 0 0 0.847059 0 0 0 0 0.843137 0 0 0 0 0.847059 0 0 0 1.000000 0"/>
        </filter>
        <path id="lu2wvejtya" d="M0 0H1920V100H0z"/>
    </defs>
    <g fill="none" fill-rule="evenodd">
        <g>
            <g>
                <g transform="translate(0 -6108) translate(0 148) translate(0 5960)">
                    <mask id="2grbgc6alc" fill="#fff">
                        <use xlink:href="#lu2wvejtya"/>
                    </mask>
                    <use fill="#1D252D" xlink:href="#lu2wvejtya"/>
                    <g filter="url(#3rjpptx2fb)" opacity=".401">
                        <g mask="url(#2grbgc6alc)">
                            <g stroke="#FFF" opacity=".397">
                                <path d="M33.374 82.356c6.367-7.837 12.557-22.004 16.426-31.353 1.466-3.544 6.471-15.962 7.154-17.514 2.485-5.65 9.677-20.306 15.141-25.546C77.56 2.703 80.967.738 85.98 0H73.847C71.131 0 61.14-.162 54.984 7.043c-5.073 5.937-10.458 15.21-15.953 27.819-1.173 2.693-6.224 15.104-7.405 18.1C24.911 69.992 12.856 92.427 0 92.427h14.667c1.901 0 9.926.737 18.707-10.071M75.302 92.426H89.97c1.901 0 9.926.737 18.707-10.07 6.367-7.838 12.557-22.005 16.425-31.354 1.466-3.543 6.472-15.96 7.155-17.514 2.485-5.649 9.676-20.305 15.141-25.545 5.464-5.24 8.872-7.205 13.884-7.942H149.15c-2.716 0-12.708-.164-18.863 7.041-5.073 5.937-10.458 15.211-15.953 27.82-1.173 2.692-6.224 15.103-7.406 18.1-6.714 17.03-18.769 39.464-31.625 39.464M150.605 92.426h14.667c1.9 0 9.926.737 18.706-10.07 6.368-7.838 12.557-22.005 16.426-31.354 1.466-3.543 6.472-15.96 7.154-17.514 2.485-5.649 9.677-20.305 15.142-25.545 5.464-5.24 8.87-7.205 13.884-7.942h-12.132c-2.716 0-12.708-.164-18.864 7.041-5.072 5.937-10.457 15.211-15.952 27.82-1.174 2.692-6.224 15.103-7.406 18.1-6.714 17.03-18.77 39.464-31.625 39.464M280.89 7.042c-5.073 5.937-10.458 15.21-15.953 27.82-1.173 2.692-6.224 15.103-7.405 18.1-6.714 17.03-18.77 39.464-31.625 39.464h14.666c1.9 0 9.926.737 18.707-10.07 6.368-7.838 12.557-22.005 16.426-31.354 1.466-3.543 6.47-15.96 7.154-17.514 2.485-5.649 9.677-20.305 15.14-25.545 5.466-5.24 8.873-7.205 13.885-7.943h-12.131c-2.717 0-12.708-.163-18.864 7.042M356.192 7.042c-5.073 5.937-10.458 15.21-15.953 27.82-1.173 2.692-6.224 15.103-7.405 18.1-6.714 17.03-18.77 39.464-31.625 39.464h14.667c1.9 0 9.925.737 18.706-10.07 6.368-7.838 12.557-22.005 16.426-31.354 1.466-3.543 6.47-15.96 7.154-17.514 2.485-5.649 9.677-20.305 15.14-25.545 5.466-5.24 8.873-7.205 13.885-7.943h-12.131c-2.716 0-12.708-.163-18.864 7.042M431.494 7.042c-5.073 5.937-10.458 15.21-15.953 27.82-1.173 2.692-6.224 15.103-7.405 18.1-6.714 17.03-18.77 39.464-31.625 39.464h14.666c1.902 0 9.926.737 18.707-10.07 6.368-7.838 12.557-22.005 16.426-31.354 1.466-3.543 6.47-15.96 7.154-17.514 2.485-5.649 9.677-20.305 15.14-25.545C454.07 2.703 457.478.738 462.49 0h-12.131c-2.717 0-12.708-.163-18.864 7.042" transform="translate(-29 -43)"/>
                                <path d="M33.374 174.758c6.367-7.837 12.557-22.004 16.426-31.353 1.466-3.543 6.471-15.962 7.154-17.514 2.485-5.65 9.677-20.306 15.141-25.546 5.465-5.24 8.872-7.205 13.884-7.942H73.847c-2.716 0-12.708-.163-18.863 7.042-5.073 5.937-10.458 15.21-15.953 27.82-1.173 2.692-6.224 15.103-7.406 18.1C24.911 162.395 12.856 184.83 0 184.83h14.667c1.901 0 9.926.737 18.707-10.07M75.302 184.829H89.97c1.901 0 9.926.737 18.707-10.071 6.367-7.837 12.556-22.004 16.425-31.353 1.466-3.543 6.472-15.961 7.154-17.514 2.486-5.65 9.677-20.305 15.142-25.545 5.464-5.24 8.872-7.205 13.884-7.942H149.15c-2.716 0-12.708-.164-18.864 7.04-5.072 5.938-10.457 15.212-15.952 27.82-1.174 2.693-6.224 15.104-7.406 18.1-6.714 17.03-18.769 39.465-31.625 39.465M150.604 184.829h14.667c1.901 0 9.926.737 18.707-10.071 6.367-7.837 12.556-22.004 16.425-31.353 1.466-3.543 6.472-15.961 7.155-17.514 2.485-5.65 9.676-20.305 15.141-25.545 5.464-5.24 8.872-7.205 13.884-7.942h-12.132c-2.716 0-12.708-.164-18.863 7.04-5.073 5.938-10.458 15.212-15.953 27.82-1.174 2.693-6.224 15.104-7.406 18.1-6.714 17.03-18.769 39.465-31.625 39.465M225.906 184.829h14.667c1.901 0 9.926.737 18.707-10.071 6.367-7.837 12.557-22.004 16.425-31.353 1.466-3.543 6.472-15.961 7.155-17.514 2.485-5.65 9.676-20.305 15.141-25.545 5.464-5.24 8.872-7.205 13.884-7.942h-12.132c-2.716 0-12.708-.164-18.863 7.04-5.073 5.938-10.458 15.212-15.953 27.82-1.173 2.693-6.224 15.104-7.406 18.1-6.714 17.03-18.769 39.465-31.625 39.465M334.582 174.758c6.367-7.837 12.557-22.004 16.425-31.353 1.467-3.543 6.472-15.962 7.155-17.514 2.485-5.65 9.677-20.306 15.141-25.546 5.465-5.24 8.872-7.205 13.884-7.942h-12.132c-2.716 0-12.708-.163-18.863 7.042-5.073 5.937-10.458 15.21-15.953 27.82-1.173 2.692-6.224 15.103-7.405 18.1-6.714 17.03-18.77 39.464-31.626 39.464h14.667c1.901 0 9.926.737 18.707-10.07" transform="translate(-29 -43)"/>
                            </g>
                        </g>
                    </g>
                    <g filter="url(#t61y1ozi0d)" opacity=".401">
                        <g mask="url(#2grbgc6alc)">
                            <g stroke="#FFF" opacity=".397">
                                <path d="M33.374 82.356c6.367-7.837 12.557-22.004 16.426-31.353 1.466-3.544 6.471-15.962 7.154-17.514 2.485-5.65 9.677-20.306 15.141-25.546C77.56 2.703 80.967.738 85.98 0H73.847C71.131 0 61.14-.162 54.984 7.043c-5.073 5.937-10.458 15.21-15.953 27.819-1.173 2.693-6.224 15.104-7.405 18.1C24.911 69.992 12.856 92.427 0 92.427h14.667c1.901 0 9.926.737 18.707-10.071M75.302 92.426H89.97c1.901 0 9.926.737 18.707-10.07 6.367-7.838 12.557-22.005 16.425-31.354 1.466-3.543 6.472-15.96 7.155-17.514 2.485-5.649 9.676-20.305 15.141-25.545 5.464-5.24 8.872-7.205 13.884-7.942H149.15c-2.716 0-12.708-.164-18.863 7.041-5.073 5.937-10.458 15.211-15.953 27.82-1.173 2.692-6.224 15.103-7.406 18.1-6.714 17.03-18.769 39.464-31.625 39.464M150.605 92.426h14.667c1.9 0 9.926.737 18.706-10.07 6.368-7.838 12.557-22.005 16.426-31.354 1.466-3.543 6.472-15.96 7.154-17.514 2.485-5.649 9.677-20.305 15.142-25.545 5.464-5.24 8.87-7.205 13.884-7.942h-12.132c-2.716 0-12.708-.164-18.864 7.041-5.072 5.937-10.457 15.211-15.952 27.82-1.174 2.692-6.224 15.103-7.406 18.1-6.714 17.03-18.77 39.464-31.625 39.464M280.89 7.042c-5.073 5.937-10.458 15.21-15.953 27.82-1.173 2.692-6.224 15.103-7.405 18.1-6.714 17.03-18.77 39.464-31.625 39.464h14.666c1.9 0 9.926.737 18.707-10.07 6.368-7.838 12.557-22.005 16.426-31.354 1.466-3.543 6.47-15.96 7.154-17.514 2.485-5.649 9.677-20.305 15.14-25.545 5.466-5.24 8.873-7.205 13.885-7.943h-12.131c-2.717 0-12.708-.163-18.864 7.042M356.192 7.042c-5.073 5.937-10.458 15.21-15.953 27.82-1.173 2.692-6.224 15.103-7.405 18.1-6.714 17.03-18.77 39.464-31.625 39.464h14.667c1.9 0 9.925.737 18.706-10.07 6.368-7.838 12.557-22.005 16.426-31.354 1.466-3.543 6.47-15.96 7.154-17.514 2.485-5.649 9.677-20.305 15.14-25.545 5.466-5.24 8.873-7.205 13.885-7.943h-12.131c-2.716 0-12.708-.163-18.864 7.042" transform="translate(1573.4 -57)"/>
                                <path d="M33.374 174.758c6.367-7.837 12.557-22.004 16.426-31.353 1.466-3.543 6.471-15.962 7.154-17.514 2.485-5.65 9.677-20.306 15.141-25.546 5.465-5.24 8.872-7.205 13.884-7.942H73.847c-2.716 0-12.708-.163-18.863 7.042-5.073 5.937-10.458 15.21-15.953 27.82-1.173 2.692-6.224 15.103-7.406 18.1C24.911 162.395 12.856 184.83 0 184.83h14.667c1.901 0 9.926.737 18.707-10.07M75.302 184.829H89.97c1.901 0 9.926.737 18.707-10.071 6.367-7.837 12.556-22.004 16.425-31.353 1.466-3.543 6.472-15.961 7.154-17.514 2.486-5.65 9.677-20.305 15.142-25.545 5.464-5.24 8.872-7.205 13.884-7.942H149.15c-2.716 0-12.708-.164-18.864 7.04-5.072 5.938-10.457 15.212-15.952 27.82-1.174 2.693-6.224 15.104-7.406 18.1-6.714 17.03-18.769 39.465-31.625 39.465M150.604 184.829h14.667c1.901 0 9.926.737 18.707-10.071 6.367-7.837 12.556-22.004 16.425-31.353 1.466-3.543 6.472-15.961 7.155-17.514 2.485-5.65 9.676-20.305 15.141-25.545 5.464-5.24 8.872-7.205 13.884-7.942h-12.132c-2.716 0-12.708-.164-18.863 7.04-5.073 5.938-10.458 15.212-15.953 27.82-1.174 2.693-6.224 15.104-7.406 18.1-6.714 17.03-18.769 39.465-31.625 39.465M225.906 184.829h14.667c1.901 0 9.926.737 18.707-10.071 6.367-7.837 12.557-22.004 16.425-31.353 1.466-3.543 6.472-15.961 7.155-17.514 2.485-5.65 9.676-20.305 15.141-25.545 5.464-5.24 8.872-7.205 13.884-7.942h-12.132c-2.716 0-12.708-.164-18.863 7.04-5.073 5.938-10.458 15.212-15.953 27.82-1.173 2.693-6.224 15.104-7.406 18.1-6.714 17.03-18.769 39.465-31.625 39.465M334.582 174.758c6.367-7.837 12.557-22.004 16.425-31.353 1.467-3.543 6.472-15.962 7.155-17.514 2.485-5.65 9.677-20.306 15.141-25.546 5.465-5.24 8.872-7.205 13.884-7.942h-12.132c-2.716 0-12.708-.163-18.863 7.042-5.073 5.937-10.458 15.21-15.953 27.82-1.173 2.692-6.224 15.103-7.405 18.1-6.714 17.03-18.77 39.464-31.626 39.464h14.667c1.901 0 9.926.737 18.707-10.07" transform="translate(1573.4 -57)"/>
                            </g>
                        </g>
                    </g>
                </g>
            </g>
        </g>
    </g>
</svg>
