<?xml version="1.0" encoding="UTF-8"?>
<svg xmlns="http://www.w3.org/2000/svg" xmlns:xlink="http://www.w3.org/1999/xlink" viewBox="0 0 17 17" width="17px" height="17px">
<g id="surface830744">
<path style=" stroke:none;fill-rule:nonzero;fill:rgb(100%,100%,100%);fill-opacity:1;" d="M 5.667969 2.125 C 3.714844 2.125 2.125 3.714844 2.125 5.667969 L 2.125 11.332031 C 2.125 13.285156 3.714844 14.875 5.667969 14.875 L 11.332031 14.875 C 13.285156 14.875 14.875 13.285156 14.875 11.332031 L 14.875 5.667969 C 14.875 3.714844 13.285156 2.125 11.332031 2.125 Z M 5.667969 3.542969 L 11.332031 3.542969 C 12.503906 3.542969 13.457031 4.496094 13.457031 5.667969 L 13.457031 11.332031 C 13.457031 12.503906 12.503906 13.457031 11.332031 13.457031 L 5.667969 13.457031 C 4.496094 13.457031 3.542969 12.503906 3.542969 11.332031 L 3.542969 5.667969 C 3.542969 4.496094 4.496094 3.542969 5.667969 3.542969 Z M 12.042969 4.25 C 11.652344 4.25 11.332031 4.566406 11.332031 4.957031 C 11.332031 5.347656 11.652344 5.667969 12.042969 5.667969 C 12.433594 5.667969 12.75 5.347656 12.75 4.957031 C 12.75 4.566406 12.433594 4.25 12.042969 4.25 Z M 8.5 4.957031 C 6.546875 4.957031 4.957031 6.546875 4.957031 8.5 C 4.957031 10.453125 6.546875 12.042969 8.5 12.042969 C 10.453125 12.042969 12.042969 10.453125 12.042969 8.5 C 12.042969 6.546875 10.453125 4.957031 8.5 4.957031 Z M 8.5 6.375 C 9.671875 6.375 10.625 7.328125 10.625 8.5 C 10.625 9.671875 9.671875 10.625 8.5 10.625 C 7.328125 10.625 6.375 9.671875 6.375 8.5 C 6.375 7.328125 7.328125 6.375 8.5 6.375 Z M 8.5 6.375 "/>
</g>
</svg>
