<svg xmlns="http://www.w3.org/2000/svg" xmlns:xlink="http://www.w3.org/1999/xlink" width="1920" height="613" viewBox="0 0 1920 613">
    <defs>
        <path id="k3m62t0eua" d="M0 0H1920V613H0z"/>
        <path id="iqzkajvi0d" d="M0 0L85.979 0 85.979 92.436 0 92.436z"/>
        <path id="vkfqtk0fef" d="M0 0L5.339 0 5.339 92.436 0 92.436z"/>
        <path id="tuwonpvjzh" d="M0 0L80.64 0 80.64 92.437 0 92.437z"/>
        <path id="r4x301cc7i" d="M0 0L5.339 0 5.339 92.436 0 92.436z"/>
        <path id="rmz3evseik" d="M0 0L80.64 0 80.64 92.436 0 92.436z"/>
        <path id="hhow6reaum" d="M0 0L5.339 0 5.339 92.436 0 92.436z"/>
        <path id="g9899ht18o" d="M0 0L80.64 0 80.64 92.437 0 92.437z"/>
        <filter id="omdwhunwec" color-interpolation-filters="auto">
            <feColorMatrix in="SourceGraphic" values="0 0 0 0 0.000000 0 0 0 0 0.000000 0 0 0 0 0.000000 0 0 0 0.350000 0"/>
        </filter>
        <filter id="6p7aks6xxe" color-interpolation-filters="auto">
            <feColorMatrix in="SourceGraphic" values="0 0 0 0 0.000000 0 0 0 0 0.000000 0 0 0 0 0.000000 0 0 0 0.350000 0"/>
        </filter>
    </defs>
    <g fill="none" fill-rule="evenodd">
        <g>
            <g>
                <g transform="translate(0 -285) translate(0 148) translate(0 137)">
                    <mask id="2n0y2citfb" fill="#fff">
                        <use xlink:href="#k3m62t0eua"/>
                    </mask>
                    <g mask="url(#2n0y2citfb)">
                        <g filter="url(#omdwhunwec)">
                            <g>
                                <g>
                                    <path fill="#BBB9BC" d="M33.374 82.356c6.367-7.837 12.557-22.004 16.426-31.353 1.466-3.544 6.471-15.962 7.154-17.514 2.485-5.65 9.677-20.306 15.141-25.546C77.56 2.703 80.967.738 85.98 0H73.847C71.131 0 61.14-.162 54.984 7.043c-5.073 5.937-10.458 15.21-15.953 27.819-1.173 2.693-6.224 15.104-7.405 18.1C24.911 69.992 12.856 92.427 0 92.427h14.667c1.901 0 9.926.737 18.707-10.071M75.302 92.426H89.97c1.901 0 9.926.737 18.707-10.07 6.367-7.838 12.557-22.005 16.425-31.354 1.466-3.543 6.472-15.96 7.155-17.514 2.485-5.649 9.676-20.305 15.141-25.545 5.464-5.24 8.872-7.205 13.884-7.942H149.15c-2.716 0-12.708-.164-18.863 7.041-5.073 5.937-10.458 15.211-15.953 27.82-1.173 2.692-6.224 15.103-7.406 18.1-6.714 17.03-18.769 39.464-31.625 39.464M150.605 92.426h14.667c1.9 0 9.926.737 18.706-10.07 6.368-7.838 12.557-22.005 16.426-31.354 1.466-3.543 6.472-15.96 7.154-17.514 2.485-5.649 9.677-20.305 15.142-25.545 5.464-5.24 8.87-7.205 13.884-7.942h-12.132c-2.716 0-12.708-.164-18.864 7.041-5.072 5.937-10.457 15.211-15.952 27.82-1.174 2.692-6.224 15.103-7.406 18.1-6.714 17.03-18.77 39.464-31.625 39.464M280.89 7.042c-5.073 5.937-10.458 15.21-15.953 27.82-1.173 2.692-6.224 15.103-7.405 18.1-6.714 17.03-18.77 39.464-31.625 39.464h14.666c1.9 0 9.926.737 18.707-10.07 6.368-7.838 12.557-22.005 16.426-31.354 1.466-3.543 6.47-15.96 7.154-17.514 2.485-5.649 9.677-20.305 15.14-25.545 5.466-5.24 8.873-7.205 13.885-7.943h-12.131c-2.717 0-12.708-.163-18.864 7.042M356.192 7.042c-5.073 5.937-10.458 15.21-15.953 27.82-1.173 2.692-6.224 15.103-7.405 18.1-6.714 17.03-18.77 39.464-31.625 39.464h14.667c1.9 0 9.925.737 18.706-10.07 6.368-7.838 12.557-22.005 16.426-31.354 1.466-3.543 6.47-15.96 7.154-17.514 2.485-5.649 9.677-20.305 15.14-25.545 5.466-5.24 8.873-7.205 13.885-7.943h-12.131c-2.716 0-12.708-.163-18.864 7.042M431.494 7.042c-5.073 5.937-10.458 15.21-15.953 27.82-1.173 2.692-6.224 15.103-7.405 18.1-6.714 17.03-18.77 39.464-31.625 39.464h14.666c1.902 0 9.926.737 18.707-10.07 6.368-7.838 12.557-22.005 16.426-31.354 1.466-3.543 6.47-15.96 7.154-17.514 2.485-5.649 9.677-20.305 15.14-25.545C454.07 2.703 457.478.738 462.49 0h-12.131c-2.717 0-12.708-.163-18.864 7.042" transform="translate(1536)"/>
                                    <path fill="#BBB9BC" d="M33.374 174.758c6.367-7.837 12.557-22.004 16.426-31.353 1.466-3.543 6.471-15.962 7.154-17.514 2.485-5.65 9.677-20.306 15.141-25.546 5.465-5.24 8.872-7.205 13.884-7.942H73.847c-2.716 0-12.708-.163-18.863 7.042-5.073 5.937-10.458 15.21-15.953 27.82-1.173 2.692-6.224 15.103-7.406 18.1C24.911 162.395 12.856 184.83 0 184.83h14.667c1.901 0 9.926.737 18.707-10.07M75.302 184.829H89.97c1.901 0 9.926.737 18.707-10.071 6.367-7.837 12.556-22.004 16.425-31.353 1.466-3.543 6.472-15.961 7.154-17.514 2.486-5.65 9.677-20.305 15.142-25.545 5.464-5.24 8.872-7.205 13.884-7.942H149.15c-2.716 0-12.708-.164-18.864 7.04-5.072 5.938-10.457 15.212-15.952 27.82-1.174 2.693-6.224 15.104-7.406 18.1-6.714 17.03-18.769 39.465-31.625 39.465M150.604 184.829h14.667c1.901 0 9.926.737 18.707-10.071 6.367-7.837 12.556-22.004 16.425-31.353 1.466-3.543 6.472-15.961 7.155-17.514 2.485-5.65 9.676-20.305 15.141-25.545 5.464-5.24 8.872-7.205 13.884-7.942h-12.132c-2.716 0-12.708-.164-18.863 7.04-5.073 5.938-10.458 15.212-15.953 27.82-1.174 2.693-6.224 15.104-7.406 18.1-6.714 17.03-18.769 39.465-31.625 39.465M225.906 184.829h14.667c1.901 0 9.926.737 18.707-10.071 6.367-7.837 12.557-22.004 16.425-31.353 1.466-3.543 6.472-15.961 7.155-17.514 2.485-5.65 9.676-20.305 15.141-25.545 5.464-5.24 8.872-7.205 13.884-7.942h-12.132c-2.716 0-12.708-.164-18.863 7.04-5.073 5.938-10.458 15.212-15.953 27.82-1.173 2.693-6.224 15.104-7.406 18.1-6.714 17.03-18.769 39.465-31.625 39.465M334.582 174.758c6.367-7.837 12.557-22.004 16.425-31.353 1.467-3.543 6.472-15.962 7.155-17.514 2.485-5.65 9.677-20.306 15.141-25.546 5.465-5.24 8.872-7.205 13.884-7.942h-12.132c-2.716 0-12.708-.163-18.863 7.042-5.073 5.937-10.458 15.21-15.953 27.82-1.173 2.692-6.224 15.103-7.405 18.1-6.714 17.03-18.77 39.464-31.626 39.464h14.667c1.901 0 9.926.737 18.707-10.07" transform="translate(1536)"/>
                                    <path fill="#BBB9BC" d="M33.374 267.161c6.367-7.837 12.557-22.004 16.426-31.353 1.466-3.543 6.471-15.962 7.154-17.514 2.485-5.65 9.677-20.306 15.141-25.546 5.464-5.24 8.872-7.205 13.884-7.942H73.847c-2.716 0-12.708-.163-18.863 7.042-5.073 5.937-10.458 15.21-15.953 27.819-1.173 2.693-6.224 15.104-7.406 18.101-6.714 17.03-18.769 39.464-31.625 39.464h14.667c1.901 0 9.926.737 18.707-10.071M75.302 277.232H89.97c1.901 0 9.926.737 18.707-10.071 6.367-7.837 12.556-22.004 16.425-31.353 1.466-3.543 6.472-15.961 7.154-17.514 2.485-5.65 9.677-20.305 15.142-25.546 5.464-5.24 8.872-7.205 13.884-7.942H149.15c-2.716 0-12.708-.163-18.864 7.042-5.072 5.937-10.457 15.21-15.952 27.82-1.174 2.692-6.224 15.103-7.406 18.1-6.714 17.03-18.769 39.464-31.625 39.464M150.604 277.232h14.667c1.901 0 9.926.737 18.707-10.071 6.367-7.837 12.556-22.004 16.425-31.353 1.466-3.543 6.472-15.961 7.154-17.514 2.485-5.65 9.677-20.305 15.142-25.546 5.464-5.24 8.872-7.205 13.884-7.942h-12.132c-2.716 0-12.708-.163-18.864 7.042-5.072 5.937-10.457 15.21-15.952 27.82-1.174 2.692-6.224 15.103-7.406 18.1-6.714 17.03-18.769 39.464-31.625 39.464M259.28 267.161c6.367-7.837 12.557-22.004 16.426-31.353 1.466-3.543 6.471-15.962 7.154-17.514 2.485-5.65 9.677-20.306 15.141-25.546 5.465-5.24 8.872-7.205 13.884-7.942h-12.132c-2.716 0-12.708-.163-18.863 7.042-5.073 5.937-10.458 15.21-15.953 27.819-1.173 2.693-6.224 15.104-7.405 18.101-6.715 17.03-18.77 39.464-31.626 39.464h14.667c1.901 0 9.926.737 18.707-10.071" transform="translate(1536)"/>
                                    <path fill="#BBB9BC" d="M33.374 359.564c6.368-7.837 12.557-22.004 16.426-31.353 1.466-3.543 6.471-15.962 7.154-17.514 2.485-5.65 9.677-20.306 15.141-25.546 5.465-5.24 8.872-7.205 13.884-7.942H73.847c-2.716 0-12.707-.163-18.863 7.042-5.073 5.937-10.458 15.21-15.953 27.82-1.173 2.692-6.224 15.103-7.405 18.1C24.912 347.2 12.857 369.635 0 369.635h14.667c1.902 0 9.926.737 18.707-10.071M75.302 369.635H89.97c1.901 0 9.926.737 18.707-10.071 6.367-7.837 12.556-22.004 16.425-31.353 1.466-3.543 6.472-15.961 7.154-17.514 2.485-5.65 9.677-20.305 15.142-25.545 5.464-5.24 8.872-7.206 13.884-7.943H149.15c-2.716 0-12.708-.163-18.864 7.042-5.072 5.937-10.457 15.21-15.952 27.82-1.174 2.692-6.224 15.103-7.406 18.1-6.714 17.03-18.769 39.464-31.625 39.464M183.978 359.564c6.367-7.837 12.557-22.004 16.426-31.353 1.466-3.543 6.471-15.962 7.154-17.514 2.485-5.65 9.677-20.306 15.141-25.546 5.465-5.24 8.872-7.205 13.884-7.942h-12.132c-2.716 0-12.708-.163-18.863 7.042-5.073 5.937-10.458 15.21-15.953 27.82-1.173 2.692-6.224 15.103-7.405 18.1-6.714 17.03-18.769 39.464-31.626 39.464h14.667c1.902 0 9.926.737 18.707-10.071" transform="translate(1536)"/>
                                    <path fill="#BBB9BC" d="M73.847 369.611c-2.716 0-12.708-.163-18.864 7.042-5.072 5.938-10.457 15.21-15.952 27.82-1.174 2.692-6.224 15.104-7.406 18.1-6.714 17.03-18.769 39.464-31.625 39.464h14.667c1.901 0 9.926.737 18.707-10.07 6.367-7.838 12.556-22.004 16.425-31.354 1.466-3.543 6.472-15.961 7.155-17.514 2.485-5.65 9.676-20.305 15.141-25.545 5.464-5.24 8.871-7.205 13.884-7.943H73.847zM149.15 369.611c-2.717 0-12.709-.163-18.865 7.042-5.072 5.938-10.457 15.21-15.952 27.82-1.174 2.692-6.224 15.104-7.406 18.1-6.714 17.03-18.769 39.464-31.625 39.464H89.97c1.901 0 9.926.737 18.707-10.07 6.367-7.838 12.556-22.004 16.425-31.354 1.466-3.543 6.472-15.961 7.154-17.514 2.486-5.65 9.677-20.305 15.142-25.545 5.464-5.24 8.872-7.205 13.884-7.943H149.15z" transform="translate(1536)"/>
                                    <g transform="translate(1536) translate(376.51 369.611)"/>
                                </g>
                            </g>
                        </g>
                        <g filter="url(#6p7aks6xxe)">
                            <g>
                                <g>
                                    <g transform="translate(0 337)">
                                        <mask id="3ktq2qbegg" fill="#fff">
                                            <use xlink:href="#vkfqtk0fef"/>
                                        </mask>
                                        <path fill="#E02926" d="M-80.64 92.425h14.667c1.9 0 9.926.737 18.706-10.07C-40.9 74.516-34.71 60.35-30.841 51c1.466-3.543 6.472-15.96 7.154-17.514 2.485-5.649 9.677-20.305 15.142-25.545C-3.081 2.702.325.737 5.339 0H-6.793C-9.51 0-19.501-.164-25.657 7.041c-5.072 5.937-10.457 15.211-15.952 27.82-1.174 2.692-6.224 15.103-7.406 18.1-6.714 17.03-18.77 39.464-31.625 39.464" mask="url(#3ktq2qbegg)"/>
                                    </g>
                                    <g transform="translate(0 337)"/>
                                    <path fill="#E02926" d="M124.947 7.042c-5.073 5.937-10.458 15.21-15.953 27.82-1.173 2.692-6.224 15.103-7.405 18.1-6.714 17.03-18.769 39.464-31.625 39.464h14.667c1.9 0 9.925.737 18.706-10.07 6.368-7.838 12.557-22.005 16.426-31.354 1.466-3.543 6.471-15.96 7.154-17.514 2.485-5.649 9.677-20.305 15.141-25.545C147.523 2.703 150.93.738 155.942 0h-12.131c-2.716 0-12.708-.163-18.864 7.042M200.249 7.042c-5.073 5.937-10.458 15.21-15.953 27.82-1.173 2.692-6.224 15.103-7.405 18.1-6.714 17.03-18.769 39.464-31.625 39.464h14.666c1.902 0 9.926.737 18.707-10.07 6.368-7.838 12.557-22.005 16.426-31.354 1.466-3.543 6.471-15.96 7.154-17.514 2.485-5.649 9.677-20.305 15.141-25.545 5.465-5.24 8.872-7.205 13.884-7.943h-12.131c-2.717 0-12.708-.163-18.864 7.042" transform="translate(0 337)"/>
                                    <g transform="translate(0 337) translate(0 92.404)">
                                        <mask id="4v987wi0aj" fill="#fff">
                                            <use xlink:href="#r4x301cc7i"/>
                                        </mask>
                                        <path fill="#E02926" d="M-80.64 92.425h14.667c1.9 0 9.926.737 18.707-10.07C-40.9 74.516-34.71 60.35-30.841 51c1.466-3.543 6.472-15.96 7.155-17.514 2.485-5.65 9.676-20.305 15.14-25.545C-3.08 2.702.328.737 5.34 0H-6.793C-9.51 0-19.501-.164-25.656 7.041c-5.073 5.937-10.458 15.211-15.953 27.82-1.174 2.692-6.224 15.103-7.406 18.1-6.714 17.03-18.77 39.464-31.625 39.464" mask="url(#4v987wi0aj)"/>
                                    </g>
                                    <g transform="translate(0 337) translate(0 92.404)">
                                        <mask id="10m3amhspl" fill="#fff">
                                            <use xlink:href="#rmz3evseik"/>
                                        </mask>
                                        <path fill="#E02926" d="M-5.339 92.425H9.328c1.901 0 9.926.737 18.707-10.07C34.402 74.516 40.592 60.35 44.46 51c1.466-3.543 6.472-15.96 7.155-17.514 2.485-5.65 9.676-20.305 15.141-25.545C72.22 2.702 75.628.737 80.64 0H68.508C65.792 0 55.8-.164 49.645 7.041c-5.073 5.937-10.458 15.211-15.953 27.82-1.173 2.692-6.224 15.103-7.406 18.1-6.714 17.03-18.769 39.464-31.625 39.464" mask="url(#10m3amhspl)"/>
                                    </g>
                                    <path fill="#E02926" d="M103.337 174.758c6.367-7.837 12.557-22.004 16.425-31.353 1.467-3.543 6.472-15.962 7.155-17.514 2.485-5.65 9.677-20.306 15.141-25.546 5.465-5.24 8.872-7.205 13.884-7.942H143.81c-2.716 0-12.708-.163-18.863 7.042-5.073 5.937-10.458 15.21-15.953 27.82-1.173 2.692-6.224 15.103-7.405 18.1-6.714 17.03-18.77 39.464-31.626 39.464H84.63c1.901 0 9.926.737 18.707-10.07M178.64 174.758c6.366-7.837 12.556-22.004 16.424-31.353 1.467-3.543 6.472-15.962 7.155-17.514 2.485-5.65 9.677-20.306 15.141-25.546 5.465-5.24 8.872-7.205 13.884-7.942h-12.132c-2.716 0-12.708-.163-18.863 7.042-5.073 5.937-10.458 15.21-15.953 27.82-1.173 2.692-6.224 15.103-7.405 18.1-6.714 17.03-18.77 39.464-31.626 39.464h14.667c1.901 0 9.926.737 18.707-10.07" transform="translate(0 337)"/>
                                    <g transform="translate(0 337) translate(0 184.806)">
                                        <mask id="3mmxfks5nn" fill="#fff">
                                            <use xlink:href="#hhow6reaum"/>
                                        </mask>
                                        <path fill="#E02926" d="M-80.64 92.425h14.667c1.9 0 9.926.737 18.707-10.07C-40.9 74.516-34.71 60.35-30.841 51c1.466-3.543 6.472-15.96 7.154-17.514 2.485-5.65 9.677-20.305 15.142-25.546C-3.081 2.702.327.736 5.339 0H-6.793C-9.51 0-19.501-.164-25.657 7.041c-5.072 5.937-10.457 15.21-15.952 27.82-1.174 2.692-6.224 15.103-7.406 18.1-6.714 17.03-18.77 39.464-31.625 39.464" mask="url(#3mmxfks5nn)"/>
                                    </g>
                                    <g transform="translate(0 337) translate(0 184.806)">
                                        <mask id="8pmjgsumtp" fill="#fff">
                                            <use xlink:href="#g9899ht18o"/>
                                        </mask>
                                        <path fill="#E02926" d="M28.035 82.355c6.367-7.837 12.557-22.004 16.426-31.353 1.466-3.543 6.471-15.962 7.154-17.514 2.485-5.65 9.677-20.306 15.141-25.546C72.221 2.702 75.628.737 80.64 0H68.508C65.792 0 55.8-.163 49.645 7.042c-5.073 5.937-10.458 15.21-15.953 27.82-1.173 2.692-6.224 15.103-7.405 18.1-6.715 17.03-18.77 39.464-31.626 39.464H9.328c1.901 0 9.926.737 18.707-10.07" mask="url(#8pmjgsumtp)"/>
                                    </g>
                                    <path fill="#E02926" d="M103.337 267.161c6.367-7.837 12.557-22.004 16.425-31.353 1.467-3.543 6.472-15.962 7.155-17.514 2.485-5.65 9.677-20.306 15.141-25.546 5.465-5.24 8.872-7.205 13.884-7.942H143.81c-2.716 0-12.708-.163-18.863 7.042-5.073 5.937-10.458 15.21-15.953 27.819-1.173 2.693-6.224 15.104-7.405 18.101-6.714 17.03-18.77 39.464-31.626 39.464H84.63c1.901 0 9.926.737 18.707-10.071M178.64 267.161c6.366-7.837 12.556-22.004 16.424-31.353 1.467-3.543 6.472-15.962 7.155-17.514 2.485-5.65 9.677-20.306 15.141-25.546 5.465-5.24 8.872-7.205 13.884-7.942h-12.132c-2.716 0-12.708-.163-18.863 7.042-5.073 5.937-10.458 15.21-15.953 27.819-1.173 2.693-6.224 15.104-7.405 18.101-6.714 17.03-18.77 39.464-31.626 39.464h14.667c1.901 0 9.926.737 18.707-10.071" transform="translate(0 337)"/>
                                </g>
                            </g>
                        </g>
                    </g>
                </g>
            </g>
        </g>
    </g>
</svg>
