<svg xmlns="http://www.w3.org/2000/svg" width="17" height="17" viewBox="0 0 17 17">
    <path fill="none" fill-rule="evenodd" stroke="#3B3B3B" stroke-linecap="round" stroke-linejoin="round" stroke-width="2" d="M15.916 12.19v2.25c.002.422-.175.826-.486 1.111-.311.286-.728.427-1.149.39-2.308-.252-4.525-1.04-6.472-2.303-1.813-1.152-3.349-2.688-4.5-4.5C2.04 7.18 1.252 4.953 1.006 2.635c-.038-.42.102-.835.386-1.146C1.676 1.178 2.078 1 2.5 1h2.25c.752-.007 1.394.545 1.5 1.29.095.72.27 1.427.525 2.108.206.548.074 1.166-.338 1.582l-.952.953c1.067 1.877 2.622 3.432 4.5 4.5l.952-.953c.416-.412 1.034-.543 1.583-.337.68.253 1.387.43 2.107.525.754.106 1.309.76 1.29 1.522z"/>
</svg>
