<svg xmlns="http://www.w3.org/2000/svg" xmlns:xlink="http://www.w3.org/1999/xlink" width="685" height="480" viewBox="0 0 685 480">
    <defs>
        <path id="ztgejux5nd" d="M0 0L5.339 0 5.339 92.436 0 92.436z"/>
        <path id="h312kwo38f" d="M0 0L80.64 0 80.64 92.437 0 92.437z"/>
        <path id="ilk8m9pg9h" d="M0 0L5.338 0 5.338 92.436 0 92.436z"/>
        <path id="5dkhnxuk7j" d="M0 0L80.64 0 80.64 92.436 0 92.436z"/>
        <path id="r6xo9i3ywl" d="M0 0L5.338 0 5.338 92.436 0 92.436z"/>
        <path id="v1ozob8cjn" d="M0 0L80.64 0 80.64 92.436 0 92.436z"/>
        <path id="ddcsdqaadq" d="M0 0L5.339 0 5.339 92.436 0 92.436z"/>
        <path id="frqayyf0zs" d="M0 0L80.64 0 80.64 92.437 0 92.437z"/>
        <path id="m8pa27otrt" d="M0 0L5.339 0 5.339 92.436 0 92.436z"/>
        <path id="vfwhg54ywv" d="M0 0L80.64 0 80.64 92.436 0 92.436z"/>
        <filter id="lifqmaw68b" color-interpolation-filters="auto">
            <feColorMatrix in="SourceGraphic" values="0 0 0 0 0.000000 0 0 0 0 0.000000 0 0 0 0 0.000000 0 0 0 0.100000 0"/>
        </filter>
        <filter id="05739l54dp" color-interpolation-filters="auto">
            <feColorMatrix in="SourceGraphic" values="0 0 0 0 0.000000 0 0 0 0 0.000000 0 0 0 0 0.000000 0 0 0 0.100000 0"/>
        </filter>
        <rect id="qhiesxm0wa" width="685" height="480" x="0" y="0" rx="10"/>
    </defs>
    <g fill="none" fill-rule="evenodd">
        <g>
            <g>
                <g transform="translate(-1346 -1417) translate(-111 624) translate(1457 793)">
                    <mask id="xv47s85ukc" fill="#fff">
                        <use xlink:href="#qhiesxm0wa"/>
                    </mask>
                    <use fill="#DA291C" xlink:href="#qhiesxm0wa"/>
                    <g filter="url(#lifqmaw68b)">
                        <g mask="url(#xv47s85ukc)">
                            <g>
                                <g transform="translate(374 -189) translate(0 184.806)">
                                    <mask id="chx4btvgee" fill="#fff">
                                        <use xlink:href="#ztgejux5nd"/>
                                    </mask>
                                    <path fill="#E02926" d="M-80.64 92.425h14.667c1.9 0 9.926.737 18.707-10.07C-40.9 74.516-34.71 60.35-30.841 51c1.466-3.543 6.472-15.96 7.154-17.514 2.485-5.65 9.677-20.305 15.142-25.546C-3.081 2.702.327.736 5.339 0H-6.793C-9.51 0-19.501-.164-25.657 7.041c-5.072 5.937-10.457 15.21-15.952 27.82-1.174 2.692-6.224 15.103-7.406 18.1-6.714 17.03-18.77 39.464-31.625 39.464" mask="url(#chx4btvgee)"/>
                                </g>
                                <g transform="translate(374 -189) translate(0 184.806)">
                                    <mask id="hnsgmiabbg" fill="#fff">
                                        <use xlink:href="#h312kwo38f"/>
                                    </mask>
                                    <path fill="#E02926" d="M28.035 82.355c6.367-7.837 12.557-22.004 16.426-31.353 1.466-3.543 6.471-15.962 7.154-17.514 2.485-5.65 9.677-20.306 15.141-25.546C72.221 2.702 75.628.737 80.64 0H68.508C65.792 0 55.8-.163 49.645 7.042c-5.073 5.937-10.458 15.21-15.953 27.82-1.173 2.692-6.224 15.103-7.405 18.1-6.715 17.03-18.77 39.464-31.626 39.464H9.328c1.901 0 9.926.737 18.707-10.07" mask="url(#hnsgmiabbg)"/>
                                </g>
                                <path fill="#E02926" d="M103.337 267.161c6.367-7.837 12.557-22.004 16.425-31.353 1.467-3.543 6.472-15.962 7.155-17.514 2.485-5.65 9.677-20.306 15.141-25.546 5.465-5.24 8.872-7.205 13.884-7.942H143.81c-2.716 0-12.708-.163-18.863 7.042-5.073 5.937-10.458 15.21-15.953 27.819-1.173 2.693-6.224 15.104-7.405 18.101-6.714 17.03-18.77 39.464-31.626 39.464H84.63c1.901 0 9.926.737 18.707-10.071M178.64 267.161c6.366-7.837 12.556-22.004 16.424-31.353 1.467-3.543 6.472-15.962 7.155-17.514 2.485-5.65 9.677-20.306 15.141-25.546 5.465-5.24 8.872-7.205 13.884-7.942h-12.132c-2.716 0-12.708-.163-18.863 7.042-5.073 5.937-10.458 15.21-15.953 27.819-1.173 2.693-6.224 15.104-7.405 18.101-6.714 17.03-18.77 39.464-31.626 39.464h14.667c1.901 0 9.926.737 18.707-10.071" transform="translate(374 -189)"/>
                                <g transform="translate(374 -189) translate(0 277.21)">
                                    <mask id="88t7t6kb3i" fill="#fff">
                                        <use xlink:href="#ilk8m9pg9h"/>
                                    </mask>
                                    <path fill="#E02926" d="M-47.267 82.354C-40.9 74.517-34.71 60.35-30.84 51.001c1.466-3.543 6.471-15.962 7.154-17.514 2.485-5.65 9.677-20.306 15.141-25.546C-3.08 2.701.326.736 5.338 0H-6.794C-9.51 0-19.502-.164-25.657 7.041c-5.073 5.937-10.458 15.21-15.953 27.82-1.173 2.692-6.224 15.103-7.405 18.1-6.714 17.03-18.769 39.464-31.626 39.464h14.667c1.902 0 9.926.737 18.707-10.07" mask="url(#88t7t6kb3i)"/>
                                </g>
                                <g transform="translate(374 -189) translate(0 277.21)">
                                    <mask id="9yjgrck7jk" fill="#fff">
                                        <use xlink:href="#5dkhnxuk7j"/>
                                    </mask>
                                    <path fill="#E02926" d="M28.035 82.354c6.367-7.837 12.557-22.004 16.426-31.353 1.466-3.543 6.471-15.962 7.154-17.514 2.485-5.65 9.677-20.306 15.141-25.546C72.221 2.701 75.628.736 80.64 0H68.508C65.792 0 55.8-.164 49.645 7.041c-5.073 5.937-10.458 15.21-15.953 27.82-1.173 2.692-6.224 15.103-7.405 18.1-6.715 17.03-18.77 39.464-31.626 39.464H9.328c1.901 0 9.926.737 18.707-10.07" mask="url(#9yjgrck7jk)"/>
                                </g>
                                <path fill="#E02926" d="M103.337 359.564c6.367-7.837 12.557-22.004 16.425-31.353 1.467-3.543 6.472-15.962 7.155-17.514 2.485-5.65 9.677-20.306 15.141-25.546 5.465-5.24 8.872-7.205 13.884-7.942H143.81c-2.716 0-12.708-.163-18.863 7.042-5.073 5.937-10.458 15.21-15.953 27.82-1.173 2.692-6.224 15.103-7.405 18.1-6.715 17.03-18.77 39.464-31.626 39.464H84.63c1.901 0 9.926.737 18.707-10.071M178.64 359.564c6.366-7.837 12.556-22.004 16.424-31.353 1.467-3.543 6.472-15.962 7.155-17.514 2.485-5.65 9.677-20.306 15.141-25.546 5.465-5.24 8.872-7.205 13.884-7.942h-12.132c-2.716 0-12.708-.163-18.863 7.042-5.073 5.937-10.458 15.21-15.953 27.82-1.173 2.692-6.224 15.103-7.405 18.1-6.714 17.03-18.77 39.464-31.626 39.464h14.667c1.901 0 9.926.737 18.707-10.071" transform="translate(374 -189)"/>
                                <g transform="translate(374 -189) translate(0 369.611)">
                                    <mask id="kfpn89gvim" fill="#fff">
                                        <use xlink:href="#r6xo9i3ywl"/>
                                    </mask>
                                    <path fill="#E02926" d="M-6.793 0C-9.51 0-19.502-.164-25.657 7.041c-5.073 5.938-10.457 15.211-15.952 27.82-1.174 2.692-6.224 15.104-7.407 18.1-6.714 17.03-18.768 39.464-31.625 39.464h14.668c1.9 0 9.925.737 18.706-10.07C-40.9 74.517-34.71 60.351-30.84 51.001c1.466-3.543 6.472-15.96 7.154-17.514 2.486-5.649 9.677-20.305 15.142-25.545C-3.083 2.702.325.737 5.337 0H-6.793z" mask="url(#kfpn89gvim)"/>
                                </g>
                                <g transform="translate(374 -189) translate(0 369.611)">
                                    <mask id="imzhr85yao" fill="#fff">
                                        <use xlink:href="#v1ozob8cjn"/>
                                    </mask>
                                    <path fill="#E02926" d="M68.508 0C65.792 0 55.8-.164 49.644 7.041c-5.072 5.938-10.457 15.211-15.952 27.82-1.174 2.692-6.224 15.104-7.406 18.1-6.714 17.03-18.769 39.464-31.625 39.464H9.328c1.901 0 9.926.737 18.707-10.07 6.367-7.838 12.556-22.004 16.425-31.354 1.466-3.543 6.472-15.96 7.155-17.514 2.485-5.649 9.676-20.305 15.141-25.545C72.22 2.702 75.628.737 80.64 0H68.508z" mask="url(#imzhr85yao)"/>
                                </g>
                                <path fill="#E02926" d="M143.81 369.611c-2.716 0-12.708-.163-18.864 7.042-5.072 5.938-10.457 15.21-15.952 27.82-1.174 2.692-6.224 15.104-7.405 18.1-6.715 17.03-18.77 39.464-31.626 39.464H84.63c1.901 0 9.926.737 18.707-10.07 6.367-7.838 12.556-22.004 16.425-31.354 1.466-3.543 6.472-15.961 7.154-17.514 2.486-5.65 9.677-20.305 15.142-25.545 5.464-5.24 8.872-7.205 13.884-7.943H143.81zM219.113 369.611c-2.716 0-12.708-.163-18.864 7.042-5.072 5.938-10.457 15.21-15.952 27.82-1.174 2.692-6.226 15.104-7.406 18.1-6.714 17.03-18.77 39.464-31.625 39.464h14.667c1.9 0 9.925.737 18.707-10.07 6.367-7.838 12.556-22.004 16.425-31.354 1.465-3.543 6.471-15.961 7.154-17.514 2.486-5.65 9.677-20.305 15.142-25.545 5.464-5.24 8.87-7.205 13.883-7.943h-12.131z" transform="translate(374 -189)"/>
                            </g>
                        </g>
                    </g>
                    <g filter="url(#05739l54dp)">
                        <g mask="url(#xv47s85ukc)">
                            <g>
                                <g transform="translate(48 311)">
                                    <mask id="obhxqalx2r" fill="#fff">
                                        <use xlink:href="#ddcsdqaadq"/>
                                    </mask>
                                    <path fill="#E02926" d="M-80.64 92.425h14.667c1.9 0 9.926.737 18.706-10.07C-40.9 74.516-34.71 60.35-30.841 51c1.466-3.543 6.472-15.96 7.154-17.514 2.485-5.649 9.677-20.305 15.142-25.545C-3.081 2.702.325.737 5.339 0H-6.793C-9.51 0-19.501-.164-25.657 7.041c-5.072 5.937-10.457 15.211-15.952 27.82-1.174 2.692-6.224 15.103-7.406 18.1-6.714 17.03-18.77 39.464-31.625 39.464" mask="url(#obhxqalx2r)"/>
                                </g>
                                <g transform="translate(48 311)"/>
                                <path fill="#E02926" d="M124.947 7.042c-5.073 5.937-10.458 15.21-15.953 27.82-1.173 2.692-6.224 15.103-7.405 18.1-6.714 17.03-18.769 39.464-31.625 39.464h14.667c1.9 0 9.925.737 18.706-10.07 6.368-7.838 12.557-22.005 16.426-31.354 1.466-3.543 6.471-15.96 7.154-17.514 2.485-5.649 9.677-20.305 15.141-25.545C147.523 2.703 150.93.738 155.942 0h-12.131c-2.716 0-12.708-.163-18.864 7.042M200.249 7.042c-5.073 5.937-10.458 15.21-15.953 27.82-1.173 2.692-6.224 15.103-7.405 18.1-6.714 17.03-18.769 39.464-31.625 39.464h14.666c1.902 0 9.926.737 18.707-10.07 6.368-7.838 12.557-22.005 16.426-31.354 1.466-3.543 6.471-15.96 7.154-17.514 2.485-5.649 9.677-20.305 15.141-25.545 5.465-5.24 8.872-7.205 13.884-7.943h-12.131c-2.717 0-12.708-.163-18.864 7.042" transform="translate(48 311)"/>
                                <g transform="translate(48 311) translate(0 92.404)">
                                    <mask id="tofk06qpvu" fill="#fff">
                                        <use xlink:href="#m8pa27otrt"/>
                                    </mask>
                                    <path fill="#E02926" d="M-80.64 92.425h14.667c1.9 0 9.926.737 18.707-10.07C-40.9 74.516-34.71 60.35-30.841 51c1.466-3.543 6.472-15.96 7.155-17.514 2.485-5.65 9.676-20.305 15.14-25.545C-3.08 2.702.328.737 5.34 0H-6.793C-9.51 0-19.501-.164-25.656 7.041c-5.073 5.937-10.458 15.211-15.953 27.82-1.174 2.692-6.224 15.103-7.406 18.1-6.714 17.03-18.77 39.464-31.625 39.464" mask="url(#tofk06qpvu)"/>
                                </g>
                                <g transform="translate(48 311) translate(0 92.404)">
                                    <mask id="31l406ve6w" fill="#fff">
                                        <use xlink:href="#vfwhg54ywv"/>
                                    </mask>
                                    <path fill="#E02926" d="M-5.339 92.425H9.328c1.901 0 9.926.737 18.707-10.07C34.402 74.516 40.592 60.35 44.46 51c1.466-3.543 6.472-15.96 7.155-17.514 2.485-5.65 9.676-20.305 15.141-25.545C72.22 2.702 75.628.737 80.64 0H68.508C65.792 0 55.8-.164 49.645 7.041c-5.073 5.937-10.458 15.211-15.953 27.82-1.173 2.692-6.224 15.103-7.406 18.1-6.714 17.03-18.769 39.464-31.625 39.464" mask="url(#31l406ve6w)"/>
                                </g>
                                <path fill="#E02926" d="M103.337 174.758c6.367-7.837 12.557-22.004 16.425-31.353 1.467-3.543 6.472-15.962 7.155-17.514 2.485-5.65 9.677-20.306 15.141-25.546 5.465-5.24 8.872-7.205 13.884-7.942H143.81c-2.716 0-12.708-.163-18.863 7.042-5.073 5.937-10.458 15.21-15.953 27.82-1.173 2.692-6.224 15.103-7.405 18.1-6.714 17.03-18.77 39.464-31.626 39.464H84.63c1.901 0 9.926.737 18.707-10.07M178.64 174.758c6.366-7.837 12.556-22.004 16.424-31.353 1.467-3.543 6.472-15.962 7.155-17.514 2.485-5.65 9.677-20.306 15.141-25.546 5.465-5.24 8.872-7.205 13.884-7.942h-12.132c-2.716 0-12.708-.163-18.863 7.042-5.073 5.937-10.458 15.21-15.953 27.82-1.173 2.692-6.224 15.103-7.405 18.1-6.714 17.03-18.77 39.464-31.626 39.464h14.667c1.901 0 9.926.737 18.707-10.07" transform="translate(48 311)"/>
                            </g>
                        </g>
                    </g>
                </g>
            </g>
        </g>
    </g>
</svg>
