<svg xmlns="http://www.w3.org/2000/svg" xmlns:xlink="http://www.w3.org/1999/xlink" width="685" height="480" viewBox="0 0 685 480">
    <defs>
        <filter id="1zmx02tdub" color-interpolation-filters="auto">
            <feColorMatrix in="SourceGraphic" values="0 0 0 0 0.000000 0 0 0 0 0.000000 0 0 0 0 0.000000 0 0 0 0.100000 0"/>
        </filter>
        <rect id="7uzk6xwjra" width="685" height="480" x="0" y="0" rx="10"/>
    </defs>
    <g fill="none" fill-rule="evenodd">
        <g>
            <g>
                <g transform="translate(111 -867) translate(-111 624) translate(0 243)">
                    <mask id="y7ui6n5lkc" fill="#fff">
                        <use xlink:href="#7uzk6xwjra"/>
                    </mask>
                    <use fill="#642667" xlink:href="#7uzk6xwjra"/>
                    <g filter="url(#1zmx02tdub)">
                        <g mask="url(#y7ui6n5lkc)">
                            <g fill="#BBB9BC">
                                <path d="M75.66 526.78c-6.328 7.4-13.044 18.96-19.897 34.68-1.463 3.356-7.763 18.828-9.236 22.564-8.373 21.23-23.408 49.197-39.442 49.197h18.292c2.37 0 12.379.919 23.33-12.555 7.943-9.77 15.661-27.43 20.487-39.085 1.828-4.417 8.07-19.898 8.922-21.834 3.1-7.042 12.07-25.312 18.884-31.845 6.816-6.533 11.065-8.982 17.316-9.902h-15.13c-3.387 0-15.849-.203-23.527 8.78M169.575 526.78c-6.327 7.4-13.043 18.96-19.896 34.68-1.463 3.356-7.763 18.828-9.235 22.564-8.374 21.23-23.41 49.197-39.443 49.197h18.291c2.373 0 12.38.919 23.332-12.555 7.942-9.77 15.66-27.43 20.486-39.085 1.828-4.417 8.07-19.898 8.922-21.834 3.1-7.042 12.07-25.312 18.884-31.845 6.816-6.533 11.065-8.982 17.316-9.902h-15.13c-3.388 0-15.849-.203-23.527 8.78" transform="translate(101 -268)"/>
                                <path d="M48.708 735.858c7.94-9.77 15.66-27.43 20.485-39.085 1.83-4.417 8.072-19.9 8.923-21.834 3.1-7.043 12.07-25.314 18.884-31.846 6.816-6.532 11.065-8.982 17.316-9.901h-15.13c-3.388 0-15.85-.203-23.526 8.779-6.327 7.401-13.044 18.961-19.897 34.68-1.463 3.357-7.763 18.829-9.235 22.565-8.374 21.23-23.41 49.197-39.444 49.197h18.292c2.371 0 12.38.919 23.332-12.555M142.624 735.858c7.94-9.77 15.66-27.43 20.485-39.085 1.83-4.417 8.072-19.9 8.924-21.834 3.099-7.043 12.069-25.314 18.883-31.846 6.816-6.532 11.066-8.982 17.316-9.901h-15.13c-3.388 0-15.85-.203-23.526 8.779-6.327 7.401-13.043 18.961-19.897 34.68-1.463 3.357-7.762 18.829-9.235 22.565-8.374 21.23-23.41 49.197-39.444 49.197h18.293c2.37 0 12.38.919 23.33-12.555" transform="translate(101 -268)"/>
                            </g>
                        </g>
                    </g>
                </g>
            </g>
        </g>
    </g>
</svg>
