<svg xmlns="http://www.w3.org/2000/svg" width="17" height="17" viewBox="0 0 17 17">
    <path fill="#3B3B3B" d="M8.504 0c2.255 0 4.417.897 6.011 2.493C16.11 4.09 17.003 6.254 17 8.51c-.02 4.71-3.842 8.52-8.511 8.49C3.796 16.996-.004 13.187 0 8.492.004 3.798 3.812-.004 8.504 0zm1.983 6.819h-3.96c-.188 1.114-.188 2.252 0 3.366h3.958c.182-1.115.183-2.252.002-3.366zm-5.698 0c-.035-.008-.07-.015-.107-.02H2.076c-.048-.003-.095.013-.13.045-.036.032-.056.078-.056.126-.235 1-.24 2.04-.013 3.043.002.06.03.116.078.152.048.037.11.05.168.035H4.59c.063 0 .128 0 .204-.012-.15-1.118-.151-2.25-.005-3.37zm7.424 0c.153 1.115.153 2.247 0 3.362.037.008.075.014.112.017h2.605c.048.005.095-.011.13-.044.036-.032.056-.078.056-.126.235-1.006.235-2.053 0-3.06-.005-.055-.033-.105-.077-.137-.045-.033-.1-.045-.155-.033h-2.486c-.054.002-.112.014-.185.019v.002zm-5.318-1.74h3.228c-.358-1.192-.905-2.319-1.62-3.338-.71 1.02-1.253 2.147-1.608 3.339zm0 6.833c.357 1.194.9 2.324 1.609 3.349.708-1.025 1.251-2.154 1.609-3.348H6.884l.01-.001zM14.36 5.1c-.624-1.251-2.668-2.917-3.621-2.967.472.905.846 1.858 1.115 2.843.037.067.104.111.18.119.51.01 1.02 0 1.53 0h.796V5.1zM6.25 2.093c-1.512.537-2.787 1.588-3.6 2.971.017.013.037.022.057.03h2.306c.068-.021.122-.072.146-.139.143-.42.253-.85.413-1.26.2-.526.435-1.036.678-1.602zM2.652 11.9c.518 1.166 2.667 2.929 3.602 2.961-.032-.064-.063-.122-.087-.182-.299-.74-.596-1.494-.892-2.244-.064-.17-.06-.406-.17-.49-.108-.083-.358-.045-.542-.045H2.652zm8.074 3.016c1.53-.539 2.82-1.6 3.645-2.996-.04-.008-.081-.013-.122-.017H12.02c-.045-.003-.09.012-.124.042-.034.03-.055.071-.058.116-.251.718-.51 1.433-.773 2.144-.086.23-.212.447-.34.71z"/>
</svg>
