<svg xmlns="http://www.w3.org/2000/svg" xmlns:xlink="http://www.w3.org/1999/xlink" width="1920" height="710" viewBox="0 0 1920 710">
    <defs>
        <filter id="rs1dnipxxc" color-interpolation-filters="auto">
            <feColorMatrix in="SourceGraphic" values="0 0 0 0 0.000000 0 0 0 0 0.000000 0 0 0 0 0.000000 0 0 0 0.100000 0"/>
        </filter>
        <filter id="vy3t5gdjoe" color-interpolation-filters="auto">
            <feColorMatrix in="SourceGraphic" values="0 0 0 0 0.000000 0 0 0 0 0.000000 0 0 0 0 0.000000 0 0 0 0.100000 0"/>
        </filter>
        <path id="272z2h57xa" d="M0 0H1920V710H0z"/>
        <path id="5zt2136o1f" d="M0 0L107.267 0 107.267 115.233 0 115.233z"/>
        <linearGradient id="kjyqgac93b" x1="0%" x2="100%" y1="56.837%" y2="43.163%">
            <stop offset="0%" stop-color="#B12029"/>
            <stop offset="28.33%" stop-color="#BB2228"/>
            <stop offset="52.44%" stop-color="#CF2527"/>
            <stop offset="76.43%" stop-color="#DC2826"/>
            <stop offset="100%" stop-color="#E02826"/>
        </linearGradient>
    </defs>
    <g fill="none" fill-rule="evenodd">
        <g>
            <g>
                <g transform="translate(0 -1648) translate(0 148) translate(0 1500)">
                    <mask id="6dv039bl4d" fill="#fff">
                        <use xlink:href="#272z2h57xa"/>
                    </mask>
                    <use fill="url(#kjyqgac93b)" fill-rule="nonzero" xlink:href="#272z2h57xa"/>
                    <g filter="url(#rs1dnipxxc)">
                        <g mask="url(#6dv039bl4d)">
                            <g fill="#BBB9BC">
                                <path d="M93.917 115.22h18.292c2.371 0 12.38.92 23.332-12.554 7.94-9.77 15.66-27.43 20.485-39.085 1.828-4.417 8.072-19.898 8.923-21.834 3.1-7.042 12.068-25.312 18.884-31.845C190.648 3.37 194.898.92 201.15.002h-15.13c-3.388 0-15.85-.205-23.527 8.777-6.327 7.401-13.043 18.962-19.896 34.681-1.463 3.356-7.763 18.828-9.237 22.564-8.373 21.23-23.408 49.197-39.442 49.197M187.833 115.22h18.293c2.37 0 12.38.92 23.33-12.554 7.942-9.77 15.66-27.43 20.486-39.085 1.829-4.417 8.072-19.898 8.923-21.834 3.099-7.042 12.069-25.312 18.885-31.845 6.814-6.533 11.064-8.982 17.316-9.9h-15.131c-3.388 0-15.85-.205-23.527 8.777-6.326 7.401-13.042 18.962-19.896 34.681-1.464 3.356-7.762 18.828-9.236 22.564-8.374 21.23-23.409 49.197-39.443 49.197M350.24 8.78c-6.327 7.4-13.043 18.96-19.896 34.68-1.463 3.356-7.763 18.828-9.236 22.564-8.373 21.23-23.408 49.197-39.442 49.197h18.292c2.37 0 12.379.919 23.33-12.555 7.942-9.77 15.661-27.43 20.487-39.085 1.828-4.417 8.07-19.898 8.922-21.834 3.1-7.042 12.07-25.312 18.884-31.845C378.397 3.37 382.646.92 388.897 0h-15.13c-3.387 0-15.85-.203-23.527 8.78" transform="translate(-12 480)"/>
                                <path d="M41.624 217.858c7.941-9.77 15.661-27.43 20.487-39.085 1.828-4.417 8.07-19.9 8.922-21.834 3.1-7.043 12.069-25.314 18.884-31.846 6.816-6.532 11.065-8.982 17.316-9.901H92.102c-3.388 0-15.85-.203-23.526 8.779-6.327 7.401-13.043 18.961-19.897 34.68-1.462 3.357-7.762 18.829-9.236 22.565-8.374 21.23-23.409 49.197-39.443 49.197h18.293c2.37 0 12.38.919 23.331-12.555M93.917 230.412h18.292c2.371 0 12.38.92 23.332-12.554 7.94-9.77 15.66-27.431 20.485-39.086 1.828-4.417 8.072-19.897 8.922-21.833 3.1-7.044 12.07-25.313 18.885-31.845 6.815-6.533 11.065-8.982 17.316-9.901h-15.13c-3.388 0-15.85-.204-23.528 8.778-6.326 7.4-13.042 18.962-19.895 34.68-1.464 3.357-7.763 18.828-9.237 22.565-8.373 21.23-23.408 49.196-39.442 49.196M187.833 230.412h18.292c2.371 0 12.38.92 23.332-12.554 7.94-9.77 15.66-27.431 20.485-39.086 1.828-4.417 8.072-19.897 8.924-21.833 3.099-7.044 12.067-25.313 18.883-31.845 6.815-6.533 11.065-8.982 17.316-9.901h-15.13c-3.388 0-15.85-.204-23.526 8.778-6.327 7.4-13.044 18.962-19.897 34.68-1.464 3.357-7.762 18.828-9.237 22.565-8.373 21.23-23.408 49.196-39.442 49.196M281.749 230.412h18.292c2.371 0 12.38.92 23.332-12.554 7.94-9.77 15.66-27.431 20.485-39.086 1.828-4.417 8.072-19.897 8.923-21.833 3.1-7.044 12.068-25.313 18.884-31.845 6.815-6.533 11.065-8.982 17.316-9.901h-15.13c-3.388 0-15.85-.204-23.526 8.778-6.327 7.4-13.044 18.962-19.897 34.68-1.463 3.357-7.762 18.828-9.237 22.565-8.373 21.23-23.408 49.196-39.442 49.196" transform="translate(-12 480)"/>
                            </g>
                        </g>
                    </g>
                    <g filter="url(#vy3t5gdjoe)">
                        <g mask="url(#6dv039bl4d)">
                            <g>
                                <path fill="#BBB9BC" d="M93.947 115.22h18.298c2.372 0 12.384.92 23.339-12.554 7.943-9.77 15.666-27.43 20.492-39.085 1.829-4.417 8.074-19.898 8.926-21.834 3.1-7.042 12.072-25.312 18.89-31.845C190.71 3.37 194.961.92 201.214.002h-15.136c-3.388 0-15.854-.205-23.533 8.777-6.33 7.401-13.048 18.962-19.903 34.681-1.464 3.356-7.765 18.828-9.24 22.564-8.376 21.23-23.416 49.197-39.455 49.197M187.894 115.22h18.298c2.372 0 12.384.92 23.338-12.554 7.944-9.77 15.666-27.43 20.493-39.085 1.829-4.417 8.074-19.898 8.925-21.834 3.1-7.042 12.073-25.312 18.891-31.845 6.817-6.533 11.068-8.982 17.322-9.9h-15.136c-3.389 0-15.855-.205-23.535 8.777-6.328 7.401-13.046 18.962-19.901 34.681-1.465 3.356-7.765 18.828-9.24 22.564-8.376 21.23-23.416 49.197-39.455 49.197M350.437 8.78c-6.33 7.4-13.048 18.96-19.903 34.68-1.463 3.356-7.765 18.828-9.238 22.564-8.377 21.23-23.417 49.197-39.456 49.197h18.298c2.371 0 12.383.919 23.338-12.555 7.945-9.77 15.666-27.43 20.493-39.085 1.83-4.417 8.074-19.898 8.926-21.834 3.1-7.042 12.073-25.312 18.89-31.845C378.602 3.37 382.852.92 389.105 0h-15.134c-3.39 0-15.855-.203-23.535 8.78M444.383 8.78c-6.329 7.4-13.047 18.96-19.903 34.68-1.463 3.356-7.765 18.828-9.238 22.564-8.376 21.23-23.416 49.197-39.455 49.197h18.298c2.37 0 12.383.919 23.338-12.555 7.945-9.77 15.666-27.43 20.493-39.085 1.829-4.417 8.073-19.898 8.925-21.834 3.1-7.042 12.073-25.312 18.89-31.845C472.549 3.37 476.8.92 483.053 0h-15.135c-3.388 0-15.854-.203-23.535 8.78M538.33 8.78c-6.33 7.4-13.047 18.96-19.903 34.68-1.463 3.356-7.765 18.828-9.238 22.564-8.377 21.23-23.417 49.197-39.456 49.197h18.298c2.372 0 12.383.919 23.338-12.555 7.945-9.77 15.666-27.43 20.493-39.085 1.83-4.417 8.074-19.898 8.926-21.834 3.1-7.042 12.073-25.312 18.89-31.845C566.495 3.37 570.745.92 576.998 0h-15.134c-3.39 0-15.855-.203-23.535 8.78" transform="translate(1449)"/>
                                <path fill="#BBB9BC" d="M41.637 217.858c7.944-9.77 15.666-27.43 20.493-39.085 1.83-4.417 8.073-19.9 8.926-21.834 3.1-7.043 12.073-25.314 18.89-31.846 6.818-6.532 11.068-8.982 17.321-9.901H92.131c-3.388 0-15.854-.203-23.533 8.779-6.33 7.401-13.048 18.961-19.903 34.68-1.463 3.357-7.765 18.829-9.24 22.565C31.08 202.446 16.04 230.413 0 230.413h18.298c2.372 0 12.384.919 23.34-12.555M93.947 230.412h18.298c2.372 0 12.384.92 23.339-12.554 7.943-9.77 15.665-27.431 20.492-39.086 1.829-4.417 8.074-19.897 8.925-21.833 3.102-7.044 12.073-25.313 18.891-31.845 6.817-6.533 11.069-8.982 17.322-9.901h-15.136c-3.388 0-15.854-.204-23.535 8.778-6.327 7.4-13.046 18.962-19.901 34.68-1.465 3.357-7.765 18.828-9.24 22.565-8.376 21.23-23.416 49.196-39.455 49.196M187.893 230.412h18.299c2.371 0 12.383.92 23.339-12.554 7.943-9.77 15.664-27.431 20.491-39.086 1.83-4.417 8.075-19.897 8.927-21.833 3.1-7.044 12.072-25.313 18.89-31.845 6.817-6.533 11.068-8.982 17.321-9.901h-15.135c-3.389 0-15.855-.204-23.534 8.778-6.329 7.4-13.047 18.962-19.903 34.68-1.464 3.357-7.765 18.828-9.24 22.565-8.376 21.23-23.416 49.196-39.455 49.196M281.84 230.412h18.298c2.372 0 12.384.92 23.339-12.554 7.943-9.77 15.666-27.431 20.492-39.086 1.829-4.417 8.074-19.897 8.926-21.833 3.1-7.044 12.072-25.313 18.89-31.845 6.817-6.533 11.069-8.982 17.322-9.901H373.97c-3.389 0-15.855-.204-23.534 8.778-6.329 7.4-13.047 18.962-19.903 34.68-1.463 3.357-7.765 18.828-9.24 22.565-8.376 21.23-23.415 49.196-39.454 49.196" transform="translate(1449)"/>
                                <path fill="#BBB9BC" d="M41.637 333.05c7.944-9.77 15.666-27.431 20.493-39.086 1.83-4.417 8.073-19.898 8.926-21.833 3.1-7.044 12.073-25.314 18.89-31.846 6.816-6.533 11.068-8.982 17.321-9.902H92.131c-3.388 0-15.854-.202-23.533 8.78-6.33 7.4-13.048 18.96-19.903 34.68-1.463 3.357-7.765 18.828-9.24 22.565C31.08 317.638 16.04 345.604 0 345.604h18.298c2.372 0 12.384.92 23.34-12.554M93.947 345.604h18.298c2.372 0 12.384.919 23.339-12.555 7.943-9.77 15.665-27.43 20.492-39.085 1.829-4.417 8.074-19.897 8.925-21.833 3.1-7.044 12.073-25.313 18.891-31.847 6.817-6.53 11.069-8.982 17.322-9.9h-15.136c-3.388 0-15.854-.204-23.535 8.778-6.327 7.402-13.046 18.961-19.901 34.681-1.465 3.356-7.765 18.828-9.24 22.564-8.376 21.23-23.416 49.197-39.455 49.197" transform="translate(1449)"/>
                                <g transform="translate(1449) translate(469.733 460.767)">
                                    <mask id="mlqkqvf68g" fill="#fff">
                                        <use xlink:href="#5zt2136o1f"/>
                                    </mask>
                                    <path fill="#BBB9BC" d="M92.131 0c-3.388 0-15.854-.204-23.534 8.778C62.269 16.18 55.55 27.74 48.695 43.459c-1.465 3.356-7.766 18.829-9.24 22.564C31.08 87.253 16.04 115.22 0 115.22h18.298c2.372 0 12.384.918 23.34-12.554 7.943-9.77 15.664-27.43 20.491-39.086 1.829-4.417 8.074-19.898 8.925-21.834 3.102-7.042 12.073-25.313 18.891-31.845C96.762 3.37 101.013.92 107.267 0H92.131z" mask="url(#mlqkqvf68g)"/>
                                </g>
                            </g>
                        </g>
                    </g>
                </g>
            </g>
        </g>
    </g>
</svg>
