<svg xmlns="http://www.w3.org/2000/svg" width="31" height="31" viewBox="0 0 31 31">
    <path fill="none" fill-rule="evenodd" stroke="#da291c" stroke-linecap="round" stroke-linejoin="round" stroke-width="3" d="M28.946 22.215v4.064c.003.763-.316 1.492-.878 2.008s-1.316.77-2.076.702c-4.17-.453-8.174-1.878-11.692-4.16-3.274-2.08-6.05-4.855-8.13-8.129-2.29-3.534-3.714-7.558-4.159-11.746-.068-.758.185-1.51.697-2.071.513-.562 1.239-.882 2-.883h4.064c1.36-.013 2.52.984 2.71 2.33.171 1.301.49 2.578.948 3.808.372.99.134 2.106-.61 2.858l-1.72 1.721c1.928 3.392 4.737 6.2 8.129 8.13l1.72-1.721c.753-.744 1.869-.982 2.86-.61 1.228.459 2.506.777 3.806.948 1.363.193 2.365 1.375 2.33 2.75z"/>
</svg>
