<svg xmlns="http://www.w3.org/2000/svg" width="25" height="33" viewBox="0 0 25 33">
    <path fill="#C8102E" stroke="#da291c" d="M10.409 1C8.877 1 7.621 2.27 7.621 3.818v.705c-.003.254.129.49.346.618.217.128.485.128.703 0 .217-.128.349-.364.345-.618v-.705c0-.793.61-1.409 1.394-1.409.784 0 1.394.616 1.394 1.41V8.54c-.576.935-1.59 1.618-2.788 1.618-1.06 0-2.359-.726-2.93-1.486-.209-.27-.58-.348-.88-.185-.298.163-.437.52-.328.845L7.382 16.5h-5.75c-.36.034-.634.34-.632.705v10.92c0 .17.063.335.174.462l2.788 3.17c.132.154.322.242.523.243h16.03c.2 0 .391-.09.523-.242l2.788-3.17c.111-.128.173-.293.174-.463v-7.078c.003-.255-.129-.49-.346-.619-.217-.128-.485-.128-.702 0-.218.128-.35.364-.346.619v6.803l-2.407 2.74H4.801l-2.407-2.74v-9.94h20.212v.373c-.004.254.128.49.346.619.217.128.485.128.702 0 .217-.128.35-.365.346-.619v-1.078c0-.39-.312-.705-.697-.705h-5.685l2.505-7.167c.109-.325-.03-.682-.329-.845-.299-.163-.67-.085-.88.185-.57.76-1.869 1.486-2.93 1.486-1.197 0-2.211-.683-2.787-1.618V3.818C13.197 2.27 11.94 1 10.409 1zm2.09 8.928c.846.97 2.07 1.64 3.486 1.64.717 0 1.418-.19 2.058-.484L16.148 16.5H8.852l-1.895-5.416c.64.295 1.341.484 2.058.484 1.417 0 2.64-.67 3.485-1.64zm0 9.742c-1.718 0-3.135 1.408-3.135 3.138-.004.254.128.49.345.618.217.128.486.128.703 0 .217-.128.35-.364.346-.618 0-.959.767-1.728 1.742-1.728s1.742.77 1.742 1.728c0 .48-.172.898-.446 1.156-.488.458-.837.612-1.22.88-.191.135-.415.324-.566.595-.151.271-.207.594-.207.925-.004.254.128.49.346.618.217.128.485.128.702 0 .217-.128.35-.364.346-.618 0-.176.025-.217.033-.232.007-.014.028-.041.141-.12.226-.16.754-.434 1.372-1.013.603-.566.893-1.374.893-2.191 0-1.73-1.417-3.138-3.136-3.138zm0 8.103c-.384 0-.696.315-.696.704 0 .39.312.705.697.705.385 0 .697-.316.697-.705 0-.389-.312-.704-.697-.704z"/>
</svg>
