<svg xmlns="http://www.w3.org/2000/svg" width="39" height="30" viewBox="0 0 39 30">
    <path fill="#C8102E" stroke="#da291c" d="M37.937 10.891c-.263-.959-1.3-1.602-3.08-1.912l-.23 1.265c1.165.203 1.927.57 2.04.98.149.545-.708 1.635-2.877 2.967-.037-.604-.109-1.213-.228-1.823C32.272 5.782 26.365 1 19.515 1c-.903 0-1.813.085-2.708.252-3.756.702-7.007 2.794-9.154 5.887-2.148 3.094-2.935 6.82-2.216 10.493.262 1.342.72 2.608 1.335 3.775-2.666-.036-4.249-.497-4.44-1.19-.115-.421.382-1.13 1.33-1.897l-.838-.99c-1.436 1.16-2.03 2.244-1.762 3.22.413 1.506 2.777 2.138 6.116 2.138.116 0 .235-.003.353-.004C10.115 26.525 14.555 29 19.484 29c.902 0 1.813-.085 2.707-.252 6.61-1.237 11.288-6.76 11.606-13.06 3.133-1.772 4.527-3.385 4.14-4.797zm-24.802-6.98c.509.76 1.406 1.752 2.645 1.812.896.047 1.628-.402 2.218-.761.207-.126.51-.31.655-.348.016.02.037.052.061.1l.177.344c.532 1.03.6 1.162.359 2.244-.203.906-.74 3.313 1.509 4.042.231.075.32.158.329.16-.007.137-.501.848-2.673 1.573-2.45.816-4.384 1.462-4.718 2.793-.172.682.11 1.39.862 2.16.124.128.32.357.236.465-.477.617-3.037.851-3.59.576-.13-.195.004-1.075.093-1.656.178-1.178.4-2.643-.12-3.86-.397-.932-1.107-1.618-1.732-2.223-.975-.943-1.519-1.538-1.293-2.538.182-.317.376-.63.587-.933 1.153-1.659 2.656-2.997 4.395-3.95zm-5.9 6.857c.342.561.828 1.034 1.287 1.478.59.57 1.148 1.11 1.443 1.804.38.888.195 2.105.033 3.177-.192 1.272-.375 2.473.566 2.957.329.169.928.262 1.615.262 1.348 0 3.031-.355 3.665-1.175.231-.3.662-1.105-.332-2.126-.4-.41-.591-.755-.538-.969.162-.647 2.217-1.332 3.866-1.882 2.302-.768 3.567-1.76 3.563-2.795-.001-.294-.123-1.016-1.23-1.375-.695-.225-1.044-.73-.638-2.547.326-1.458.146-1.905-.47-3.098l-.174-.336c-.21-.415-.502-.676-.864-.776-.614-.17-1.176.173-1.722.505-.48.291-.98.587-1.46.57-.606-.03-1.15-.575-1.524-1.102.869-.367 1.784-.647 2.736-.825.812-.152 1.64-.229 2.46-.229 3.875 0 7.417 1.686 9.821 4.404-.71.268-1.567.735-1.857 1.491-.147.383-.207.988.343 1.702 1.186 1.543 1.054 1.993.495 3.068-.343.663-.514 1.475-.493 2.349l1.314-.03c-.015-.663.106-1.263.351-1.737.777-1.493.872-2.487-.616-4.422-.232-.3-.18-.433-.163-.478.129-.336.843-.674 1.478-.867 1.008 1.421 1.734 3.06 2.083 4.845.152.778.224 1.552.229 2.317-3.089 1.643-7.344 3.218-12.002 4.438-4.95 1.297-9.135 1.9-12.239 2.022-.721-1.212-1.249-2.557-1.53-3.996-.443-2.25-.259-4.521.504-6.624zm14.71 16.718c-.186.035-.374.065-.562.092.038-.194.057-.4.054-.618-.018-1.054-.525-2.088-1.324-2.698-.61-.466-1.246-.567-1.71-.641-.088-.014-.196-.03-.279-.049.008-.045.021-.107.045-.188.082-.286.24-.574.456-.832l-1.018-.814c-.329.394-.572.842-.704 1.298-.099.343-.198.848.075 1.267.287.44.78.517 1.213.586.378.06.767.122 1.112.385.486.371.807 1.042.818 1.707.005.296-.057.551-.167.723-.157.006-.313.012-.47.012-4.192 0-7.992-1.974-10.386-5.091 3.474-.211 7.663-.951 11.74-2.019 4.413-1.155 8.481-2.629 11.584-4.187-.098.848-.283 1.676-.548 2.475-.681.054-1.282-.232-1.79-.858l-1.03.799c.64.789 1.439 1.242 2.317 1.334-.509 1.113-1.178 2.15-1.985 3.076-1.37-1.38-3.012-2.765-3.94-2.591-.278.052-.57.162-.906.289-.692.26-1.552.583-2.285.334l-.43 1.214c1.19.404 2.344-.032 3.187-.35.248-.092.482-.18.644-.217.404.077 1.641 1.074 2.826 2.258-1.75 1.642-3.984 2.826-6.537 3.304z"/>
</svg>
