<svg xmlns="http://www.w3.org/2000/svg" width="31" height="26" viewBox="0 0 31 26">
    <path fill="#C8102E" stroke="#da291c" d="M30.09 1.713v-.002c0-.52-.528-.854-.99-.65-.039.016-27.37 12.392-27.685 12.535-.263.118-.427.385-.414.673.012.288.198.54.47.635l9.958 3.511.092 5.89c.004.273.166.52.415.632.25.113.542.07.75-.105l4.966-4.222 11.335 3.997c.457.16.938-.176.942-.66l.162-22.233s0 0 0 0zM25.8 4.104l-13.842 13-8.36-2.947L25.8 4.104zM12.91 22.787l-.06-3.87 3.26 1.15-3.2 2.72zm.548-5.153L25.96 5.89 19.6 16.158c-.206.331-.103.766.229.972.331.205.767.102.972-.23l7.86-12.683-.137 18.729-15.065-5.312z"/>
</svg>
